<svg width="33" height="27" viewBox="0 0 33 27" fill="none" xmlns="http://www.w3.org/2000/svg">
<path fill-rule="evenodd" clip-rule="evenodd" d="M16.3342 25.9271C11.4757 25.9271 7.3252 25.1921 7.3252 22.2491C7.3252 19.3061 11.4487 16.7441 16.3342 16.7441C21.1927 16.7441 25.3432 19.2821 25.3432 22.2236C25.3432 25.1651 21.2197 25.9271 16.3342 25.9271Z" stroke="#2699FB" stroke-width="2" stroke-linecap="round" stroke-linejoin="round"/>
<path fill-rule="evenodd" clip-rule="evenodd" d="M16.3336 12.5485C19.5226 12.5485 22.1086 9.964 22.1086 6.775C22.1086 3.586 19.5226 1 16.3336 1C13.1446 1 10.5586 3.586 10.5586 6.775C10.5496 9.952 13.1146 12.538 16.2931 12.5485H16.3336Z" stroke="#2699FB" stroke-width="2" stroke-linecap="round" stroke-linejoin="round"/>
<path d="M25.9189 10.9625C27.7744 10.466 29.1424 8.77405 29.1424 6.75955C29.1424 4.65805 27.6529 2.90305 25.6699 2.49805" stroke="#2699FB" stroke-width="2" stroke-linecap="round" stroke-linejoin="round"/>
<path d="M26.79 15.6914C29.421 15.6914 31.668 17.4749 31.668 19.0679C31.668 20.0054 30.8925 21.0269 29.7165 21.3029" stroke="#2699FB" stroke-width="2" stroke-linecap="round" stroke-linejoin="round"/>
<path d="M6.75137 10.9625C4.89437 10.466 3.52637 8.77405 3.52637 6.75955C3.52637 4.65805 5.01737 2.90305 6.99887 2.49805" stroke="#2699FB" stroke-width="2" stroke-linecap="round" stroke-linejoin="round"/>
<path d="M5.878 15.6914C3.247 15.6914 1 17.4749 1 19.0679C1 20.0054 1.7755 21.0269 2.953 21.3029" stroke="#2699FB" stroke-width="2" stroke-linecap="round" stroke-linejoin="round"/>
</svg>
