<svg width="30" height="30" viewBox="0 0 30 30" fill="none" xmlns="http://www.w3.org/2000/svg">
<path d="M14.875 1C4.4695 1 1 4.4695 1 14.875C1 25.2805 4.4695 28.75 14.875 28.75C25.2805 28.75 28.75 25.2805 28.75 14.875" stroke="#2699FB" stroke-width="2" stroke-linecap="round" stroke-linejoin="round"/>
<path fill-rule="evenodd" clip-rule="evenodd" d="M26.1671 3.33095C24.6776 2.01245 22.4021 2.15045 21.0836 3.63995C21.0836 3.63995 14.5301 11.0424 12.2576 13.6119C9.98206 16.1799 11.6501 19.7274 11.6501 19.7274C11.6501 19.7274 15.4061 20.9169 17.6471 18.3849C19.8896 15.8529 26.4761 8.41445 26.4761 8.41445C27.7946 6.92495 27.6551 4.64945 26.1671 3.33095Z" stroke="#2699FB" stroke-width="2" stroke-linecap="round" stroke-linejoin="round"/>
<path d="M19.3887 5.57617L24.7812 10.3507" stroke="#2699FB" stroke-width="2" stroke-linecap="round" stroke-linejoin="round"/>
</svg>
