<svg width="215" height="82" viewBox="0 0 215 82" fill="none" xmlns="http://www.w3.org/2000/svg">
<path d="M6.61932 20.1989C5.9233 20.1941 5.24384 20.0734 4.58097 19.8366C3.91809 19.5952 3.3215 19.2045 2.79119 18.6648C2.26089 18.1203 1.83949 17.3982 1.52699 16.4986C1.21449 15.5942 1.06061 14.4744 1.06534 13.1392C1.06534 11.8939 1.19792 10.7836 1.46307 9.80824C1.72822 8.83286 2.10938 8.009 2.60653 7.33665C3.10369 6.65956 3.70265 6.14347 4.40341 5.78835C5.1089 5.43324 5.89725 5.25568 6.76847 5.25568C7.68229 5.25568 8.49195 5.43561 9.19744 5.79545C9.90767 6.1553 10.4806 6.64773 10.9162 7.27273C11.3518 7.89299 11.6217 8.59375 11.7259 9.375H9.13352C9.00095 8.81629 8.72869 8.37121 8.31676 8.03977C7.90956 7.7036 7.39347 7.53551 6.76847 7.53551C5.75994 7.53551 4.98343 7.97348 4.43892 8.84943C3.89915 9.72538 3.62689 10.928 3.62216 12.4574H3.72159C3.9536 12.0407 4.25426 11.6832 4.62358 11.3849C4.9929 11.0866 5.40956 10.857 5.87358 10.696C6.34233 10.5303 6.83712 10.4474 7.35795 10.4474C8.21023 10.4474 8.97491 10.651 9.65199 11.0582C10.3338 11.4654 10.8736 12.0265 11.2713 12.7415C11.669 13.4517 11.8655 14.2661 11.8608 15.1847C11.8655 16.1411 11.6477 17.0005 11.2074 17.7628C10.767 18.5204 10.1539 19.117 9.3679 19.5526C8.58191 19.9882 7.66572 20.2036 6.61932 20.1989ZM6.60511 18.0682C7.12121 18.0682 7.58286 17.9427 7.99006 17.6918C8.39725 17.4408 8.71922 17.1023 8.95597 16.6761C9.19271 16.25 9.30871 15.7718 9.30398 15.2415C9.30871 14.7206 9.19508 14.2495 8.96307 13.8281C8.7358 13.4067 8.42093 13.0729 8.01847 12.8267C7.616 12.5805 7.15672 12.4574 6.64062 12.4574C6.2571 12.4574 5.89962 12.5308 5.56818 12.6776C5.23674 12.8243 4.94792 13.0279 4.7017 13.2884C4.45549 13.544 4.26136 13.8423 4.11932 14.1832C3.98201 14.5194 3.91098 14.8793 3.90625 15.2628C3.91098 15.7694 4.02936 16.2358 4.26136 16.6619C4.49337 17.0881 4.81297 17.429 5.22017 17.6847C5.62737 17.9403 6.08902 18.0682 6.60511 18.0682ZM21.9993 5.45455V20H19.3643V5.45455H21.9993ZM27.31 13.608V20H24.739V9.09091H27.1964V10.9446H27.3242C27.5752 10.3338 27.9753 9.84848 28.5245 9.48864C29.0785 9.12879 29.7627 8.94886 30.5771 8.94886C31.3299 8.94886 31.9857 9.10985 32.5444 9.43182C33.1078 9.75379 33.5434 10.2202 33.8512 10.831C34.1637 11.4418 34.3176 12.1828 34.3129 13.054V20H31.7418V13.4517C31.7418 12.7225 31.5524 12.152 31.1737 11.7401C30.7996 11.3281 30.2811 11.1222 29.6183 11.1222C29.1684 11.1222 28.7683 11.2216 28.418 11.4205C28.0723 11.6146 27.8001 11.8963 27.6012 12.2656C27.4071 12.6349 27.31 13.0824 27.31 13.608ZM40.9748 20.1918C40.1178 20.1918 39.3507 19.9716 38.6737 19.5312C37.9966 19.0909 37.4615 18.4517 37.0685 17.6136C36.6755 16.7756 36.479 15.7576 36.479 14.5597C36.479 13.3475 36.6779 12.3248 37.0756 11.4915C37.4781 10.6534 38.0202 10.0213 38.7021 9.59517C39.3839 9.1643 40.1438 8.94886 40.9819 8.94886C41.6211 8.94886 42.1467 9.05777 42.5586 9.27557C42.9705 9.48864 43.2972 9.74669 43.5387 10.0497C43.7802 10.348 43.9672 10.6297 44.0998 10.8949H44.2063V5.45455H46.7844V20H44.256V18.2812H44.0998C43.9672 18.5464 43.7755 18.8281 43.5245 19.1264C43.2736 19.42 42.9421 19.6709 42.5302 19.8793C42.1183 20.0876 41.5998 20.1918 40.9748 20.1918ZM41.6921 18.0824C42.2366 18.0824 42.7006 17.9356 43.0842 17.642C43.4677 17.3437 43.7589 16.9295 43.9577 16.3991C44.1566 15.8688 44.256 15.2509 44.256 14.5455C44.256 13.84 44.1566 13.2268 43.9577 12.706C43.7636 12.1851 43.4748 11.7803 43.0913 11.4915C42.7125 11.2027 42.2461 11.0582 41.6921 11.0582C41.1192 11.0582 40.641 11.2074 40.2575 11.5057C39.8739 11.804 39.5851 12.2159 39.391 12.7415C39.1969 13.267 39.0998 13.8684 39.0998 14.5455C39.0998 15.2273 39.1969 15.8357 39.391 16.3707C39.5898 16.901 39.881 17.3201 40.2646 17.6278C40.6528 17.9309 41.1287 18.0824 41.6921 18.0824ZM56.4773 15.4119V9.09091H59.0483V20H56.5554V18.0611H56.4418C56.1955 18.6719 55.7907 19.1714 55.2273 19.5597C54.6686 19.9479 53.9796 20.142 53.1605 20.142C52.4455 20.142 51.8134 19.9834 51.2642 19.6662C50.7197 19.3442 50.2936 18.8778 49.9858 18.267C49.678 17.6515 49.5241 16.9081 49.5241 16.0369V9.09091H52.0952V15.6392C52.0952 16.3305 52.2846 16.8797 52.6634 17.2869C53.0421 17.6941 53.5393 17.8977 54.1548 17.8977C54.5336 17.8977 54.9006 17.8054 55.2557 17.6207C55.6108 17.4361 55.902 17.1615 56.1293 16.7969C56.3613 16.4276 56.4773 15.9659 56.4773 15.4119ZM70.3143 11.9744L67.9705 12.2301C67.9042 11.9934 67.7882 11.7708 67.6225 11.5625C67.4615 11.3542 67.2437 11.1861 66.9691 11.0582C66.6945 10.9304 66.3583 10.8665 65.9606 10.8665C65.4255 10.8665 64.9757 10.9825 64.6112 11.2145C64.2513 11.4465 64.0737 11.7472 64.0785 12.1165C64.0737 12.4337 64.1897 12.6918 64.4265 12.8906C64.668 13.0895 65.0657 13.2528 65.6197 13.3807L67.4805 13.7784C68.5127 14.0009 69.2797 14.3537 69.7816 14.8366C70.2882 15.3196 70.5439 15.9517 70.5487 16.733C70.5439 17.4195 70.3427 18.0256 69.945 18.5511C69.552 19.072 69.0051 19.4792 68.3043 19.7727C67.6036 20.0663 66.7987 20.2131 65.8896 20.2131C64.5543 20.2131 63.4795 19.9337 62.6651 19.375C61.8507 18.8116 61.3654 18.0279 61.2092 17.0241L63.7163 16.7827C63.8299 17.2751 64.0714 17.6468 64.4407 17.8977C64.81 18.1487 65.2906 18.2741 65.8825 18.2741C66.4933 18.2741 66.9833 18.1487 67.3526 17.8977C67.7267 17.6468 67.9137 17.3366 67.9137 16.9673C67.9137 16.6548 67.793 16.3968 67.5515 16.1932C67.3147 15.9896 66.9454 15.8333 66.4435 15.7244L64.5827 15.3338C63.5363 15.116 62.7622 14.7491 62.2603 14.233C61.7584 13.7121 61.5098 13.054 61.5146 12.2585C61.5098 11.5862 61.6921 11.0038 62.0614 10.5114C62.4355 10.0142 62.954 9.63068 63.6168 9.3608C64.2844 9.08617 65.0539 8.94886 65.9251 8.94886C67.2035 8.94886 68.2096 9.22112 68.9435 9.76562C69.6822 10.3101 70.1391 11.0464 70.3143 11.9744ZM78.1161 9.09091V11.0795H71.8448V9.09091H78.1161ZM73.3931 6.47727H75.9641V16.7188C75.9641 17.0644 76.0162 17.3295 76.1204 17.5142C76.2293 17.6941 76.3713 17.8172 76.5465 17.8835C76.7217 17.9498 76.9158 17.983 77.1289 17.983C77.2899 17.983 77.4367 17.9711 77.5692 17.9474C77.7066 17.9238 77.8107 17.9025 77.8817 17.8835L78.315 19.8935C78.1777 19.9408 77.9812 19.9929 77.7255 20.0497C77.4746 20.1065 77.1668 20.1397 76.8022 20.1491C76.1583 20.1681 75.5782 20.071 75.0621 19.858C74.546 19.6402 74.1365 19.304 73.8335 18.8494C73.5352 18.3949 73.3884 17.8267 73.3931 17.1449V6.47727ZM80.2663 20V9.09091H82.7592V10.9091H82.8729C83.0717 10.2794 83.4126 9.79403 83.8956 9.45312C84.3833 9.10748 84.9396 8.93466 85.5646 8.93466C85.7067 8.93466 85.8653 8.94176 86.0405 8.95597C86.2204 8.96544 86.3696 8.98201 86.4879 9.00568V11.3707C86.379 11.3329 86.2062 11.2997 85.9695 11.2713C85.7375 11.2382 85.5125 11.2216 85.2947 11.2216C84.826 11.2216 84.4046 11.3234 84.0305 11.527C83.6612 11.7259 83.37 12.0028 83.157 12.358C82.9439 12.7131 82.8374 13.1226 82.8374 13.5866V20H80.2663ZM90.1261 24.0909C89.7757 24.0909 89.4513 24.0625 89.1531 24.0057C88.8595 23.9536 88.6251 23.892 88.4499 23.821L89.0465 21.8182C89.4206 21.9271 89.7544 21.9792 90.0479 21.9744C90.3415 21.9697 90.5996 21.8774 90.8221 21.6974C91.0494 21.5223 91.2411 21.2287 91.3974 20.8168L91.6175 20.2273L87.6616 9.09091H90.3888L92.9031 17.3295H93.0167L95.538 9.09091H98.2724L93.9045 21.321C93.7009 21.8987 93.431 22.3935 93.0948 22.8054C92.7586 23.2221 92.3467 23.5393 91.859 23.7571C91.3761 23.9796 90.7984 24.0909 90.1261 24.0909ZM105.126 20V5.45455H107.761V17.7912H114.167V20H105.126ZM121.17 20.2131C120.076 20.2131 119.132 19.9858 118.336 19.5312C117.546 19.072 116.937 18.4233 116.511 17.5852C116.085 16.7424 115.872 15.7505 115.872 14.6094C115.872 13.4872 116.085 12.5024 116.511 11.6548C116.942 10.8026 117.543 10.1397 118.315 9.66619C119.087 9.18797 119.993 8.94886 121.035 8.94886C121.708 8.94886 122.342 9.05777 122.939 9.27557C123.54 9.48864 124.07 9.82008 124.529 10.2699C124.993 10.7197 125.358 11.2926 125.623 11.9886C125.888 12.6799 126.021 13.5038 126.021 14.4602V15.2486H117.079V13.5156H123.556C123.552 13.0232 123.445 12.5852 123.237 12.2017C123.029 11.8134 122.737 11.508 122.363 11.2855C121.994 11.063 121.563 10.9517 121.071 10.9517C120.545 10.9517 120.083 11.0795 119.686 11.3352C119.288 11.5862 118.978 11.9176 118.755 12.3295C118.538 12.7367 118.426 13.1842 118.422 13.6719V15.1847C118.422 15.8191 118.538 16.3636 118.77 16.8182C119.002 17.268 119.326 17.6136 119.743 17.8551C120.159 18.0919 120.647 18.2102 121.206 18.2102C121.58 18.2102 121.918 18.1581 122.221 18.054C122.524 17.9451 122.787 17.7865 123.01 17.5781C123.232 17.3698 123.4 17.1117 123.514 16.804L125.914 17.0739C125.763 17.7083 125.474 18.2623 125.048 18.7358C124.627 19.2045 124.087 19.5691 123.429 19.8295C122.77 20.0852 122.018 20.2131 121.17 20.2131ZM137.628 9.09091L133.743 20H130.902L127.017 9.09091H129.759L132.266 17.1946H132.379L134.893 9.09091H137.628ZM143.865 20.2131C142.772 20.2131 141.827 19.9858 141.032 19.5312C140.241 19.072 139.632 18.4233 139.206 17.5852C138.78 16.7424 138.567 15.7505 138.567 14.6094C138.567 13.4872 138.78 12.5024 139.206 11.6548C139.637 10.8026 140.239 10.1397 141.01 9.66619C141.782 9.18797 142.689 8.94886 143.73 8.94886C144.403 8.94886 145.037 9.05777 145.634 9.27557C146.235 9.48864 146.766 9.82008 147.225 10.2699C147.689 10.7197 148.053 11.2926 148.319 11.9886C148.584 12.6799 148.716 13.5038 148.716 14.4602V15.2486H139.775V13.5156H146.252C146.247 13.0232 146.141 12.5852 145.932 12.2017C145.724 11.8134 145.433 11.508 145.059 11.2855C144.689 11.063 144.258 10.9517 143.766 10.9517C143.24 10.9517 142.779 11.0795 142.381 11.3352C141.983 11.5862 141.673 11.9176 141.451 12.3295C141.233 12.7367 141.122 13.1842 141.117 13.6719V15.1847C141.117 15.8191 141.233 16.3636 141.465 16.8182C141.697 17.268 142.021 17.6136 142.438 17.8551C142.855 18.0919 143.342 18.2102 143.901 18.2102C144.275 18.2102 144.614 18.1581 144.917 18.054C145.22 17.9451 145.482 17.7865 145.705 17.5781C145.927 17.3698 146.096 17.1117 146.209 16.804L148.61 17.0739C148.458 17.7083 148.169 18.2623 147.743 18.7358C147.322 19.2045 146.782 19.5691 146.124 19.8295C145.466 20.0852 144.713 20.2131 143.865 20.2131ZM153.462 5.45455V20H150.891V5.45455H153.462ZM1.43466 46V31.4545H6.8892C8.00663 31.4545 8.94413 31.6629 9.7017 32.0795C10.464 32.4962 11.0393 33.0691 11.4276 33.7983C11.8205 34.5227 12.017 35.3466 12.017 36.2699C12.017 37.2027 11.8205 38.0312 11.4276 38.7557C11.0346 39.4801 10.4545 40.0507 9.6875 40.4673C8.92045 40.8793 7.97585 41.0852 6.85369 41.0852H3.23864V38.919H6.49858C7.15199 38.919 7.68703 38.8054 8.10369 38.5781C8.52036 38.3509 8.82813 38.0384 9.02699 37.6406C9.23059 37.2429 9.33239 36.786 9.33239 36.2699C9.33239 35.7538 9.23059 35.2992 9.02699 34.9062C8.82813 34.5133 8.51799 34.2079 8.09659 33.9901C7.67992 33.7675 7.14252 33.6562 6.48438 33.6562H4.0696V46H1.43466ZM14.1921 46V35.0909H16.685V36.9091H16.7987C16.9975 36.2794 17.3384 35.794 17.8214 35.4531C18.3091 35.1075 18.8654 34.9347 19.4904 34.9347C19.6325 34.9347 19.7911 34.9418 19.9663 34.956C20.1462 34.9654 20.2953 34.982 20.4137 35.0057V37.3707C20.3048 37.3329 20.132 37.2997 19.8952 37.2713C19.6632 37.2382 19.4383 37.2216 19.2205 37.2216C18.7518 37.2216 18.3304 37.3234 17.9563 37.527C17.587 37.7259 17.2958 38.0028 17.0827 38.358C16.8697 38.7131 16.7631 39.1226 16.7631 39.5866V46H14.1921ZM26.4311 46.2131C25.3658 46.2131 24.4425 45.9787 23.6612 45.5099C22.88 45.0412 22.2739 44.3854 21.843 43.5426C21.4169 42.6998 21.2038 41.715 21.2038 40.5881C21.2038 39.4612 21.4169 38.474 21.843 37.6264C22.2739 36.7789 22.88 36.1207 23.6612 35.652C24.4425 35.1832 25.3658 34.9489 26.4311 34.9489C27.4964 34.9489 28.4197 35.1832 29.201 35.652C29.9822 36.1207 30.5859 36.7789 31.0121 37.6264C31.4429 38.474 31.6584 39.4612 31.6584 40.5881C31.6584 41.715 31.4429 42.6998 31.0121 43.5426C30.5859 44.3854 29.9822 45.0412 29.201 45.5099C28.4197 45.9787 27.4964 46.2131 26.4311 46.2131ZM26.4453 44.1534C27.023 44.1534 27.5059 43.9948 27.8942 43.6776C28.2824 43.3556 28.5713 42.9247 28.7607 42.3849C28.9548 41.8452 29.0518 41.2438 29.0518 40.581C29.0518 39.9134 28.9548 39.3097 28.7607 38.7699C28.5713 38.2254 28.2824 37.7921 27.8942 37.4702C27.5059 37.1482 27.023 36.9872 26.4453 36.9872C25.8535 36.9872 25.361 37.1482 24.968 37.4702C24.5798 37.7921 24.2886 38.2254 24.0945 38.7699C23.9051 39.3097 23.8104 39.9134 23.8104 40.581C23.8104 41.2438 23.9051 41.8452 24.0945 42.3849C24.2886 42.9247 24.5798 43.3556 24.968 43.6776C25.361 43.9948 25.8535 44.1534 26.4453 44.1534ZM33.8406 35.0909H36.4116V46.625C36.4116 47.411 36.2624 48.0597 35.9641 48.571C35.6658 49.0824 35.235 49.4635 34.6715 49.7145C34.1081 49.9654 33.4239 50.0909 32.619 50.0909C32.5243 50.0909 32.4367 50.0885 32.3562 50.0838C32.2757 50.0838 32.1881 50.0814 32.0934 50.0767V47.9815C32.1644 47.9863 32.2283 47.9886 32.2852 47.9886C32.342 47.9934 32.4012 47.9957 32.4627 47.9957C32.9551 47.9957 33.3079 47.875 33.521 47.6335C33.734 47.3968 33.8406 47.0488 33.8406 46.5895V35.0909ZM35.119 33.5426C34.707 33.5426 34.3543 33.4077 34.0607 33.1378C33.7719 32.8632 33.6275 32.5341 33.6275 32.1506C33.6275 31.7623 33.7719 31.4332 34.0607 31.1634C34.3543 30.8887 34.707 30.7514 35.119 30.7514C35.5262 30.7514 35.8742 30.8887 36.163 31.1634C36.4566 31.4332 36.6033 31.7623 36.6033 32.1506C36.6033 32.5341 36.4566 32.8632 36.163 33.1378C35.8742 33.4077 35.5262 33.5426 35.119 33.5426ZM43.8849 46.2131C42.7912 46.2131 41.8466 45.9858 41.0511 45.5312C40.2604 45.072 39.652 44.4233 39.2259 43.5852C38.7997 42.7424 38.5866 41.7505 38.5866 40.6094C38.5866 39.4872 38.7997 38.5024 39.2259 37.6548C39.6567 36.8026 40.258 36.1397 41.0298 35.6662C41.8016 35.188 42.7083 34.9489 43.75 34.9489C44.4223 34.9489 45.0568 35.0578 45.6534 35.2756C46.2547 35.4886 46.785 35.8201 47.2443 36.2699C47.7083 36.7197 48.0729 37.2926 48.3381 37.9886C48.6032 38.6799 48.7358 39.5038 48.7358 40.4602V41.2486H39.794V39.5156H46.2713C46.2666 39.0232 46.16 38.5852 45.9517 38.2017C45.7434 37.8134 45.4522 37.508 45.0781 37.2855C44.7088 37.063 44.2779 36.9517 43.7855 36.9517C43.2599 36.9517 42.7983 37.0795 42.4006 37.3352C42.0028 37.5862 41.6927 37.9176 41.4702 38.3295C41.2524 38.7367 41.1411 39.1842 41.1364 39.6719V41.1847C41.1364 41.8191 41.2524 42.3636 41.4844 42.8182C41.7164 43.268 42.0407 43.6136 42.4574 43.8551C42.8741 44.0919 43.3617 44.2102 43.9205 44.2102C44.2945 44.2102 44.633 44.1581 44.9361 44.054C45.2391 43.9451 45.5019 43.7865 45.7244 43.5781C45.947 43.3698 46.1151 43.1117 46.2287 42.804L48.6293 43.0739C48.4777 43.7083 48.1889 44.2623 47.7628 44.7358C47.3414 45.2045 46.8016 45.5691 46.1435 45.8295C45.4853 46.0852 44.7325 46.2131 43.8849 46.2131ZM55.6694 46.2131C54.5804 46.2131 53.6452 45.974 52.864 45.4957C52.0875 45.0175 51.4885 44.357 51.0671 43.5142C50.6504 42.6667 50.4421 41.6913 50.4421 40.5881C50.4421 39.4801 50.6552 38.5024 51.0813 37.6548C51.5075 36.8026 52.1088 36.1397 52.8853 35.6662C53.6665 35.188 54.5898 34.9489 55.6552 34.9489C56.5406 34.9489 57.3242 35.1122 58.006 35.4389C58.6926 35.7609 59.2395 36.2178 59.6467 36.8097C60.0539 37.3968 60.2859 38.0833 60.3427 38.8693H57.8853C57.7859 38.3437 57.5491 37.9058 57.1751 37.5554C56.8058 37.2003 56.311 37.0227 55.6907 37.0227C55.1651 37.0227 54.7035 37.1648 54.3058 37.4489C53.908 37.7282 53.5979 38.1307 53.3754 38.6562C53.1576 39.1818 53.0487 39.8116 53.0487 40.5455C53.0487 41.2888 53.1576 41.928 53.3754 42.4631C53.5932 42.9934 53.8986 43.4029 54.2915 43.6918C54.6893 43.9759 55.1557 44.1179 55.6907 44.1179C56.0695 44.1179 56.408 44.0469 56.7063 43.9048C57.0094 43.758 57.2627 43.5473 57.4663 43.2727C57.6699 42.9981 57.8095 42.6643 57.8853 42.2713H60.3427C60.2811 43.0431 60.0539 43.7273 59.6609 44.3239C59.2679 44.9157 58.7328 45.3797 58.0558 45.7159C57.3787 46.0473 56.5832 46.2131 55.6694 46.2131ZM67.9013 35.0909V37.0795H61.63V35.0909H67.9013ZM63.1783 32.4773H65.7493V42.7188C65.7493 43.0644 65.8014 43.3295 65.9055 43.5142C66.0144 43.6941 66.1565 43.8172 66.3317 43.8835C66.5069 43.9498 66.701 43.983 66.9141 43.983C67.075 43.983 67.2218 43.9711 67.3544 43.9474C67.4917 43.9238 67.5959 43.9025 67.6669 43.8835L68.1001 45.8935C67.9628 45.9408 67.7663 45.9929 67.5107 46.0497C67.2597 46.1065 66.9519 46.1397 66.5874 46.1491C65.9434 46.1681 65.3634 46.071 64.8473 45.858C64.3312 45.6402 63.9216 45.304 63.6186 44.8494C63.3203 44.3949 63.1735 43.8267 63.1783 43.1449V32.4773ZM78.5174 37.9744L76.1737 38.2301C76.1074 37.9934 75.9914 37.7708 75.8256 37.5625C75.6647 37.3542 75.4469 37.1861 75.1722 37.0582C74.8976 36.9304 74.5614 36.8665 74.1637 36.8665C73.6287 36.8665 73.1789 36.9825 72.8143 37.2145C72.4544 37.4465 72.2769 37.7472 72.2816 38.1165C72.2769 38.4337 72.3929 38.6918 72.6296 38.8906C72.8711 39.0895 73.2688 39.2528 73.8228 39.3807L75.6836 39.7784C76.7158 40.0009 77.4828 40.3537 77.9847 40.8366C78.4914 41.3196 78.747 41.9517 78.7518 42.733C78.747 43.4195 78.5458 44.0256 78.1481 44.5511C77.7551 45.072 77.2082 45.4792 76.5075 45.7727C75.8067 46.0663 75.0018 46.2131 74.0927 46.2131C72.7575 46.2131 71.6826 45.9337 70.8683 45.375C70.0539 44.8116 69.5685 44.0279 69.4123 43.0241L71.9194 42.7827C72.033 43.2751 72.2745 43.6468 72.6438 43.8977C73.0131 44.1487 73.4937 44.2741 74.0856 44.2741C74.6964 44.2741 75.1864 44.1487 75.5558 43.8977C75.9298 43.6468 76.1168 43.3366 76.1168 42.9673C76.1168 42.6548 75.9961 42.3968 75.7546 42.1932C75.5179 41.9896 75.1486 41.8333 74.6467 41.7244L72.7859 41.3338C71.7395 41.116 70.9653 40.7491 70.4634 40.233C69.9615 39.7121 69.7129 39.054 69.7177 38.2585C69.7129 37.5862 69.8952 37.0038 70.2646 36.5114C70.6386 36.0142 71.1571 35.6307 71.82 35.3608C72.4876 35.0862 73.257 34.9489 74.1282 34.9489C75.4066 34.9489 76.4128 35.2211 77.1467 35.7656C77.8853 36.3101 78.3422 37.0464 78.5174 37.9744Z" fill="#0A2134"/>
<path d="M8.77841 68.5C8.66122 68.1413 8.50675 67.82 8.31499 67.5359C8.12678 67.2482 7.90128 67.0032 7.63849 66.8008C7.37926 66.5984 7.08452 66.4439 6.75426 66.3374C6.42401 66.2308 6.06179 66.1776 5.66761 66.1776C5.02131 66.1776 4.43359 66.3445 3.90447 66.6783C3.37536 67.0121 2.95455 67.5039 2.64205 68.1538C2.32955 68.8036 2.1733 69.6009 2.1733 70.5455C2.1733 71.4901 2.33132 72.2873 2.64737 72.9371C2.96342 73.587 3.39134 74.0788 3.93111 74.4126C4.47088 74.7464 5.07813 74.9134 5.75284 74.9134C6.37784 74.9134 6.92827 74.7802 7.40412 74.5138C7.88352 74.244 8.25639 73.864 8.52273 73.3739C8.79261 72.8803 8.92756 72.2997 8.92756 71.6321L9.33239 71.7173H6.05114V70.5455H10.206V71.7173C10.206 72.6158 10.0142 73.397 9.63068 74.0611C9.25071 74.7251 8.72514 75.2401 8.05398 75.6058C7.38636 75.968 6.61932 76.1491 5.75284 76.1491C4.78693 76.1491 3.93821 75.9219 3.20668 75.4673C2.47869 75.0128 1.91051 74.3665 1.50213 73.5284C1.0973 72.6903 0.894886 71.696 0.894886 70.5455C0.894886 69.6825 1.0103 68.9066 1.24112 68.2177C1.4755 67.5252 1.80575 66.9357 2.23189 66.4492C2.65803 65.9627 3.16229 65.5898 3.74467 65.3306C4.32706 65.0714 4.96804 64.9418 5.66761 64.9418C6.2429 64.9418 6.77912 65.0288 7.27628 65.2028C7.77699 65.3732 8.22266 65.6165 8.61328 65.9325C9.00746 66.245 9.33594 66.6197 9.59872 67.0565C9.86151 67.4897 10.0426 67.9709 10.142 68.5H8.77841ZM15.7284 76.1705C14.9401 76.1705 14.26 75.9964 13.6883 75.6484C13.1201 75.2969 12.6816 74.8068 12.3726 74.1783C12.0672 73.5462 11.9145 72.8111 11.9145 71.973C11.9145 71.1349 12.0672 70.3963 12.3726 69.7571C12.6816 69.1143 13.1112 68.6136 13.6617 68.255C14.2156 67.8928 14.8619 67.7116 15.6006 67.7116C16.0267 67.7116 16.4475 67.7827 16.863 67.9247C17.2785 68.0668 17.6567 68.2976 17.9976 68.6172C18.3385 68.9332 18.6102 69.3523 18.8126 69.8743C19.015 70.3963 19.1162 71.0391 19.1162 71.8026V72.3352H12.8094V71.2486H17.8378C17.8378 70.7869 17.7455 70.375 17.5608 70.0128C17.3797 69.6506 17.1205 69.3647 16.7831 69.1552C16.4493 68.9457 16.0551 68.8409 15.6006 68.8409C15.0999 68.8409 14.6666 68.9652 14.3009 69.2138C13.9387 69.4588 13.6599 69.7784 13.4646 70.1726C13.2693 70.5668 13.1716 70.9893 13.1716 71.4403V72.1648C13.1716 72.7827 13.2781 73.3065 13.4912 73.7362C13.7078 74.1623 14.0079 74.4872 14.3914 74.7109C14.7749 74.9311 15.2206 75.0412 15.7284 75.0412C16.0587 75.0412 16.357 74.995 16.6233 74.9027C16.8932 74.8068 17.1258 74.6648 17.3211 74.4766C17.5164 74.2848 17.6673 74.0469 17.7739 73.7628L18.9884 74.1037C18.8605 74.5156 18.6457 74.8778 18.3438 75.1903C18.042 75.4993 17.6691 75.7408 17.2252 75.9148C16.7813 76.0852 16.2824 76.1705 15.7284 76.1705ZM24.5867 67.8182V68.8835H20.3467V67.8182H24.5867ZM21.5825 65.858H22.8396V73.6562C22.8396 74.0114 22.8911 74.2777 22.9941 74.4553C23.1006 74.6293 23.2355 74.7464 23.3989 74.8068C23.5658 74.8636 23.7416 74.892 23.9262 74.892C24.0647 74.892 24.1784 74.8849 24.2671 74.8707C24.3559 74.853 24.4269 74.8388 24.4802 74.8281L24.7359 75.9574C24.6507 75.9893 24.5317 76.0213 24.379 76.0533C24.2263 76.0888 24.0328 76.1065 23.7984 76.1065C23.4433 76.1065 23.0953 76.0302 22.7544 75.8775C22.417 75.7248 22.1365 75.4922 21.9127 75.1797C21.6926 74.8672 21.5825 74.473 21.5825 73.9972V65.858ZM30.6965 79.0682V67.8182H31.911V69.1179H32.0601C32.1524 68.9759 32.2803 68.7947 32.4436 68.5746C32.6105 68.3509 32.8485 68.152 33.1574 67.978C33.4699 67.8004 33.8925 67.7116 34.4252 67.7116C35.1141 67.7116 35.7213 67.8839 36.2469 68.2283C36.7725 68.5728 37.1826 69.0611 37.4774 69.6932C37.7721 70.3253 37.9195 71.071 37.9195 71.9304C37.9195 72.7969 37.7721 73.5479 37.4774 74.1836C37.1826 74.8157 36.7742 75.3058 36.2522 75.6538C35.7302 75.9982 35.1283 76.1705 34.4465 76.1705C33.9209 76.1705 33.5001 76.0835 33.184 75.9094C32.868 75.7319 32.6247 75.5312 32.4543 75.3075C32.2838 75.0803 32.1524 74.892 32.0601 74.7429H31.9536V79.0682H30.6965ZM31.9323 71.9091C31.9323 72.527 32.0228 73.0721 32.2039 73.5444C32.385 74.0131 32.6496 74.3807 32.9976 74.647C33.3456 74.9098 33.7718 75.0412 34.276 75.0412C34.8016 75.0412 35.2401 74.9027 35.5917 74.6257C35.9468 74.3452 36.2132 73.9687 36.3907 73.4964C36.5718 73.0206 36.6624 72.4915 36.6624 71.9091C36.6624 71.3338 36.5736 70.8153 36.396 70.3537C36.222 69.8885 35.9575 69.521 35.6024 69.2511C35.2508 68.9776 34.8087 68.8409 34.276 68.8409C33.7646 68.8409 33.335 68.9705 32.9869 69.2298C32.6389 69.4854 32.3762 69.8441 32.1986 70.3058C32.021 70.7638 31.9323 71.2983 31.9323 71.9091ZM39.8371 76V67.8182H41.0516V69.054H41.1368C41.286 68.6491 41.5558 68.3207 41.9465 68.0685C42.3371 67.8164 42.7774 67.6903 43.2675 67.6903C43.3598 67.6903 43.4752 67.6921 43.6137 67.6957C43.7522 67.6992 43.857 67.7045 43.928 67.7116V68.9901C43.8854 68.9794 43.7877 68.9634 43.635 68.9421C43.4859 68.9173 43.3279 68.9048 43.161 68.9048C42.7632 68.9048 42.4081 68.9883 42.0956 69.1552C41.7867 69.3185 41.5416 69.5458 41.3605 69.837C41.183 70.1246 41.0942 70.4531 41.0942 70.8224V76H39.8371ZM47.8258 76.1918C47.3074 76.1918 46.8368 76.0941 46.4142 75.8988C45.9917 75.6999 45.6561 75.4141 45.4075 75.0412C45.1589 74.6648 45.0346 74.2102 45.0346 73.6776C45.0346 73.2088 45.127 72.8288 45.3116 72.5376C45.4963 72.2429 45.7431 72.0121 46.052 71.8452C46.361 71.6783 46.7019 71.554 47.0748 71.4723C47.4512 71.3871 47.8294 71.3196 48.2093 71.2699C48.7065 71.206 49.1096 71.158 49.4185 71.1261C49.731 71.0906 49.9583 71.032 50.1003 70.9503C50.2459 70.8686 50.3187 70.7266 50.3187 70.5241V70.4815C50.3187 69.956 50.1749 69.5476 49.8873 69.2564C49.6032 68.9652 49.1717 68.8196 48.5929 68.8196C47.9927 68.8196 47.5222 68.951 47.1813 69.2138C46.8404 69.4766 46.6007 69.7571 46.4622 70.0554L45.269 69.6293C45.4821 69.1321 45.7662 68.745 46.1213 68.468C46.4799 68.1875 46.8706 67.9922 47.2931 67.8821C47.7193 67.7685 48.1383 67.7116 48.5502 67.7116C48.813 67.7116 49.1149 67.7436 49.4558 67.8075C49.8002 67.8679 50.1323 67.994 50.4519 68.1857C50.775 68.3775 51.0431 68.6669 51.2562 69.054C51.4693 69.4411 51.5758 69.9595 51.5758 70.6094V76H50.3187V74.892H50.2548C50.1696 75.0696 50.0275 75.2596 49.8287 75.462C49.6298 75.6644 49.3652 75.8366 49.035 75.9787C48.7047 76.1207 48.3017 76.1918 47.8258 76.1918ZM48.0176 75.0625C48.5147 75.0625 48.9338 74.9648 49.2747 74.7695C49.6191 74.5742 49.8784 74.3221 50.0524 74.0131C50.2299 73.7042 50.3187 73.3793 50.3187 73.0384V71.8878C50.2654 71.9517 50.1483 72.0103 49.9672 72.0636C49.7896 72.1133 49.5836 72.1577 49.3493 72.1967C49.1184 72.2322 48.8929 72.2642 48.6728 72.2926C48.4561 72.3175 48.2804 72.3388 48.1454 72.3565C47.8187 72.3991 47.5133 72.4684 47.2292 72.5643C46.9487 72.6566 46.7214 72.7969 46.5474 72.9851C46.377 73.1697 46.2917 73.4219 46.2917 73.7415C46.2917 74.1783 46.4533 74.5085 46.7765 74.7322C47.1032 74.9524 47.5169 75.0625 48.0176 75.0625ZM57.1942 76.1705C56.4271 76.1705 55.7666 75.9893 55.2126 75.6271C54.6586 75.2649 54.2325 74.766 53.9342 74.1303C53.6359 73.4947 53.4868 72.7685 53.4868 71.9517C53.4868 71.1207 53.6395 70.3874 53.9449 69.7518C54.2538 69.1126 54.6835 68.6136 55.2339 68.255C55.7879 67.8928 56.4342 67.7116 57.1729 67.7116C57.7481 67.7116 58.2666 67.8182 58.7282 68.0312C59.1899 68.2443 59.5681 68.5426 59.8628 68.9261C60.1576 69.3097 60.3405 69.7571 60.4115 70.2685H59.1544C59.0585 69.8956 58.8454 69.5653 58.5152 69.2777C58.1885 68.9865 57.7481 68.8409 57.1942 68.8409C56.7041 68.8409 56.2744 68.9687 55.9051 69.2244C55.5393 69.4766 55.2535 69.8335 55.0475 70.2951C54.8451 70.7532 54.7439 71.2912 54.7439 71.9091C54.7439 72.5412 54.8433 73.0916 55.0422 73.5604C55.2446 74.0291 55.5287 74.3931 55.8944 74.6523C56.2638 74.9116 56.697 75.0412 57.1942 75.0412C57.5209 75.0412 57.8174 74.9844 58.0837 74.8707C58.3501 74.7571 58.5756 74.5938 58.7602 74.3807C58.9449 74.1676 59.0763 73.9119 59.1544 73.6136H60.4115C60.3405 74.0966 60.1647 74.5316 59.8841 74.9187C59.6072 75.3022 59.2396 75.6076 58.7815 75.8349C58.327 76.0586 57.7979 76.1705 57.1942 76.1705ZM65.8074 67.8182V68.8835H61.5674V67.8182H65.8074ZM62.8032 65.858H64.0603V73.6562C64.0603 74.0114 64.1118 74.2777 64.2148 74.4553C64.3213 74.6293 64.4562 74.7464 64.6196 74.8068C64.7865 74.8636 64.9623 74.892 65.1469 74.892C65.2854 74.892 65.3991 74.8849 65.4878 74.8707C65.5766 74.853 65.6476 74.8388 65.7009 74.8281L65.9566 75.9574C65.8714 75.9893 65.7524 76.0213 65.5997 76.0533C65.447 76.0888 65.2535 76.1065 65.0191 76.1065C64.664 76.1065 64.316 76.0302 63.9751 75.8775C63.6377 75.7248 63.3572 75.4922 63.1334 75.1797C62.9133 74.8672 62.8032 74.473 62.8032 73.9972V65.858ZM67.6984 76V67.8182H68.9555V76H67.6984ZM68.3376 66.4545C68.0926 66.4545 67.8813 66.3711 67.7037 66.2042C67.5297 66.0373 67.4427 65.8366 67.4427 65.6023C67.4427 65.3679 67.5297 65.1673 67.7037 65.0004C67.8813 64.8335 68.0926 64.75 68.3376 64.75C68.5827 64.75 68.7922 64.8335 68.9662 65.0004C69.1437 65.1673 69.2325 65.3679 69.2325 65.6023C69.2325 65.8366 69.1437 66.0373 68.9662 66.2042C68.7922 66.3711 68.5827 66.4545 68.3376 66.4545ZM74.5819 76.1705C73.8148 76.1705 73.1543 75.9893 72.6003 75.6271C72.0463 75.2649 71.6202 74.766 71.3219 74.1303C71.0236 73.4947 70.8745 72.7685 70.8745 71.9517C70.8745 71.1207 71.0272 70.3874 71.3326 69.7518C71.6415 69.1126 72.0712 68.6136 72.6216 68.255C73.1756 67.8928 73.8219 67.7116 74.5605 67.7116C75.1358 67.7116 75.6543 67.8182 76.1159 68.0312C76.5776 68.2443 76.9558 68.5426 77.2505 68.9261C77.5453 69.3097 77.7282 69.7571 77.7992 70.2685H76.5421C76.4462 69.8956 76.2331 69.5653 75.9029 69.2777C75.5762 68.9865 75.1358 68.8409 74.5819 68.8409C74.0918 68.8409 73.6621 68.9687 73.2928 69.2244C72.927 69.4766 72.6412 69.8335 72.4352 70.2951C72.2328 70.7532 72.1316 71.2912 72.1316 71.9091C72.1316 72.5412 72.231 73.0916 72.4299 73.5604C72.6323 74.0291 72.9164 74.3931 73.2821 74.6523C73.6515 74.9116 74.0847 75.0412 74.5819 75.0412C74.9086 75.0412 75.2051 74.9844 75.4714 74.8707C75.7377 74.7571 75.9632 74.5938 76.1479 74.3807C76.3326 74.1676 76.464 73.9119 76.5421 73.6136H77.7992C77.7282 74.0966 77.5524 74.5316 77.2718 74.9187C76.9949 75.3022 76.6273 75.6076 76.1692 75.8349C75.7147 76.0586 75.1855 76.1705 74.5819 76.1705ZM82.0446 76.1918C81.5261 76.1918 81.0556 76.0941 80.633 75.8988C80.2104 75.6999 79.8748 75.4141 79.6262 75.0412C79.3777 74.6648 79.2534 74.2102 79.2534 73.6776C79.2534 73.2088 79.3457 72.8288 79.5304 72.5376C79.715 72.2429 79.9618 72.0121 80.2708 71.8452C80.5797 71.6783 80.9206 71.554 81.2935 71.4723C81.6699 71.3871 82.0481 71.3196 82.4281 71.2699C82.9252 71.206 83.3283 71.158 83.6373 71.1261C83.9498 71.0906 84.177 71.032 84.3191 70.9503C84.4647 70.8686 84.5375 70.7266 84.5375 70.5241V70.4815C84.5375 69.956 84.3936 69.5476 84.106 69.2564C83.8219 68.9652 83.3904 68.8196 82.8116 68.8196C82.2115 68.8196 81.7409 68.951 81.4 69.2138C81.0591 69.4766 80.8194 69.7571 80.6809 70.0554L79.4877 69.6293C79.7008 69.1321 79.9849 68.745 80.34 68.468C80.6987 68.1875 81.0893 67.9922 81.5119 67.8821C81.938 67.7685 82.3571 67.7116 82.769 67.7116C83.0318 67.7116 83.3336 67.7436 83.6745 67.8075C84.019 67.8679 84.351 67.994 84.6706 68.1857C84.9938 68.3775 85.2619 68.6669 85.475 69.054C85.688 69.4411 85.7946 69.9595 85.7946 70.6094V76H84.5375V74.892H84.4735C84.3883 75.0696 84.2463 75.2596 84.0474 75.462C83.8485 75.6644 83.584 75.8366 83.2537 75.9787C82.9235 76.1207 82.5204 76.1918 82.0446 76.1918ZM82.2363 75.0625C82.7335 75.0625 83.1525 74.9648 83.4934 74.7695C83.8379 74.5742 84.0971 74.3221 84.2711 74.0131C84.4487 73.7042 84.5375 73.3793 84.5375 73.0384V71.8878C84.4842 71.9517 84.367 72.0103 84.1859 72.0636C84.0083 72.1133 83.8024 72.1577 83.568 72.1967C83.3372 72.2322 83.1117 72.2642 82.8915 72.2926C82.6749 72.3175 82.4991 72.3388 82.3642 72.3565C82.0375 72.3991 81.7321 72.4684 81.448 72.5643C81.1674 72.6566 80.9402 72.7969 80.7662 72.9851C80.5957 73.1697 80.5105 73.4219 80.5105 73.7415C80.5105 74.1783 80.6721 74.5085 80.9952 74.7322C81.3219 74.9524 81.7356 75.0625 82.2363 75.0625ZM89.3461 65.0909V76H88.089V65.0909H89.3461ZM101.663 69.6506L100.534 69.9702C100.463 69.782 100.358 69.5991 100.219 69.4215C100.084 69.2404 99.8997 69.0913 99.6653 68.9741C99.4309 68.8569 99.1309 68.7983 98.7651 68.7983C98.2644 68.7983 97.8471 68.9137 97.5133 69.1445C97.1831 69.3718 97.0179 69.6612 97.0179 70.0128C97.0179 70.3253 97.1316 70.5721 97.3588 70.7532C97.5861 70.9343 97.9412 71.0852 98.4242 71.206L99.6387 71.5043C100.37 71.6818 100.915 71.9535 101.274 72.3192C101.633 72.6815 101.812 73.1484 101.812 73.7202C101.812 74.1889 101.677 74.608 101.407 74.9773C101.141 75.3466 100.768 75.6378 100.289 75.8509C99.8091 76.0639 99.2516 76.1705 98.6159 76.1705C97.7814 76.1705 97.0907 75.9893 96.5439 75.6271C95.997 75.2649 95.6507 74.7358 95.5051 74.0398L96.6983 73.7415C96.812 74.1818 97.0268 74.5121 97.3429 74.7322C97.6625 74.9524 98.0797 75.0625 98.5946 75.0625C99.1806 75.0625 99.6458 74.9382 99.9902 74.6896C100.338 74.4375 100.512 74.1357 100.512 73.7841C100.512 73.5 100.413 73.2621 100.214 73.0703C100.015 72.875 99.7097 72.7294 99.2978 72.6335L97.9341 72.3139C97.1848 72.1364 96.6344 71.8612 96.2828 71.4883C95.9348 71.1119 95.7608 70.6413 95.7608 70.0767C95.7608 69.6151 95.8904 69.2067 96.1497 68.8516C96.4125 68.4964 96.7694 68.2177 97.2203 68.0153C97.6749 67.8129 98.1898 67.7116 98.7651 67.7116C99.5748 67.7116 100.21 67.8892 100.672 68.2443C101.137 68.5994 101.468 69.0682 101.663 69.6506ZM104.876 73.017L104.855 71.4616H105.111L108.69 67.8182H110.245L106.432 71.6747H106.325L104.876 73.017ZM103.704 76V65.0909H104.961V76H103.704ZM108.903 76L105.707 71.9517L106.602 71.0781L110.501 76H108.903ZM111.863 76V67.8182H113.121V76H111.863ZM112.503 66.4545C112.258 66.4545 112.046 66.3711 111.869 66.2042C111.695 66.0373 111.608 65.8366 111.608 65.6023C111.608 65.3679 111.695 65.1673 111.869 65.0004C112.046 64.8335 112.258 64.75 112.503 64.75C112.748 64.75 112.957 64.8335 113.131 65.0004C113.309 65.1673 113.398 65.3679 113.398 65.6023C113.398 65.8366 113.309 66.0373 113.131 66.2042C112.957 66.3711 112.748 66.4545 112.503 66.4545ZM116.68 65.0909V76H115.423V65.0909H116.68ZM120.24 65.0909V76H118.983V65.0909H120.24ZM128.338 69.6506L127.208 69.9702C127.137 69.782 127.033 69.5991 126.894 69.4215C126.759 69.2404 126.574 69.0913 126.34 68.9741C126.106 68.8569 125.806 68.7983 125.44 68.7983C124.939 68.7983 124.522 68.9137 124.188 69.1445C123.858 69.3718 123.693 69.6612 123.693 70.0128C123.693 70.3253 123.806 70.5721 124.034 70.7532C124.261 70.9343 124.616 71.0852 125.099 71.206L126.313 71.5043C127.045 71.6818 127.59 71.9535 127.949 72.3192C128.307 72.6815 128.487 73.1484 128.487 73.7202C128.487 74.1889 128.352 74.608 128.082 74.9773C127.816 75.3466 127.443 75.6378 126.963 75.8509C126.484 76.0639 125.926 76.1705 125.291 76.1705C124.456 76.1705 123.766 75.9893 123.219 75.6271C122.672 75.2649 122.326 74.7358 122.18 74.0398L123.373 73.7415C123.487 74.1818 123.702 74.5121 124.018 74.7322C124.337 74.9524 124.755 75.0625 125.269 75.0625C125.855 75.0625 126.321 74.9382 126.665 74.6896C127.013 74.4375 127.187 74.1357 127.187 73.7841C127.187 73.5 127.088 73.2621 126.889 73.0703C126.69 72.875 126.384 72.7294 125.973 72.6335L124.609 72.3139C123.86 72.1364 123.309 71.8612 122.958 71.4883C122.61 71.1119 122.436 70.6413 122.436 70.0767C122.436 69.6151 122.565 69.2067 122.824 68.8516C123.087 68.4964 123.444 68.2177 123.895 68.0153C124.35 67.8129 124.865 67.7116 125.44 67.7116C126.25 67.7116 126.885 67.8892 127.347 68.2443C127.812 68.5994 128.142 69.0682 128.338 69.6506Z" fill="#43505B"/>
</svg>
