<svg width="317" height="86" viewBox="0 0 317 86" fill="none" xmlns="http://www.w3.org/2000/svg">
<rect width="86" height="86" rx="8" fill="#FFF4EF"/>
<path fill-rule="evenodd" clip-rule="evenodd" d="M43 25C38.9277 25 38.5427 32.093 36.1182 34.5991C33.6938 37.1053 26.1564 34.2398 25.1092 38.6881C24.0641 43.1385 30.8447 44.6486 31.6807 48.4669C32.5211 52.2851 28.3784 57.6498 31.9183 60.3197C35.4582 62.9873 39.2687 56.9494 43 56.9494C46.7313 56.9494 50.5418 62.9873 54.0816 60.3197C57.6215 57.6498 53.481 52.2851 54.3192 48.4669C55.1575 44.6486 61.9358 43.1385 60.8908 38.6881C59.8458 34.2398 52.3062 37.1053 49.8839 34.5991C47.4595 32.093 47.0723 25 43 25Z" stroke="#FA9552" stroke-width="2.5" stroke-linecap="round" stroke-linejoin="round"/>
<path d="M106.07 5.45455V20H103.435V5.45455H106.07ZM111.38 13.608V20H108.809V9.09091H111.267V10.9446H111.395C111.645 10.3338 112.046 9.84848 112.595 9.48864C113.149 9.12879 113.833 8.94886 114.647 8.94886C115.4 8.94886 116.056 9.10985 116.615 9.43182C117.178 9.75379 117.614 10.2202 117.922 10.831C118.234 11.4418 118.388 12.1828 118.383 13.054V20H115.812V13.4517C115.812 12.7225 115.623 12.152 115.244 11.7401C114.87 11.3281 114.351 11.1222 113.689 11.1222C113.239 11.1222 112.839 11.2216 112.488 11.4205C112.143 11.6146 111.87 11.8963 111.672 12.2656C111.477 12.6349 111.38 13.0824 111.38 13.608ZM125.045 20.1918C124.188 20.1918 123.421 19.9716 122.744 19.5312C122.067 19.0909 121.532 18.4517 121.139 17.6136C120.746 16.7756 120.549 15.7576 120.549 14.5597C120.549 13.3475 120.748 12.3248 121.146 11.4915C121.548 10.6534 122.091 10.0213 122.772 9.59517C123.454 9.1643 124.214 8.94886 125.052 8.94886C125.691 8.94886 126.217 9.05777 126.629 9.27557C127.041 9.48864 127.368 9.74669 127.609 10.0497C127.85 10.348 128.038 10.6297 128.17 10.8949H128.277V5.45455H130.855V20H128.326V18.2812H128.17C128.038 18.5464 127.846 18.8281 127.595 19.1264C127.344 19.42 127.012 19.6709 126.6 19.8793C126.189 20.0876 125.67 20.1918 125.045 20.1918ZM125.762 18.0824C126.307 18.0824 126.771 17.9356 127.154 17.642C127.538 17.3437 127.829 16.9295 128.028 16.3991C128.227 15.8688 128.326 15.2509 128.326 14.5455C128.326 13.84 128.227 13.2268 128.028 12.706C127.834 12.1851 127.545 11.7803 127.162 11.4915C126.783 11.2027 126.316 11.0582 125.762 11.0582C125.19 11.0582 124.711 11.2074 124.328 11.5057C123.944 11.804 123.655 12.2159 123.461 12.7415C123.267 13.267 123.17 13.8684 123.17 14.5455C123.17 15.2273 123.267 15.8357 123.461 16.3707C123.66 16.901 123.951 17.3201 124.335 17.6278C124.723 17.9309 125.199 18.0824 125.762 18.0824ZM140.548 15.4119V9.09091H143.119V20H140.626V18.0611H140.512C140.266 18.6719 139.861 19.1714 139.298 19.5597C138.739 19.9479 138.05 20.142 137.231 20.142C136.516 20.142 135.884 19.9834 135.335 19.6662C134.79 19.3442 134.364 18.8778 134.056 18.267C133.748 17.6515 133.594 16.9081 133.594 16.0369V9.09091H136.165V15.6392C136.165 16.3305 136.355 16.8797 136.734 17.2869C137.112 17.6941 137.61 17.8977 138.225 17.8977C138.604 17.8977 138.971 17.8054 139.326 17.6207C139.681 17.4361 139.972 17.1615 140.2 16.7969C140.432 16.4276 140.548 15.9659 140.548 15.4119ZM154.385 11.9744L152.041 12.2301C151.975 11.9934 151.859 11.7708 151.693 11.5625C151.532 11.3542 151.314 11.1861 151.039 11.0582C150.765 10.9304 150.429 10.8665 150.031 10.8665C149.496 10.8665 149.046 10.9825 148.681 11.2145C148.322 11.4465 148.144 11.7472 148.149 12.1165C148.144 12.4337 148.26 12.6918 148.497 12.8906C148.738 13.0895 149.136 13.2528 149.69 13.3807L151.551 13.7784C152.583 14.0009 153.35 14.3537 153.852 14.8366C154.359 15.3196 154.614 15.9517 154.619 16.733C154.614 17.4195 154.413 18.0256 154.015 18.5511C153.622 19.072 153.075 19.4792 152.375 19.7727C151.674 20.0663 150.869 20.2131 149.96 20.2131C148.625 20.2131 147.55 19.9337 146.735 19.375C145.921 18.8116 145.436 18.0279 145.279 17.0241L147.787 16.7827C147.9 17.2751 148.142 17.6468 148.511 17.8977C148.88 18.1487 149.361 18.2741 149.953 18.2741C150.564 18.2741 151.054 18.1487 151.423 17.8977C151.797 17.6468 151.984 17.3366 151.984 16.9673C151.984 16.6548 151.863 16.3968 151.622 16.1932C151.385 15.9896 151.016 15.8333 150.514 15.7244L148.653 15.3338C147.607 15.116 146.833 14.7491 146.331 14.233C145.829 13.7121 145.58 13.054 145.585 12.2585C145.58 11.5862 145.762 11.0038 146.132 10.5114C146.506 10.0142 147.024 9.63068 147.687 9.3608C148.355 9.08617 149.124 8.94886 149.995 8.94886C151.274 8.94886 152.28 9.22112 153.014 9.76562C153.752 10.3101 154.209 11.0464 154.385 11.9744ZM162.186 9.09091V11.0795H155.915V9.09091H162.186ZM157.463 6.47727H160.034V16.7188C160.034 17.0644 160.087 17.3295 160.191 17.5142C160.3 17.6941 160.442 17.8172 160.617 17.8835C160.792 17.9498 160.986 17.983 161.199 17.983C161.36 17.983 161.507 17.9711 161.64 17.9474C161.777 17.9238 161.881 17.9025 161.952 17.8835L162.385 19.8935C162.248 19.9408 162.051 19.9929 161.796 20.0497C161.545 20.1065 161.237 20.1397 160.873 20.1491C160.229 20.1681 159.649 20.071 159.132 19.858C158.616 19.6402 158.207 19.304 157.904 18.8494C157.605 18.3949 157.459 17.8267 157.463 17.1449V6.47727ZM164.337 20V9.09091H166.83V10.9091H166.943C167.142 10.2794 167.483 9.79403 167.966 9.45312C168.454 9.10748 169.01 8.93466 169.635 8.93466C169.777 8.93466 169.936 8.94176 170.111 8.95597C170.291 8.96544 170.44 8.98201 170.558 9.00568V11.3707C170.449 11.3329 170.277 11.2997 170.04 11.2713C169.808 11.2382 169.583 11.2216 169.365 11.2216C168.896 11.2216 168.475 11.3234 168.101 11.527C167.732 11.7259 167.44 12.0028 167.227 12.358C167.014 12.7131 166.908 13.1226 166.908 13.5866V20H164.337ZM174.196 24.0909C173.846 24.0909 173.522 24.0625 173.223 24.0057C172.93 23.9536 172.695 23.892 172.52 23.821L173.117 21.8182C173.491 21.9271 173.825 21.9792 174.118 21.9744C174.412 21.9697 174.67 21.8774 174.892 21.6974C175.12 21.5223 175.311 21.2287 175.468 20.8168L175.688 20.2273L171.732 9.09091H174.459L176.973 17.3295H177.087L179.608 9.09091H182.343L177.975 21.321C177.771 21.8987 177.501 22.3935 177.165 22.8054C176.829 23.2221 176.417 23.5393 175.929 23.7571C175.446 23.9796 174.869 24.0909 174.196 24.0909ZM190.734 12.8835V15H184.186V12.8835H190.734ZM193.438 20V9.09091H195.931V10.9091H196.045C196.244 10.2794 196.585 9.79403 197.067 9.45312C197.555 9.10748 198.112 8.93466 198.737 8.93466C198.879 8.93466 199.037 8.94176 199.212 8.95597C199.392 8.96544 199.541 8.98201 199.66 9.00568V11.3707C199.551 11.3329 199.378 11.2997 199.141 11.2713C198.909 11.2382 198.684 11.2216 198.467 11.2216C197.998 11.2216 197.576 11.3234 197.202 11.527C196.833 11.7259 196.542 12.0028 196.329 12.358C196.116 12.7131 196.009 13.1226 196.009 13.5866V20H193.438ZM205.748 20.2131C204.654 20.2131 203.71 19.9858 202.914 19.5312C202.124 19.072 201.515 18.4233 201.089 17.5852C200.663 16.7424 200.45 15.7505 200.45 14.6094C200.45 13.4872 200.663 12.5024 201.089 11.6548C201.52 10.8026 202.121 10.1397 202.893 9.66619C203.665 9.18797 204.572 8.94886 205.613 8.94886C206.286 8.94886 206.92 9.05777 207.517 9.27557C208.118 9.48864 208.648 9.82008 209.108 10.2699C209.572 10.7197 209.936 11.2926 210.201 11.9886C210.467 12.6799 210.599 13.5038 210.599 14.4602V15.2486H201.657V13.5156H208.135C208.13 13.0232 208.023 12.5852 207.815 12.2017C207.607 11.8134 207.315 11.508 206.941 11.2855C206.572 11.063 206.141 10.9517 205.649 10.9517C205.123 10.9517 204.662 11.0795 204.264 11.3352C203.866 11.5862 203.556 11.9176 203.333 12.3295C203.116 12.7367 203.004 13.1842 203 13.6719V15.1847C203 15.8191 203.116 16.3636 203.348 16.8182C203.58 17.268 203.904 17.6136 204.321 17.8551C204.737 18.0919 205.225 18.2102 205.784 18.2102C206.158 18.2102 206.496 18.1581 206.799 18.054C207.102 17.9451 207.365 17.7865 207.588 17.5781C207.81 17.3698 207.978 17.1117 208.092 16.804L210.493 17.0739C210.341 17.7083 210.052 18.2623 209.626 18.7358C209.205 19.2045 208.665 19.5691 208.007 19.8295C207.349 20.0852 206.596 20.2131 205.748 20.2131ZM217.533 20.2131C216.444 20.2131 215.509 19.974 214.727 19.4957C213.951 19.0175 213.352 18.357 212.93 17.5142C212.514 16.6667 212.305 15.6913 212.305 14.5881C212.305 13.4801 212.518 12.5024 212.945 11.6548C213.371 10.8026 213.972 10.1397 214.749 9.66619C215.53 9.18797 216.453 8.94886 217.518 8.94886C218.404 8.94886 219.188 9.11222 219.869 9.43892C220.556 9.76089 221.103 10.2178 221.51 10.8097C221.917 11.3968 222.149 12.0833 222.206 12.8693H219.749C219.649 12.3437 219.412 11.9058 219.038 11.5554C218.669 11.2003 218.174 11.0227 217.554 11.0227C217.028 11.0227 216.567 11.1648 216.169 11.4489C215.771 11.7282 215.461 12.1307 215.239 12.6562C215.021 13.1818 214.912 13.8116 214.912 14.5455C214.912 15.2888 215.021 15.928 215.239 16.4631C215.456 16.9934 215.762 17.4029 216.155 17.6918C216.553 17.9759 217.019 18.1179 217.554 18.1179C217.933 18.1179 218.271 18.0469 218.57 17.9048C218.873 17.758 219.126 17.5473 219.33 17.2727C219.533 16.9981 219.673 16.6643 219.749 16.2713H222.206C222.144 17.0431 221.917 17.7273 221.524 18.3239C221.131 18.9157 220.596 19.3797 219.919 19.7159C219.242 20.0473 218.446 20.2131 217.533 20.2131ZM229.076 20.2131C228.01 20.2131 227.087 19.9787 226.306 19.5099C225.525 19.0412 224.918 18.3854 224.488 17.5426C224.061 16.6998 223.848 15.715 223.848 14.5881C223.848 13.4612 224.061 12.474 224.488 11.6264C224.918 10.7789 225.525 10.1207 226.306 9.65199C227.087 9.18324 228.01 8.94886 229.076 8.94886C230.141 8.94886 231.064 9.18324 231.846 9.65199C232.627 10.1207 233.23 10.7789 233.657 11.6264C234.087 12.474 234.303 13.4612 234.303 14.5881C234.303 15.715 234.087 16.6998 233.657 17.5426C233.23 18.3854 232.627 19.0412 231.846 19.5099C231.064 19.9787 230.141 20.2131 229.076 20.2131ZM229.09 18.1534C229.667 18.1534 230.15 17.9948 230.539 17.6776C230.927 17.3556 231.216 16.9247 231.405 16.3849C231.599 15.8452 231.696 15.2438 231.696 14.581C231.696 13.9134 231.599 13.3097 231.405 12.7699C231.216 12.2254 230.927 11.7921 230.539 11.4702C230.15 11.1482 229.667 10.9872 229.09 10.9872C228.498 10.9872 228.006 11.1482 227.613 11.4702C227.224 11.7921 226.933 12.2254 226.739 12.7699C226.55 13.3097 226.455 13.9134 226.455 14.581C226.455 15.2438 226.55 15.8452 226.739 16.3849C226.933 16.9247 227.224 17.3556 227.613 17.6776C228.006 17.9948 228.498 18.1534 229.09 18.1534ZM241.229 24.3182C240.306 24.3182 239.513 24.1927 238.85 23.9418C238.187 23.6955 237.655 23.3641 237.252 22.9474C236.85 22.5308 236.57 22.0691 236.414 21.5625L238.729 21.0014C238.834 21.2145 238.985 21.4252 239.184 21.6335C239.383 21.8466 239.65 22.0218 239.987 22.1591C240.327 22.3011 240.756 22.3722 241.272 22.3722C242.001 22.3722 242.605 22.1946 243.083 21.8395C243.561 21.4891 243.8 20.9115 243.8 20.1065V18.0398H243.673C243.54 18.3049 243.346 18.5772 243.09 18.8565C242.839 19.1359 242.505 19.3703 242.089 19.5597C241.677 19.7491 241.158 19.8438 240.533 19.8438C239.695 19.8438 238.935 19.6473 238.254 19.2543C237.576 18.8565 237.037 18.2647 236.634 17.4787C236.237 16.688 236.038 15.6984 236.038 14.5099C236.038 13.312 236.237 12.3011 236.634 11.4773C237.037 10.6487 237.579 10.0213 238.261 9.59517C238.942 9.1643 239.702 8.94886 240.54 8.94886C241.18 8.94886 241.705 9.05777 242.117 9.27557C242.534 9.48864 242.865 9.74669 243.112 10.0497C243.358 10.348 243.545 10.6297 243.673 10.8949H243.815V9.09091H246.35V20.1776C246.35 21.1103 246.128 21.8821 245.683 22.4929C245.237 23.1037 244.629 23.5606 243.857 23.8636C243.085 24.1667 242.21 24.3182 241.229 24.3182ZM241.251 17.8267C241.795 17.8267 242.259 17.6941 242.643 17.429C243.026 17.1638 243.317 16.7827 243.516 16.2855C243.715 15.7884 243.815 15.1918 243.815 14.4957C243.815 13.8092 243.715 13.2079 243.516 12.6918C243.322 12.1757 243.033 11.7756 242.65 11.4915C242.271 11.2027 241.805 11.0582 241.251 11.0582C240.678 11.0582 240.2 11.2074 239.816 11.5057C239.433 11.804 239.144 12.2135 238.95 12.7344C238.755 13.2505 238.658 13.8376 238.658 14.4957C238.658 15.1634 238.755 15.7481 238.95 16.25C239.148 16.7472 239.44 17.1354 239.823 17.4148C240.211 17.6894 240.687 17.8267 241.251 17.8267ZM251.556 13.608V20H248.985V9.09091H251.442V10.9446H251.57C251.821 10.3338 252.221 9.84848 252.771 9.48864C253.325 9.12879 254.009 8.94886 254.823 8.94886C255.576 8.94886 256.232 9.10985 256.79 9.43182C257.354 9.75379 257.79 10.2202 258.097 10.831C258.41 11.4418 258.564 12.1828 258.559 13.054V20H255.988V13.4517C255.988 12.7225 255.799 12.152 255.42 11.7401C255.046 11.3281 254.527 11.1222 253.864 11.1222C253.415 11.1222 253.014 11.2216 252.664 11.4205C252.318 11.6146 252.046 11.8963 251.847 12.2656C251.653 12.6349 251.556 13.0824 251.556 13.608ZM261.173 20V9.09091H263.744V20H261.173ZM262.465 7.54261C262.058 7.54261 261.708 7.40767 261.414 7.13778C261.121 6.86316 260.974 6.53409 260.974 6.15057C260.974 5.76231 261.121 5.43324 261.414 5.16335C261.708 4.88873 262.058 4.75142 262.465 4.75142C262.877 4.75142 263.228 4.88873 263.516 5.16335C263.81 5.43324 263.957 5.76231 263.957 6.15057C263.957 6.53409 263.81 6.86316 263.516 7.13778C263.228 7.40767 262.877 7.54261 262.465 7.54261ZM266.245 20V18.3665L271.87 11.3139V11.2216H266.43V9.09091H275.017V10.8452L269.662 17.777V17.8693H275.201V20H266.245ZM282.135 20.2131C281.041 20.2131 280.097 19.9858 279.301 19.5312C278.51 19.072 277.902 18.4233 277.476 17.5852C277.05 16.7424 276.837 15.7505 276.837 14.6094C276.837 13.4872 277.05 12.5024 277.476 11.6548C277.907 10.8026 278.508 10.1397 279.28 9.66619C280.052 9.18797 280.958 8.94886 282 8.94886C282.672 8.94886 283.307 9.05777 283.903 9.27557C284.505 9.48864 285.035 9.82008 285.494 10.2699C285.958 10.7197 286.323 11.2926 286.588 11.9886C286.853 12.6799 286.986 13.5038 286.986 14.4602V15.2486H278.044V13.5156H284.521C284.517 13.0232 284.41 12.5852 284.202 12.2017C283.993 11.8134 283.702 11.508 283.328 11.2855C282.959 11.063 282.528 10.9517 282.036 10.9517C281.51 10.9517 281.048 11.0795 280.651 11.3352C280.253 11.5862 279.943 11.9176 279.72 12.3295C279.502 12.7367 279.391 13.1842 279.386 13.6719V15.1847C279.386 15.8191 279.502 16.3636 279.734 16.8182C279.966 17.268 280.291 17.6136 280.707 17.8551C281.124 18.0919 281.612 18.2102 282.17 18.2102C282.545 18.2102 282.883 18.1581 283.186 18.054C283.489 17.9451 283.752 17.7865 283.974 17.5781C284.197 17.3698 284.365 17.1117 284.479 16.804L286.879 17.0739C286.728 17.7083 286.439 18.2623 286.013 18.7358C285.591 19.2045 285.052 19.5691 284.393 19.8295C283.735 20.0852 282.982 20.2131 282.135 20.2131ZM293.209 20.1918C292.352 20.1918 291.585 19.9716 290.908 19.5312C290.231 19.0909 289.696 18.4517 289.303 17.6136C288.91 16.7756 288.713 15.7576 288.713 14.5597C288.713 13.3475 288.912 12.3248 289.31 11.4915C289.712 10.6534 290.255 10.0213 290.936 9.59517C291.618 9.1643 292.378 8.94886 293.216 8.94886C293.855 8.94886 294.381 9.05777 294.793 9.27557C295.205 9.48864 295.532 9.74669 295.773 10.0497C296.015 10.348 296.202 10.6297 296.334 10.8949H296.441V5.45455H299.019V20H296.49V18.2812H296.334C296.202 18.5464 296.01 18.8281 295.759 19.1264C295.508 19.42 295.176 19.6709 294.765 19.8793C294.353 20.0876 293.834 20.1918 293.209 20.1918ZM293.926 18.0824C294.471 18.0824 294.935 17.9356 295.319 17.642C295.702 17.3437 295.993 16.9295 296.192 16.3991C296.391 15.8688 296.49 15.2509 296.49 14.5455C296.49 13.84 296.391 13.2268 296.192 12.706C295.998 12.1851 295.709 11.7803 295.326 11.4915C294.947 11.2027 294.48 11.0582 293.926 11.0582C293.354 11.0582 292.875 11.2074 292.492 11.5057C292.108 11.804 291.819 12.2159 291.625 12.7415C291.431 13.267 291.334 13.8684 291.334 14.5455C291.334 15.2273 291.431 15.8357 291.625 16.3707C291.824 16.901 292.115 17.3201 292.499 17.6278C292.887 17.9309 293.363 18.0824 293.926 18.0824ZM115.885 36.3622H113.229C113.153 35.9266 113.013 35.5407 112.81 35.2045C112.606 34.8636 112.353 34.5748 112.05 34.3381C111.747 34.1013 111.401 33.9238 111.013 33.8054C110.629 33.6823 110.215 33.6207 109.77 33.6207C108.979 33.6207 108.278 33.8196 107.668 34.2173C107.057 34.6103 106.579 35.188 106.233 35.9503C105.887 36.7079 105.714 37.6335 105.714 38.7273C105.714 39.84 105.887 40.7775 106.233 41.5398C106.583 42.2973 107.062 42.8703 107.668 43.2585C108.278 43.642 108.977 43.8338 109.763 43.8338C110.198 43.8338 110.606 43.777 110.984 43.6634C111.368 43.545 111.711 43.3722 112.014 43.1449C112.322 42.9176 112.58 42.6383 112.788 42.3068C113.001 41.9754 113.148 41.5966 113.229 41.1705L115.885 41.1847C115.786 41.8759 115.57 42.5246 115.239 43.1307C114.912 43.7367 114.483 44.2718 113.953 44.7358C113.423 45.1951 112.803 45.5549 112.092 45.8153C111.382 46.071 110.594 46.1989 109.727 46.1989C108.449 46.1989 107.308 45.9029 106.304 45.3111C105.3 44.7192 104.509 43.8646 103.932 42.7472C103.354 41.6297 103.065 40.2898 103.065 38.7273C103.065 37.16 103.357 35.8201 103.939 34.7074C104.521 33.59 105.314 32.7353 106.318 32.1435C107.322 31.5516 108.458 31.2557 109.727 31.2557C110.537 31.2557 111.29 31.3693 111.986 31.5966C112.682 31.8239 113.302 32.1577 113.847 32.598C114.391 33.0336 114.839 33.5687 115.189 34.2031C115.544 34.8329 115.776 35.5526 115.885 36.3622ZM123.014 46.2131C121.92 46.2131 120.975 45.9858 120.18 45.5312C119.389 45.072 118.781 44.4233 118.355 43.5852C117.929 42.7424 117.716 41.7505 117.716 40.6094C117.716 39.4872 117.929 38.5024 118.355 37.6548C118.786 36.8026 119.387 36.1397 120.159 35.6662C120.931 35.188 121.837 34.9489 122.879 34.9489C123.551 34.9489 124.186 35.0578 124.782 35.2756C125.384 35.4886 125.914 35.8201 126.373 36.2699C126.837 36.7197 127.202 37.2926 127.467 37.9886C127.732 38.6799 127.865 39.5038 127.865 40.4602V41.2486H118.923V39.5156H125.4C125.395 39.0232 125.289 38.5852 125.081 38.2017C124.872 37.8134 124.581 37.508 124.207 37.2855C123.838 37.063 123.407 36.9517 122.914 36.9517C122.389 36.9517 121.927 37.0795 121.529 37.3352C121.132 37.5862 120.822 37.9176 120.599 38.3295C120.381 38.7367 120.27 39.1842 120.265 39.6719V41.1847C120.265 41.8191 120.381 42.3636 120.613 42.8182C120.845 43.268 121.17 43.6136 121.586 43.8551C122.003 44.0919 122.491 44.2102 123.049 44.2102C123.423 44.2102 123.762 44.1581 124.065 44.054C124.368 43.9451 124.631 43.7865 124.853 43.5781C125.076 43.3698 125.244 43.1117 125.358 42.804L127.758 43.0739C127.607 43.7083 127.318 44.2623 126.892 44.7358C126.47 45.2045 125.931 45.5691 125.272 45.8295C124.614 46.0852 123.861 46.2131 123.014 46.2131ZM130.04 46V35.0909H132.533V36.9091H132.646C132.845 36.2794 133.186 35.794 133.669 35.4531C134.157 35.1075 134.713 34.9347 135.338 34.9347C135.48 34.9347 135.639 34.9418 135.814 34.956C135.994 34.9654 136.143 34.982 136.261 35.0057V37.3707C136.152 37.3329 135.98 37.2997 135.743 37.2713C135.511 37.2382 135.286 37.2216 135.068 37.2216C134.599 37.2216 134.178 37.3234 133.804 37.527C133.435 37.7259 133.143 38.0028 132.93 38.358C132.717 38.7131 132.611 39.1226 132.611 39.5866V46H130.04ZM144.003 35.0909V37.0795H137.732V35.0909H144.003ZM139.28 32.4773H141.851V42.7188C141.851 43.0644 141.903 43.3295 142.007 43.5142C142.116 43.6941 142.258 43.8172 142.433 43.8835C142.608 43.9498 142.803 43.983 143.016 43.983C143.177 43.983 143.323 43.9711 143.456 43.9474C143.593 43.9238 143.697 43.9025 143.768 43.8835L144.202 45.8935C144.064 45.9408 143.868 45.9929 143.612 46.0497C143.361 46.1065 143.054 46.1397 142.689 46.1491C142.045 46.1681 141.465 46.071 140.949 45.858C140.433 45.6402 140.023 45.304 139.72 44.8494C139.422 44.3949 139.275 43.8267 139.28 43.1449V32.4773ZM146.153 46V35.0909H148.724V46H146.153ZM147.446 33.5426C147.038 33.5426 146.688 33.4077 146.395 33.1378C146.101 32.8632 145.954 32.5341 145.954 32.1506C145.954 31.7623 146.101 31.4332 146.395 31.1634C146.688 30.8887 147.038 30.7514 147.446 30.7514C147.858 30.7514 148.208 30.8887 148.497 31.1634C148.79 31.4332 148.937 31.7623 148.937 32.1506C148.937 32.5341 148.79 32.8632 148.497 33.1378C148.208 33.4077 147.858 33.5426 147.446 33.5426ZM156.893 35.0909V37.0795H150.445V35.0909H156.893ZM152.057 46V34.0611C152.057 33.3272 152.208 32.7164 152.511 32.2287C152.819 31.741 153.231 31.3764 153.747 31.1349C154.263 30.8935 154.836 30.7727 155.466 30.7727C155.911 30.7727 156.306 30.8082 156.652 30.8793C156.998 30.9503 157.253 31.0142 157.419 31.071L156.908 33.0597C156.799 33.0265 156.661 32.9934 156.496 32.9602C156.33 32.9223 156.145 32.9034 155.942 32.9034C155.464 32.9034 155.125 33.0194 154.926 33.2514C154.732 33.4787 154.635 33.8054 154.635 34.2315V46H152.057ZM158.907 46V35.0909H161.478V46H158.907ZM160.2 33.5426C159.792 33.5426 159.442 33.4077 159.148 33.1378C158.855 32.8632 158.708 32.5341 158.708 32.1506C158.708 31.7623 158.855 31.4332 159.148 31.1634C159.442 30.8887 159.792 30.7514 160.2 30.7514C160.612 30.7514 160.962 30.8887 161.251 31.1634C161.544 31.4332 161.691 31.7623 161.691 32.1506C161.691 32.5341 161.544 32.8632 161.251 33.1378C160.962 33.4077 160.612 33.5426 160.2 33.5426ZM168.88 46.2131C167.791 46.2131 166.856 45.974 166.075 45.4957C165.298 45.0175 164.699 44.357 164.278 43.5142C163.861 42.6667 163.653 41.6913 163.653 40.5881C163.653 39.4801 163.866 38.5024 164.292 37.6548C164.718 36.8026 165.32 36.1397 166.096 35.6662C166.877 35.188 167.801 34.9489 168.866 34.9489C169.752 34.9489 170.535 35.1122 171.217 35.4389C171.904 35.7609 172.45 36.2178 172.858 36.8097C173.265 37.3968 173.497 38.0833 173.554 38.8693H171.096C170.997 38.3437 170.76 37.9058 170.386 37.5554C170.017 37.2003 169.522 37.0227 168.902 37.0227C168.376 37.0227 167.914 37.1648 167.517 37.4489C167.119 37.7282 166.809 38.1307 166.586 38.6562C166.368 39.1818 166.26 39.8116 166.26 40.5455C166.26 41.2888 166.368 41.928 166.586 42.4631C166.804 42.9934 167.109 43.4029 167.502 43.6918C167.9 43.9759 168.367 44.1179 168.902 44.1179C169.28 44.1179 169.619 44.0469 169.917 43.9048C170.22 43.758 170.474 43.5473 170.677 43.2727C170.881 42.9981 171.02 42.6643 171.096 42.2713H173.554C173.492 43.0431 173.265 43.7273 172.872 44.3239C172.479 44.9157 171.944 45.3797 171.267 45.7159C170.59 46.0473 169.794 46.2131 168.88 46.2131ZM178.804 46.2202C178.113 46.2202 177.49 46.0971 176.936 45.8509C176.387 45.5999 175.951 45.2306 175.629 44.7429C175.312 44.2552 175.153 43.6539 175.153 42.9389C175.153 42.3234 175.267 41.8144 175.494 41.4119C175.722 41.0095 176.032 40.6875 176.425 40.446C176.818 40.2045 177.26 40.0223 177.753 39.8991C178.25 39.7713 178.764 39.679 179.294 39.6222C179.933 39.5559 180.452 39.4967 180.849 39.4446C181.247 39.3878 181.536 39.3026 181.716 39.1889C181.901 39.0705 181.993 38.8883 181.993 38.642V38.5994C181.993 38.0644 181.834 37.6501 181.517 37.3565C181.2 37.063 180.743 36.9162 180.146 36.9162C179.517 36.9162 179.017 37.0535 178.648 37.3281C178.283 37.6027 178.037 37.9271 177.909 38.3011L175.509 37.9602C175.698 37.2973 176.01 36.7434 176.446 36.2983C176.882 35.8485 177.414 35.5123 178.044 35.2898C178.674 35.0625 179.37 34.9489 180.132 34.9489C180.658 34.9489 181.181 35.0104 181.702 35.1335C182.223 35.2566 182.698 35.4602 183.129 35.7443C183.56 36.0237 183.906 36.4048 184.166 36.8878C184.431 37.3707 184.564 37.9744 184.564 38.6989V46H182.092V44.5014H182.007C181.851 44.8045 181.631 45.0885 181.347 45.3537C181.067 45.6141 180.714 45.8248 180.288 45.9858C179.867 46.142 179.372 46.2202 178.804 46.2202ZM179.472 44.331C179.988 44.331 180.435 44.2292 180.814 44.0256C181.193 43.8172 181.484 43.5426 181.688 43.2017C181.896 42.8608 182 42.4891 182 42.0866V40.8011C181.92 40.8674 181.782 40.929 181.588 40.9858C181.399 41.0426 181.186 41.0923 180.949 41.1349C180.712 41.1776 180.478 41.2154 180.246 41.2486C180.014 41.2817 179.813 41.3101 179.642 41.3338C179.259 41.3859 178.915 41.4711 178.612 41.5895C178.309 41.7079 178.07 41.8736 177.895 42.0866C177.72 42.295 177.632 42.5649 177.632 42.8963C177.632 43.3698 177.805 43.7273 178.151 43.9688C178.496 44.2102 178.937 44.331 179.472 44.331ZM192.597 35.0909V37.0795H186.325V35.0909H192.597ZM187.874 32.4773H190.445V42.7188C190.445 43.0644 190.497 43.3295 190.601 43.5142C190.71 43.6941 190.852 43.8172 191.027 43.8835C191.202 43.9498 191.396 43.983 191.609 43.983C191.77 43.983 191.917 43.9711 192.05 43.9474C192.187 43.9238 192.291 43.9025 192.362 43.8835L192.795 45.8935C192.658 45.9408 192.462 45.9929 192.206 46.0497C191.955 46.1065 191.647 46.1397 191.283 46.1491C190.639 46.1681 190.059 46.071 189.543 45.858C189.027 45.6402 188.617 45.304 188.314 44.8494C188.016 44.3949 187.869 43.8267 187.874 43.1449V32.4773ZM194.747 46V35.0909H197.318V46H194.747ZM196.039 33.5426C195.632 33.5426 195.282 33.4077 194.988 33.1378C194.695 32.8632 194.548 32.5341 194.548 32.1506C194.548 31.7623 194.695 31.4332 194.988 31.1634C195.282 30.8887 195.632 30.7514 196.039 30.7514C196.451 30.7514 196.802 30.8887 197.091 31.1634C197.384 31.4332 197.531 31.7623 197.531 32.1506C197.531 32.5341 197.384 32.8632 197.091 33.1378C196.802 33.4077 196.451 33.5426 196.039 33.5426ZM204.72 46.2131C203.655 46.2131 202.732 45.9787 201.95 45.5099C201.169 45.0412 200.563 44.3854 200.132 43.5426C199.706 42.6998 199.493 41.715 199.493 40.5881C199.493 39.4612 199.706 38.474 200.132 37.6264C200.563 36.7789 201.169 36.1207 201.95 35.652C202.732 35.1832 203.655 34.9489 204.72 34.9489C205.786 34.9489 206.709 35.1832 207.49 35.652C208.271 36.1207 208.875 36.7789 209.301 37.6264C209.732 38.474 209.947 39.4612 209.947 40.5881C209.947 41.715 209.732 42.6998 209.301 43.5426C208.875 44.3854 208.271 45.0412 207.49 45.5099C206.709 45.9787 205.786 46.2131 204.72 46.2131ZM204.734 44.1534C205.312 44.1534 205.795 43.9948 206.183 43.6776C206.571 43.3556 206.86 42.9247 207.05 42.3849C207.244 41.8452 207.341 41.2438 207.341 40.581C207.341 39.9134 207.244 39.3097 207.05 38.7699C206.86 38.2254 206.571 37.7921 206.183 37.4702C205.795 37.1482 205.312 36.9872 204.734 36.9872C204.143 36.9872 203.65 37.1482 203.257 37.4702C202.869 37.7921 202.578 38.2254 202.384 38.7699C202.194 39.3097 202.099 39.9134 202.099 40.581C202.099 41.2438 202.194 41.8452 202.384 42.3849C202.578 42.9247 202.869 43.3556 203.257 43.6776C203.65 43.9948 204.143 44.1534 204.734 44.1534ZM214.701 39.608V46H212.13V35.0909H214.587V36.9446H214.715C214.966 36.3338 215.366 35.8485 215.915 35.4886C216.469 35.1288 217.153 34.9489 217.968 34.9489C218.721 34.9489 219.376 35.1098 219.935 35.4318C220.498 35.7538 220.934 36.2202 221.242 36.831C221.554 37.4418 221.708 38.1828 221.703 39.054V46H219.132V39.4517C219.132 38.7225 218.943 38.152 218.564 37.7401C218.19 37.3281 217.672 37.1222 217.009 37.1222C216.559 37.1222 216.159 37.2216 215.809 37.4205C215.463 37.6146 215.191 37.8963 214.992 38.2656C214.798 38.6349 214.701 39.0824 214.701 39.608Z" fill="#0A2134"/>
<path d="M109.287 67.8182C109.223 67.2784 108.964 66.8594 108.509 66.5611C108.055 66.2628 107.497 66.1136 106.837 66.1136C106.354 66.1136 105.931 66.1918 105.569 66.348C105.21 66.5043 104.93 66.7191 104.727 66.9925C104.528 67.266 104.429 67.5767 104.429 67.9247C104.429 68.2159 104.498 68.4663 104.637 68.6758C104.779 68.8817 104.96 69.054 105.18 69.1925C105.4 69.3274 105.631 69.4393 105.873 69.5281C106.114 69.6133 106.336 69.6825 106.538 69.7358L107.646 70.0341C107.93 70.1087 108.246 70.2116 108.594 70.343C108.946 70.4744 109.282 70.6538 109.601 70.881C109.924 71.1048 110.191 71.3924 110.4 71.744C110.61 72.0955 110.714 72.527 110.714 73.0384C110.714 73.6278 110.56 74.1605 110.251 74.6364C109.946 75.1122 109.498 75.4904 108.909 75.771C108.323 76.0515 107.611 76.1918 106.773 76.1918C105.991 76.1918 105.315 76.0657 104.743 75.8136C104.175 75.5614 103.728 75.2099 103.401 74.7589C103.078 74.3079 102.895 73.7841 102.852 73.1875H104.216C104.251 73.5994 104.39 73.9403 104.631 74.2102C104.876 74.4766 105.185 74.6754 105.558 74.8068C105.935 74.9347 106.339 74.9986 106.773 74.9986C107.277 74.9986 107.73 74.9169 108.131 74.7536C108.532 74.5866 108.85 74.3558 109.085 74.0611C109.319 73.7628 109.436 73.4148 109.436 73.017C109.436 72.6548 109.335 72.3601 109.132 72.1328C108.93 71.9055 108.664 71.7209 108.333 71.5788C108.003 71.4368 107.646 71.3125 107.263 71.206L105.92 70.8224C105.068 70.5774 104.393 70.2276 103.896 69.7731C103.399 69.3185 103.151 68.7237 103.151 67.9886C103.151 67.3778 103.316 66.8452 103.646 66.3906C103.98 65.9325 104.427 65.5774 104.988 65.3253C105.553 65.0696 106.183 64.9418 106.879 64.9418C107.582 64.9418 108.207 65.0678 108.754 65.32C109.301 65.5685 109.734 65.9094 110.054 66.3427C110.377 66.7759 110.548 67.2678 110.565 67.8182H109.287ZM116.274 67.8182V68.8835H112.034V67.8182H116.274ZM113.27 65.858H114.527V73.6562C114.527 74.0114 114.579 74.2777 114.682 74.4553C114.788 74.6293 114.923 74.7464 115.086 74.8068C115.253 74.8636 115.429 74.892 115.614 74.892C115.752 74.892 115.866 74.8849 115.955 74.8707C116.043 74.853 116.114 74.8388 116.168 74.8281L116.423 75.9574C116.338 75.9893 116.219 76.0213 116.066 76.0533C115.914 76.0888 115.72 76.1065 115.486 76.1065C115.131 76.1065 114.783 76.0302 114.442 75.8775C114.104 75.7248 113.824 75.4922 113.6 75.1797C113.38 74.8672 113.27 74.473 113.27 73.9972V65.858ZM120.573 76.1918C120.054 76.1918 119.584 76.0941 119.161 75.8988C118.739 75.6999 118.403 75.4141 118.155 75.0412C117.906 74.6648 117.782 74.2102 117.782 73.6776C117.782 73.2088 117.874 72.8288 118.059 72.5376C118.243 72.2429 118.49 72.0121 118.799 71.8452C119.108 71.6783 119.449 71.554 119.822 71.4723C120.198 71.3871 120.576 71.3196 120.956 71.2699C121.454 71.206 121.857 71.158 122.166 71.1261C122.478 71.0906 122.705 71.032 122.847 70.9503C122.993 70.8686 123.066 70.7266 123.066 70.5241V70.4815C123.066 69.956 122.922 69.5476 122.634 69.2564C122.35 68.9652 121.919 68.8196 121.34 68.8196C120.74 68.8196 120.269 68.951 119.928 69.2138C119.587 69.4766 119.348 69.7571 119.209 70.0554L118.016 69.6293C118.229 69.1321 118.513 68.745 118.868 68.468C119.227 68.1875 119.618 67.9922 120.04 67.8821C120.466 67.7685 120.885 67.7116 121.297 67.7116C121.56 67.7116 121.862 67.7436 122.203 67.8075C122.547 67.8679 122.879 67.994 123.199 68.1857C123.522 68.3775 123.79 68.6669 124.003 69.054C124.216 69.4411 124.323 69.9595 124.323 70.6094V76H123.066V74.892H123.002C122.917 75.0696 122.775 75.2596 122.576 75.462C122.377 75.6644 122.112 75.8366 121.782 75.9787C121.452 76.1207 121.049 76.1918 120.573 76.1918ZM120.765 75.0625C121.262 75.0625 121.681 74.9648 122.022 74.7695C122.366 74.5742 122.625 74.3221 122.799 74.0131C122.977 73.7042 123.066 73.3793 123.066 73.0384V71.8878C123.013 71.9517 122.895 72.0103 122.714 72.0636C122.537 72.1133 122.331 72.1577 122.096 72.1967C121.866 72.2322 121.64 72.2642 121.42 72.2926C121.203 72.3175 121.027 72.3388 120.892 72.3565C120.566 72.3991 120.26 72.4684 119.976 72.5643C119.696 72.6566 119.468 72.7969 119.294 72.9851C119.124 73.1697 119.039 73.4219 119.039 73.7415C119.039 74.1783 119.2 74.5085 119.524 74.7322C119.85 74.9524 120.264 75.0625 120.765 75.0625ZM127.874 71.0781V76H126.617V67.8182H127.832V69.0966H127.938C128.13 68.6811 128.421 68.3473 128.812 68.0952C129.203 67.8395 129.707 67.7116 130.325 67.7116C130.879 67.7116 131.363 67.8253 131.779 68.0526C132.194 68.2763 132.518 68.6172 132.748 69.0753C132.979 69.5298 133.095 70.1051 133.095 70.8011V76H131.838V70.8864C131.838 70.2436 131.671 69.7429 131.337 69.3842C131.003 69.022 130.545 68.8409 129.963 68.8409C129.561 68.8409 129.203 68.9279 128.887 69.1019C128.574 69.2759 128.327 69.5298 128.146 69.8636C127.965 70.1974 127.874 70.6023 127.874 71.0781ZM138.481 76.1705C137.799 76.1705 137.198 75.9982 136.676 75.6538C136.153 75.3058 135.745 74.8157 135.45 74.1836C135.156 73.5479 135.008 72.7969 135.008 71.9304C135.008 71.071 135.156 70.3253 135.45 69.6932C135.745 69.0611 136.155 68.5728 136.681 68.2283C137.206 67.8839 137.814 67.7116 138.503 67.7116C139.035 67.7116 139.456 67.8004 139.765 67.978C140.078 68.152 140.315 68.3509 140.479 68.5746C140.646 68.7947 140.775 68.9759 140.868 69.1179H140.974V65.0909H142.231V76H141.017V74.7429H140.868C140.775 74.892 140.644 75.0803 140.473 75.3075C140.303 75.5312 140.06 75.7319 139.744 75.9094C139.428 76.0835 139.007 76.1705 138.481 76.1705ZM138.652 75.0412C139.156 75.0412 139.582 74.9098 139.93 74.647C140.278 74.3807 140.543 74.0131 140.724 73.5444C140.905 73.0721 140.995 72.527 140.995 71.9091C140.995 71.2983 140.907 70.7638 140.729 70.3058C140.552 69.8441 140.289 69.4854 139.941 69.2298C139.593 68.9705 139.163 68.8409 138.652 68.8409C138.119 68.8409 137.675 68.9776 137.32 69.2511C136.968 69.521 136.704 69.8885 136.526 70.3537C136.352 70.8153 136.265 71.3338 136.265 71.9091C136.265 72.4915 136.354 73.0206 136.532 73.4964C136.713 73.9687 136.979 74.3452 137.331 74.6257C137.686 74.9027 138.126 75.0412 138.652 75.0412ZM152.251 76.1705C151.512 76.1705 150.864 75.9947 150.307 75.6431C149.753 75.2915 149.319 74.7997 149.007 74.1676C148.698 73.5355 148.543 72.7969 148.543 71.9517C148.543 71.0994 148.698 70.3555 149.007 69.7198C149.319 69.0842 149.753 68.5906 150.307 68.239C150.864 67.8874 151.512 67.7116 152.251 67.7116C152.989 67.7116 153.636 67.8874 154.19 68.239C154.747 68.5906 155.18 69.0842 155.489 69.7198C155.802 70.3555 155.958 71.0994 155.958 71.9517C155.958 72.7969 155.802 73.5355 155.489 74.1676C155.18 74.7997 154.747 75.2915 154.19 75.6431C153.636 75.9947 152.989 76.1705 152.251 76.1705ZM152.251 75.0412C152.812 75.0412 153.274 74.8974 153.636 74.6097C153.998 74.3221 154.266 73.9439 154.44 73.4751C154.614 73.0064 154.701 72.4986 154.701 71.9517C154.701 71.4048 154.614 70.8952 154.44 70.4229C154.266 69.9506 153.998 69.5689 153.636 69.2777C153.274 68.9865 152.812 68.8409 152.251 68.8409C151.69 68.8409 151.228 68.9865 150.866 69.2777C150.504 69.5689 150.236 69.9506 150.062 70.4229C149.888 70.8952 149.801 71.4048 149.801 71.9517C149.801 72.4986 149.888 73.0064 150.062 73.4751C150.236 73.9439 150.504 74.3221 150.866 74.6097C151.228 74.8974 151.69 75.0412 152.251 75.0412ZM163.033 72.6548V67.8182H164.29V76H163.033V74.6151H162.948C162.756 75.0305 162.458 75.3839 162.053 75.6751C161.648 75.9627 161.137 76.1065 160.519 76.1065C160.008 76.1065 159.553 75.9947 159.156 75.771C158.758 75.5437 158.445 75.2028 158.218 74.7482C157.991 74.2901 157.877 73.7131 157.877 73.017V67.8182H159.134V72.9318C159.134 73.5284 159.301 74.0043 159.635 74.3594C159.972 74.7145 160.402 74.892 160.924 74.892C161.237 74.892 161.554 74.8121 161.877 74.6523C162.204 74.4925 162.478 74.2475 162.698 73.9173C162.922 73.587 163.033 73.1662 163.033 72.6548ZM170.151 67.8182V68.8835H165.911V67.8182H170.151ZM167.147 65.858H168.404V73.6562C168.404 74.0114 168.456 74.2777 168.559 74.4553C168.665 74.6293 168.8 74.7464 168.963 74.8068C169.13 74.8636 169.306 74.892 169.491 74.892C169.629 74.892 169.743 74.8849 169.832 74.8707C169.92 74.853 169.991 74.8388 170.045 74.8281L170.3 75.9574C170.215 75.9893 170.096 76.0213 169.943 76.0533C169.791 76.0888 169.597 76.1065 169.363 76.1065C169.008 76.1065 168.66 76.0302 168.319 75.8775C167.981 75.7248 167.701 75.4922 167.477 75.1797C167.257 74.8672 167.147 74.473 167.147 73.9972V65.858ZM179.819 67.8182V68.8835H175.579V67.8182H179.819ZM176.815 65.858H178.072V73.6562C178.072 74.0114 178.123 74.2777 178.226 74.4553C178.333 74.6293 178.468 74.7464 178.631 74.8068C178.798 74.8636 178.974 74.892 179.159 74.892C179.297 74.892 179.411 74.8849 179.5 74.8707C179.588 74.853 179.659 74.8388 179.713 74.8281L179.968 75.9574C179.883 75.9893 179.764 76.0213 179.611 76.0533C179.459 76.0888 179.265 76.1065 179.031 76.1065C178.676 76.1065 178.328 76.0302 177.987 75.8775C177.649 75.7248 177.369 75.4922 177.145 75.1797C176.925 74.8672 176.815 74.473 176.815 73.9972V65.858ZM184.946 76.1705C184.207 76.1705 183.559 75.9947 183.002 75.6431C182.448 75.2915 182.015 74.7997 181.702 74.1676C181.393 73.5355 181.239 72.7969 181.239 71.9517C181.239 71.0994 181.393 70.3555 181.702 69.7198C182.015 69.0842 182.448 68.5906 183.002 68.239C183.559 67.8874 184.207 67.7116 184.946 67.7116C185.685 67.7116 186.331 67.8874 186.885 68.239C187.443 68.5906 187.876 69.0842 188.185 69.7198C188.497 70.3555 188.653 71.0994 188.653 71.9517C188.653 72.7969 188.497 73.5355 188.185 74.1676C187.876 74.7997 187.443 75.2915 186.885 75.6431C186.331 75.9947 185.685 76.1705 184.946 76.1705ZM184.946 75.0412C185.507 75.0412 185.969 74.8974 186.331 74.6097C186.693 74.3221 186.961 73.9439 187.135 73.4751C187.309 73.0064 187.396 72.4986 187.396 71.9517C187.396 71.4048 187.309 70.8952 187.135 70.4229C186.961 69.9506 186.693 69.5689 186.331 69.2777C185.969 68.9865 185.507 68.8409 184.946 68.8409C184.385 68.8409 183.923 68.9865 183.561 69.2777C183.199 69.5689 182.931 69.9506 182.757 70.4229C182.583 70.8952 182.496 71.4048 182.496 71.9517C182.496 72.4986 182.583 73.0064 182.757 73.4751C182.931 73.9439 183.199 74.3221 183.561 74.6097C183.923 74.8974 184.385 75.0412 184.946 75.0412ZM195.601 79.0682C195.388 79.0682 195.198 79.0504 195.031 79.0149C194.864 78.983 194.749 78.951 194.685 78.919L195.004 77.8111C195.31 77.8892 195.58 77.9176 195.814 77.8963C196.048 77.875 196.256 77.7702 196.437 77.582C196.622 77.3974 196.79 77.0973 196.943 76.6818L197.178 76.0426L194.152 67.8182H195.516L197.774 74.3381H197.859L200.118 67.8182H201.482L198.009 77.1932C197.852 77.6158 197.659 77.9656 197.428 78.2425C197.197 78.5231 196.929 78.7308 196.624 78.8658C196.322 79.0007 195.981 79.0682 195.601 79.0682ZM206.172 76.1705C205.433 76.1705 204.785 75.9947 204.227 75.6431C203.673 75.2915 203.24 74.7997 202.928 74.1676C202.619 73.5355 202.464 72.7969 202.464 71.9517C202.464 71.0994 202.619 70.3555 202.928 69.7198C203.24 69.0842 203.673 68.5906 204.227 68.239C204.785 67.8874 205.433 67.7116 206.172 67.7116C206.91 67.7116 207.557 67.8874 208.111 68.239C208.668 68.5906 209.101 69.0842 209.41 69.7198C209.723 70.3555 209.879 71.0994 209.879 71.9517C209.879 72.7969 209.723 73.5355 209.41 74.1676C209.101 74.7997 208.668 75.2915 208.111 75.6431C207.557 75.9947 206.91 76.1705 206.172 76.1705ZM206.172 75.0412C206.733 75.0412 207.194 74.8974 207.557 74.6097C207.919 74.3221 208.187 73.9439 208.361 73.4751C208.535 73.0064 208.622 72.4986 208.622 71.9517C208.622 71.4048 208.535 70.8952 208.361 70.4229C208.187 69.9506 207.919 69.5689 207.557 69.2777C207.194 68.9865 206.733 68.8409 206.172 68.8409C205.611 68.8409 205.149 68.9865 204.787 69.2777C204.425 69.5689 204.156 69.9506 203.982 70.4229C203.808 70.8952 203.721 71.4048 203.721 71.9517C203.721 72.4986 203.808 73.0064 203.982 73.4751C204.156 73.9439 204.425 74.3221 204.787 74.6097C205.149 74.8974 205.611 75.0412 206.172 75.0412ZM216.954 72.6548V67.8182H218.211V76H216.954V74.6151H216.869C216.677 75.0305 216.379 75.3839 215.974 75.6751C215.569 75.9627 215.058 76.1065 214.44 76.1065C213.929 76.1065 213.474 75.9947 213.076 75.771C212.679 75.5437 212.366 75.2028 212.139 74.7482C211.912 74.2901 211.798 73.7131 211.798 73.017V67.8182H213.055V72.9318C213.055 73.5284 213.222 74.0043 213.556 74.3594C213.893 74.7145 214.323 74.892 214.845 74.892C215.157 74.892 215.475 74.8121 215.798 74.6523C216.125 74.4925 216.399 74.2475 216.619 73.9173C216.842 73.587 216.954 73.1662 216.954 72.6548ZM220.514 76V67.8182H221.728V69.054H221.814C221.963 68.6491 222.233 68.3207 222.623 68.0685C223.014 67.8164 223.454 67.6903 223.944 67.6903C224.037 67.6903 224.152 67.6921 224.29 67.6957C224.429 67.6992 224.534 67.7045 224.605 67.7116V68.9901C224.562 68.9794 224.464 68.9634 224.312 68.9421C224.163 68.9173 224.005 68.9048 223.838 68.9048C223.44 68.9048 223.085 68.9883 222.772 69.1552C222.463 69.3185 222.218 69.5458 222.037 69.837C221.86 70.1246 221.771 70.4531 221.771 70.8224V76H220.514ZM230.314 79.0682V67.8182H231.528V69.1179H231.677C231.77 68.9759 231.897 68.7947 232.061 68.5746C232.228 68.3509 232.466 68.152 232.775 67.978C233.087 67.8004 233.51 67.7116 234.042 67.7116C234.731 67.7116 235.339 67.8839 235.864 68.2283C236.39 68.5728 236.8 69.0611 237.095 69.6932C237.389 70.3253 237.537 71.071 237.537 71.9304C237.537 72.7969 237.389 73.5479 237.095 74.1836C236.8 74.8157 236.391 75.3058 235.869 75.6538C235.347 75.9982 234.745 76.1705 234.064 76.1705C233.538 76.1705 233.117 76.0835 232.801 75.9094C232.485 75.7319 232.242 75.5312 232.071 75.3075C231.901 75.0803 231.77 74.892 231.677 74.7429H231.571V79.0682H230.314ZM231.549 71.9091C231.549 72.527 231.64 73.0721 231.821 73.5444C232.002 74.0131 232.267 74.3807 232.615 74.647C232.963 74.9098 233.389 75.0412 233.893 75.0412C234.419 75.0412 234.857 74.9027 235.209 74.6257C235.564 74.3452 235.83 73.9687 236.008 73.4964C236.189 73.0206 236.28 72.4915 236.28 71.9091C236.28 71.3338 236.191 70.8153 236.013 70.3537C235.839 69.8885 235.575 69.521 235.22 69.2511C234.868 68.9776 234.426 68.8409 233.893 68.8409C233.382 68.8409 232.952 68.9705 232.604 69.2298C232.256 69.4854 231.993 69.8441 231.816 70.3058C231.638 70.7638 231.549 71.2983 231.549 71.9091ZM239.454 76V67.8182H240.669V69.054H240.754C240.903 68.6491 241.173 68.3207 241.564 68.0685C241.954 67.8164 242.395 67.6903 242.885 67.6903C242.977 67.6903 243.092 67.6921 243.231 67.6957C243.369 67.6992 243.474 67.7045 243.545 67.7116V68.9901C243.503 68.9794 243.405 68.9634 243.252 68.9421C243.103 68.9173 242.945 68.9048 242.778 68.9048C242.38 68.9048 242.025 68.9883 241.713 69.1552C241.404 69.3185 241.159 69.5458 240.978 69.837C240.8 70.1246 240.711 70.4531 240.711 70.8224V76H239.454ZM248.11 76.1705C247.372 76.1705 246.723 75.9947 246.166 75.6431C245.612 75.2915 245.179 74.7997 244.866 74.1676C244.557 73.5355 244.403 72.7969 244.403 71.9517C244.403 71.0994 244.557 70.3555 244.866 69.7198C245.179 69.0842 245.612 68.5906 246.166 68.239C246.723 67.8874 247.372 67.7116 248.11 67.7116C248.849 67.7116 249.495 67.8874 250.049 68.239C250.607 68.5906 251.04 69.0842 251.349 69.7198C251.661 70.3555 251.818 71.0994 251.818 71.9517C251.818 72.7969 251.661 73.5355 251.349 74.1676C251.04 74.7997 250.607 75.2915 250.049 75.6431C249.495 75.9947 248.849 76.1705 248.11 76.1705ZM248.11 75.0412C248.671 75.0412 249.133 74.8974 249.495 74.6097C249.857 74.3221 250.125 73.9439 250.299 73.4751C250.473 73.0064 250.56 72.4986 250.56 71.9517C250.56 71.4048 250.473 70.8952 250.299 70.4229C250.125 69.9506 249.857 69.5689 249.495 69.2777C249.133 68.9865 248.671 68.8409 248.11 68.8409C247.549 68.8409 247.087 68.9865 246.725 69.2777C246.363 69.5689 246.095 69.9506 245.921 70.4229C245.747 70.8952 245.66 71.4048 245.66 71.9517C245.66 72.4986 245.747 73.0064 245.921 73.4751C246.095 73.9439 246.363 74.3221 246.725 74.6097C247.087 74.8974 247.549 75.0412 248.11 75.0412ZM257.38 67.8182V68.8835H252.969V67.8182H257.38ZM254.29 76V66.6889C254.29 66.2202 254.401 65.8295 254.621 65.517C254.841 65.2045 255.127 64.9702 255.478 64.8139C255.83 64.6577 256.201 64.5795 256.592 64.5795C256.901 64.5795 257.153 64.6044 257.348 64.6541C257.543 64.7038 257.689 64.75 257.785 64.7926L257.423 65.8793C257.359 65.858 257.27 65.8313 257.156 65.7994C257.046 65.7674 256.901 65.7514 256.719 65.7514C256.304 65.7514 256.004 65.8562 255.819 66.0657C255.638 66.2752 255.548 66.5824 255.548 66.9872V76H254.29ZM262.235 76.1705C261.447 76.1705 260.767 75.9964 260.195 75.6484C259.627 75.2969 259.188 74.8068 258.879 74.1783C258.574 73.5462 258.421 72.8111 258.421 71.973C258.421 71.1349 258.574 70.3963 258.879 69.7571C259.188 69.1143 259.618 68.6136 260.169 68.255C260.722 67.8928 261.369 67.7116 262.107 67.7116C262.534 67.7116 262.954 67.7827 263.37 67.9247C263.785 68.0668 264.164 68.2976 264.504 68.6172C264.845 68.9332 265.117 69.3523 265.319 69.8743C265.522 70.3963 265.623 71.0391 265.623 71.8026V72.3352H259.316V71.2486H264.345C264.345 70.7869 264.252 70.375 264.068 70.0128C263.887 69.6506 263.627 69.3647 263.29 69.1552C262.956 68.9457 262.562 68.8409 262.107 68.8409C261.607 68.8409 261.173 68.9652 260.808 69.2138C260.445 69.4588 260.167 69.7784 259.971 70.1726C259.776 70.5668 259.678 70.9893 259.678 71.4403V72.1648C259.678 72.7827 259.785 73.3065 259.998 73.7362C260.215 74.1623 260.515 74.4872 260.898 74.7109C261.282 74.9311 261.727 75.0412 262.235 75.0412C262.566 75.0412 262.864 74.995 263.13 74.9027C263.4 74.8068 263.633 74.6648 263.828 74.4766C264.023 74.2848 264.174 74.0469 264.281 73.7628L265.495 74.1037C265.367 74.5156 265.153 74.8778 264.851 75.1903C264.549 75.4993 264.176 75.7408 263.732 75.9148C263.288 76.0852 262.789 76.1705 262.235 76.1705ZM273.331 69.6506L272.202 69.9702C272.131 69.782 272.026 69.5991 271.887 69.4215C271.752 69.2404 271.568 69.0913 271.333 68.9741C271.099 68.8569 270.799 68.7983 270.433 68.7983C269.932 68.7983 269.515 68.9137 269.181 69.1445C268.851 69.3718 268.686 69.6612 268.686 70.0128C268.686 70.3253 268.8 70.5721 269.027 70.7532C269.254 70.9343 269.609 71.0852 270.092 71.206L271.307 71.5043C272.038 71.6818 272.583 71.9535 272.942 72.3192C273.301 72.6815 273.48 73.1484 273.48 73.7202C273.48 74.1889 273.345 74.608 273.075 74.9773C272.809 75.3466 272.436 75.6378 271.956 75.8509C271.477 76.0639 270.92 76.1705 270.284 76.1705C269.449 76.1705 268.759 75.9893 268.212 75.6271C267.665 75.2649 267.319 74.7358 267.173 74.0398L268.366 73.7415C268.48 74.1818 268.695 74.5121 269.011 74.7322C269.33 74.9524 269.748 75.0625 270.263 75.0625C270.849 75.0625 271.314 74.9382 271.658 74.6896C272.006 74.4375 272.18 74.1357 272.18 73.7841C272.18 73.5 272.081 73.2621 271.882 73.0703C271.683 72.875 271.378 72.7294 270.966 72.6335L269.602 72.3139C268.853 72.1364 268.302 71.8612 267.951 71.4883C267.603 71.1119 267.429 70.6413 267.429 70.0767C267.429 69.6151 267.558 69.2067 267.818 68.8516C268.08 68.4964 268.437 68.2177 268.888 68.0153C269.343 67.8129 269.858 67.7116 270.433 67.7116C271.243 67.7116 271.878 67.8892 272.34 68.2443C272.805 68.5994 273.135 69.0682 273.331 69.6506ZM281.168 69.6506L280.038 69.9702C279.967 69.782 279.863 69.5991 279.724 69.4215C279.589 69.2404 279.405 69.0913 279.17 68.9741C278.936 68.8569 278.636 68.7983 278.27 68.7983C277.769 68.7983 277.352 68.9137 277.018 69.1445C276.688 69.3718 276.523 69.6612 276.523 70.0128C276.523 70.3253 276.636 70.5721 276.864 70.7532C277.091 70.9343 277.446 71.0852 277.929 71.206L279.144 71.5043C279.875 71.6818 280.42 71.9535 280.779 72.3192C281.138 72.6815 281.317 73.1484 281.317 73.7202C281.317 74.1889 281.182 74.608 280.912 74.9773C280.646 75.3466 280.273 75.6378 279.793 75.8509C279.314 76.0639 278.756 76.1705 278.121 76.1705C277.286 76.1705 276.596 75.9893 276.049 75.6271C275.502 75.2649 275.156 74.7358 275.01 74.0398L276.203 73.7415C276.317 74.1818 276.532 74.5121 276.848 74.7322C277.167 74.9524 277.585 75.0625 278.1 75.0625C278.685 75.0625 279.151 74.9382 279.495 74.6896C279.843 74.4375 280.017 74.1357 280.017 73.7841C280.017 73.5 279.918 73.2621 279.719 73.0703C279.52 72.875 279.215 72.7294 278.803 72.6335L277.439 72.3139C276.69 72.1364 276.139 71.8612 275.788 71.4883C275.44 71.1119 275.266 70.6413 275.266 70.0767C275.266 69.6151 275.395 69.2067 275.655 68.8516C275.917 68.4964 276.274 68.2177 276.725 68.0153C277.18 67.8129 277.695 67.7116 278.27 67.7116C279.08 67.7116 279.715 67.8892 280.177 68.2443C280.642 68.5994 280.972 69.0682 281.168 69.6506ZM283.209 76V67.8182H284.466V76H283.209ZM283.848 66.4545C283.603 66.4545 283.392 66.3711 283.214 66.2042C283.04 66.0373 282.953 65.8366 282.953 65.6023C282.953 65.3679 283.04 65.1673 283.214 65.0004C283.392 64.8335 283.603 64.75 283.848 64.75C284.093 64.75 284.303 64.8335 284.477 65.0004C284.654 65.1673 284.743 65.3679 284.743 65.6023C284.743 65.8366 284.654 66.0373 284.477 66.2042C284.303 66.3711 284.093 66.4545 283.848 66.4545ZM290.093 76.1705C289.354 76.1705 288.706 75.9947 288.148 75.6431C287.594 75.2915 287.161 74.7997 286.849 74.1676C286.54 73.5355 286.385 72.7969 286.385 71.9517C286.385 71.0994 286.54 70.3555 286.849 69.7198C287.161 69.0842 287.594 68.5906 288.148 68.239C288.706 67.8874 289.354 67.7116 290.093 67.7116C290.831 67.7116 291.478 67.8874 292.032 68.239C292.589 68.5906 293.022 69.0842 293.331 69.7198C293.644 70.3555 293.8 71.0994 293.8 71.9517C293.8 72.7969 293.644 73.5355 293.331 74.1676C293.022 74.7997 292.589 75.2915 292.032 75.6431C291.478 75.9947 290.831 76.1705 290.093 76.1705ZM290.093 75.0412C290.654 75.0412 291.115 74.8974 291.478 74.6097C291.84 74.3221 292.108 73.9439 292.282 73.4751C292.456 73.0064 292.543 72.4986 292.543 71.9517C292.543 71.4048 292.456 70.8952 292.282 70.4229C292.108 69.9506 291.84 69.5689 291.478 69.2777C291.115 68.9865 290.654 68.8409 290.093 68.8409C289.532 68.8409 289.07 68.9865 288.708 69.2777C288.345 69.5689 288.077 69.9506 287.903 70.4229C287.729 70.8952 287.642 71.4048 287.642 71.9517C287.642 72.4986 287.729 73.0064 287.903 73.4751C288.077 73.9439 288.345 74.3221 288.708 74.6097C289.07 74.8974 289.532 75.0412 290.093 75.0412ZM296.976 71.0781V76H295.719V67.8182H296.933V69.0966H297.04C297.232 68.6811 297.523 68.3473 297.914 68.0952C298.304 67.8395 298.808 67.7116 299.426 67.7116C299.98 67.7116 300.465 67.8253 300.881 68.0526C301.296 68.2763 301.619 68.6172 301.85 69.0753C302.081 69.5298 302.196 70.1051 302.196 70.8011V76H300.939V70.8864C300.939 70.2436 300.772 69.7429 300.438 69.3842C300.105 69.022 299.646 68.8409 299.064 68.8409C298.663 68.8409 298.304 68.9279 297.988 69.1019C297.676 69.2759 297.429 69.5298 297.248 69.8636C297.067 70.1974 296.976 70.6023 296.976 71.0781ZM306.901 76.1918C306.383 76.1918 305.912 76.0941 305.489 75.8988C305.067 75.6999 304.731 75.4141 304.483 75.0412C304.234 74.6648 304.11 74.2102 304.11 73.6776C304.11 73.2088 304.202 72.8288 304.387 72.5376C304.571 72.2429 304.818 72.0121 305.127 71.8452C305.436 71.6783 305.777 71.554 306.15 71.4723C306.526 71.3871 306.905 71.3196 307.285 71.2699C307.782 71.206 308.185 71.158 308.494 71.1261C308.806 71.0906 309.033 71.032 309.176 70.9503C309.321 70.8686 309.394 70.7266 309.394 70.5241V70.4815C309.394 69.956 309.25 69.5476 308.962 69.2564C308.678 68.9652 308.247 68.8196 307.668 68.8196C307.068 68.8196 306.597 68.951 306.256 69.2138C305.916 69.4766 305.676 69.7571 305.537 70.0554L304.344 69.6293C304.557 69.1321 304.841 68.745 305.196 68.468C305.555 68.1875 305.946 67.9922 306.368 67.8821C306.794 67.7685 307.214 67.7116 307.625 67.7116C307.888 67.7116 308.19 67.7436 308.531 67.8075C308.875 67.8679 309.207 67.994 309.527 68.1857C309.85 68.3775 310.118 68.6669 310.331 69.054C310.544 69.4411 310.651 69.9595 310.651 70.6094V76H309.394V74.892H309.33C309.245 75.0696 309.103 75.2596 308.904 75.462C308.705 75.6644 308.44 75.8366 308.11 75.9787C307.78 76.1207 307.377 76.1918 306.901 76.1918ZM307.093 75.0625C307.59 75.0625 308.009 74.9648 308.35 74.7695C308.694 74.5742 308.954 74.3221 309.128 74.0131C309.305 73.7042 309.394 73.3793 309.394 73.0384V71.8878C309.341 71.9517 309.223 72.0103 309.042 72.0636C308.865 72.1133 308.659 72.1577 308.424 72.1967C308.194 72.2322 307.968 72.2642 307.748 72.2926C307.531 72.3175 307.356 72.3388 307.221 72.3565C306.894 72.3991 306.589 72.4684 306.304 72.5643C306.024 72.6566 305.797 72.7969 305.623 72.9851C305.452 73.1697 305.367 73.4219 305.367 73.7415C305.367 74.1783 305.528 74.5085 305.852 74.7322C306.178 74.9524 306.592 75.0625 307.093 75.0625ZM314.203 65.0909V76H312.945V65.0909H314.203Z" fill="#43505B"/>
</svg>
