<svg width="317" height="86" viewBox="0 0 317 86" fill="none" xmlns="http://www.w3.org/2000/svg">
<rect width="86" height="86" rx="8" fill="#F0FCF6"/>
<path d="M42.7588 48.582V24.5" stroke="#61DD9C" stroke-width="2.5" stroke-linecap="round" stroke-linejoin="round"/>
<path d="M48.5908 42.7285L42.7588 48.5845L36.9268 42.7285" stroke="#61DD9C" stroke-width="2.5" stroke-linecap="round" stroke-linejoin="round"/>
<path d="M51.741 33.5173C58.899 34.1773 61.501 36.8573 61.501 47.5173C61.501 61.7173 56.879 61.7173 43.001 61.7173C29.119 61.7173 24.501 61.7173 24.501 47.5173C24.501 36.8573 27.101 34.1773 34.261 33.5173" stroke="#61DD9C" stroke-width="2.5" stroke-linecap="round" stroke-linejoin="round"/>
<path d="M108.364 20H103.435V5.45455H108.463C109.907 5.45455 111.148 5.74574 112.185 6.32812C113.226 6.90578 114.027 7.73674 114.585 8.82102C115.144 9.9053 115.423 11.2027 115.423 12.7131C115.423 14.2282 115.142 15.5303 114.578 16.6193C114.019 17.7083 113.212 18.544 112.156 19.1264C111.105 19.7088 109.841 20 108.364 20ZM106.07 17.7202H108.236C109.249 17.7202 110.094 17.5355 110.771 17.1662C111.448 16.7921 111.957 16.2358 112.298 15.4972C112.639 14.7538 112.81 13.8258 112.81 12.7131C112.81 11.6004 112.639 10.6771 112.298 9.94318C111.957 9.20455 111.453 8.65294 110.786 8.28835C110.123 7.91903 109.299 7.73438 108.314 7.73438H106.07V17.7202ZM122.572 20.2131C121.506 20.2131 120.583 19.9787 119.802 19.5099C119.021 19.0412 118.415 18.3854 117.984 17.5426C117.558 16.6998 117.344 15.715 117.344 14.5881C117.344 13.4612 117.558 12.474 117.984 11.6264C118.415 10.7789 119.021 10.1207 119.802 9.65199C120.583 9.18324 121.506 8.94886 122.572 8.94886C123.637 8.94886 124.56 9.18324 125.342 9.65199C126.123 10.1207 126.727 10.7789 127.153 11.6264C127.584 12.474 127.799 13.4612 127.799 14.5881C127.799 15.715 127.584 16.6998 127.153 17.5426C126.727 18.3854 126.123 19.0412 125.342 19.5099C124.56 19.9787 123.637 20.2131 122.572 20.2131ZM122.586 18.1534C123.164 18.1534 123.647 17.9948 124.035 17.6776C124.423 17.3556 124.712 16.9247 124.901 16.3849C125.095 15.8452 125.192 15.2438 125.192 14.581C125.192 13.9134 125.095 13.3097 124.901 12.7699C124.712 12.2254 124.423 11.7921 124.035 11.4702C123.647 11.1482 123.164 10.9872 122.586 10.9872C121.994 10.9872 121.502 11.1482 121.109 11.4702C120.72 11.7921 120.429 12.2254 120.235 12.7699C120.046 13.3097 119.951 13.9134 119.951 14.581C119.951 15.2438 120.046 15.8452 120.235 16.3849C120.429 16.9247 120.72 17.3556 121.109 17.6776C121.502 17.9948 121.994 18.1534 122.586 18.1534ZM131.92 20L128.838 9.09091H131.458L133.376 16.7614H133.475L135.436 9.09091H138.028L139.988 16.7188H140.095L141.984 9.09091H144.612L141.522 20H138.845L136.799 12.6278H136.65L134.605 20H131.92ZM148.978 13.608V20H146.407V9.09091H148.864V10.9446H148.992C149.243 10.3338 149.643 9.84848 150.192 9.48864C150.746 9.12879 151.431 8.94886 152.245 8.94886C152.998 8.94886 153.654 9.10985 154.212 9.43182C154.776 9.75379 155.211 10.2202 155.519 10.831C155.832 11.4418 155.986 12.1828 155.981 13.054V20H153.41V13.4517C153.41 12.7225 153.22 12.152 152.842 11.7401C152.468 11.3281 151.949 11.1222 151.286 11.1222C150.836 11.1222 150.436 11.2216 150.086 11.4205C149.74 11.6146 149.468 11.8963 149.269 12.2656C149.075 12.6349 148.978 13.0824 148.978 13.608ZM161.165 5.45455V20H158.594V5.45455H161.165ZM168.568 20.2131C167.502 20.2131 166.579 19.9787 165.798 19.5099C165.017 19.0412 164.411 18.3854 163.98 17.5426C163.554 16.6998 163.341 15.715 163.341 14.5881C163.341 13.4612 163.554 12.474 163.98 11.6264C164.411 10.7789 165.017 10.1207 165.798 9.65199C166.579 9.18324 167.502 8.94886 168.568 8.94886C169.633 8.94886 170.556 9.18324 171.338 9.65199C172.119 10.1207 172.723 10.7789 173.149 11.6264C173.58 12.474 173.795 13.4612 173.795 14.5881C173.795 15.715 173.58 16.6998 173.149 17.5426C172.723 18.3854 172.119 19.0412 171.338 19.5099C170.556 19.9787 169.633 20.2131 168.568 20.2131ZM168.582 18.1534C169.16 18.1534 169.643 17.9948 170.031 17.6776C170.419 17.3556 170.708 16.9247 170.897 16.3849C171.092 15.8452 171.189 15.2438 171.189 14.581C171.189 13.9134 171.092 13.3097 170.897 12.7699C170.708 12.2254 170.419 11.7921 170.031 11.4702C169.643 11.1482 169.16 10.9872 168.582 10.9872C167.99 10.9872 167.498 11.1482 167.105 11.4702C166.717 11.7921 166.425 12.2254 166.231 12.7699C166.042 13.3097 165.947 13.9134 165.947 14.581C165.947 15.2438 166.042 15.8452 166.231 16.3849C166.425 16.9247 166.717 17.3556 167.105 17.6776C167.498 17.9948 167.99 18.1534 168.582 18.1534ZM179.116 20.2202C178.425 20.2202 177.803 20.0971 177.249 19.8509C176.699 19.5999 176.264 19.2306 175.942 18.7429C175.625 18.2552 175.466 17.6539 175.466 16.9389C175.466 16.3234 175.58 15.8144 175.807 15.4119C176.034 15.0095 176.344 14.6875 176.737 14.446C177.13 14.2045 177.573 14.0223 178.065 13.8991C178.563 13.7713 179.076 13.679 179.607 13.6222C180.246 13.5559 180.764 13.4967 181.162 13.4446C181.56 13.3878 181.848 13.3026 182.028 13.1889C182.213 13.0705 182.305 12.8883 182.305 12.642V12.5994C182.305 12.0644 182.147 11.6501 181.83 11.3565C181.512 11.063 181.055 10.9162 180.459 10.9162C179.829 10.9162 179.33 11.0535 178.96 11.3281C178.596 11.6027 178.349 11.9271 178.222 12.3011L175.821 11.9602C176.01 11.2973 176.323 10.7434 176.759 10.2983C177.194 9.84848 177.727 9.51231 178.357 9.28977C178.986 9.0625 179.682 8.94886 180.445 8.94886C180.97 8.94886 181.493 9.01042 182.014 9.13352C182.535 9.25663 183.011 9.46023 183.442 9.74432C183.873 10.0237 184.218 10.4048 184.479 10.8878C184.744 11.3707 184.876 11.9744 184.876 12.6989V20H182.405V18.5014H182.32C182.163 18.8045 181.943 19.0885 181.659 19.3537C181.38 19.6141 181.027 19.8248 180.601 19.9858C180.179 20.142 179.685 20.2202 179.116 20.2202ZM179.784 18.331C180.3 18.331 180.748 18.2292 181.126 18.0256C181.505 17.8172 181.796 17.5426 182 17.2017C182.208 16.8608 182.312 16.4891 182.312 16.0866V14.8011C182.232 14.8674 182.095 14.929 181.901 14.9858C181.711 15.0426 181.498 15.0923 181.261 15.1349C181.025 15.1776 180.79 15.2154 180.558 15.2486C180.326 15.2817 180.125 15.3101 179.955 15.3338C179.571 15.3859 179.228 15.4711 178.925 15.5895C178.622 15.7079 178.383 15.8736 178.207 16.0866C178.032 16.295 177.945 16.5649 177.945 16.8963C177.945 17.3698 178.117 17.7273 178.463 17.9688C178.809 18.2102 179.249 18.331 179.784 18.331ZM191.51 20.1918C190.653 20.1918 189.886 19.9716 189.209 19.5312C188.532 19.0909 187.997 18.4517 187.604 17.6136C187.211 16.7756 187.014 15.7576 187.014 14.5597C187.014 13.3475 187.213 12.3248 187.611 11.4915C188.013 10.6534 188.555 10.0213 189.237 9.59517C189.919 9.1643 190.679 8.94886 191.517 8.94886C192.156 8.94886 192.682 9.05777 193.094 9.27557C193.506 9.48864 193.832 9.74669 194.074 10.0497C194.315 10.348 194.502 10.6297 194.635 10.8949H194.741V5.45455H197.32V20H194.791V18.2812H194.635C194.502 18.5464 194.311 18.8281 194.06 19.1264C193.809 19.42 193.477 19.6709 193.065 19.8793C192.653 20.0876 192.135 20.1918 191.51 20.1918ZM192.227 18.0824C192.772 18.0824 193.236 17.9356 193.619 17.642C194.003 17.3437 194.294 16.9295 194.493 16.3991C194.692 15.8688 194.791 15.2509 194.791 14.5455C194.791 13.84 194.692 13.2268 194.493 12.706C194.299 12.1851 194.01 11.7803 193.626 11.4915C193.248 11.2027 192.781 11.0582 192.227 11.0582C191.654 11.0582 191.176 11.2074 190.793 11.5057C190.409 11.804 190.12 12.2159 189.926 12.7415C189.732 13.267 189.635 13.8684 189.635 14.5455C189.635 15.2273 189.732 15.8357 189.926 16.3707C190.125 16.901 190.416 17.3201 190.8 17.6278C191.188 17.9309 191.664 18.0824 192.227 18.0824ZM203.199 20.2202C202.507 20.2202 201.885 20.0971 201.331 19.8509C200.781 19.5999 200.346 19.2306 200.024 18.7429C199.707 18.2552 199.548 17.6539 199.548 16.9389C199.548 16.3234 199.662 15.8144 199.889 15.4119C200.116 15.0095 200.426 14.6875 200.819 14.446C201.212 14.2045 201.655 14.0223 202.147 13.8991C202.645 13.7713 203.158 13.679 203.689 13.6222C204.328 13.5559 204.846 13.4967 205.244 13.4446C205.642 13.3878 205.931 13.3026 206.11 13.1889C206.295 13.0705 206.387 12.8883 206.387 12.642V12.5994C206.387 12.0644 206.229 11.6501 205.912 11.3565C205.594 11.063 205.137 10.9162 204.541 10.9162C203.911 10.9162 203.412 11.0535 203.042 11.3281C202.678 11.6027 202.431 11.9271 202.304 12.3011L199.903 11.9602C200.092 11.2973 200.405 10.7434 200.841 10.2983C201.276 9.84848 201.809 9.51231 202.439 9.28977C203.068 9.0625 203.764 8.94886 204.527 8.94886C205.052 8.94886 205.575 9.01042 206.096 9.13352C206.617 9.25663 207.093 9.46023 207.524 9.74432C207.955 10.0237 208.3 10.4048 208.561 10.8878C208.826 11.3707 208.958 11.9744 208.958 12.6989V20H206.487V18.5014H206.402C206.245 18.8045 206.025 19.0885 205.741 19.3537C205.462 19.6141 205.109 19.8248 204.683 19.9858C204.261 20.142 203.767 20.2202 203.199 20.2202ZM203.866 18.331C204.382 18.331 204.83 18.2292 205.208 18.0256C205.587 17.8172 205.878 17.5426 206.082 17.2017C206.29 16.8608 206.395 16.4891 206.395 16.0866V14.8011C206.314 14.8674 206.177 14.929 205.983 14.9858C205.793 15.0426 205.58 15.0923 205.343 15.1349C205.107 15.1776 204.872 15.2154 204.64 15.2486C204.408 15.2817 204.207 15.3101 204.037 15.3338C203.653 15.3859 203.31 15.4711 203.007 15.5895C202.704 15.7079 202.465 15.8736 202.289 16.0866C202.114 16.295 202.027 16.5649 202.027 16.8963C202.027 17.3698 202.199 17.7273 202.545 17.9688C202.891 18.2102 203.331 18.331 203.866 18.331ZM211.657 20V5.45455H214.228V10.8949H214.335C214.467 10.6297 214.654 10.348 214.896 10.0497C215.137 9.74669 215.464 9.48864 215.876 9.27557C216.288 9.05777 216.814 8.94886 217.453 8.94886C218.296 8.94886 219.056 9.1643 219.733 9.59517C220.414 10.0213 220.954 10.6534 221.352 11.4915C221.754 12.3248 221.956 13.3475 221.956 14.5597C221.956 15.7576 221.759 16.7756 221.366 17.6136C220.973 18.4517 220.438 19.0909 219.761 19.5312C219.084 19.9716 218.317 20.1918 217.46 20.1918C216.835 20.1918 216.316 20.0876 215.904 19.8793C215.493 19.6709 215.161 19.42 214.91 19.1264C214.664 18.8281 214.472 18.5464 214.335 18.2812H214.186V20H211.657ZM214.179 14.5455C214.179 15.2509 214.278 15.8688 214.477 16.3991C214.681 16.9295 214.972 17.3437 215.35 17.642C215.734 17.9356 216.198 18.0824 216.743 18.0824C217.311 18.0824 217.787 17.9309 218.17 17.6278C218.554 17.3201 218.842 16.901 219.037 16.3707C219.235 15.8357 219.335 15.2273 219.335 14.5455C219.335 13.8684 219.238 13.267 219.044 12.7415C218.85 12.2159 218.561 11.804 218.177 11.5057C217.794 11.2074 217.315 11.0582 216.743 11.0582C216.193 11.0582 215.727 11.2027 215.343 11.4915C214.96 11.7803 214.669 12.1851 214.47 12.706C214.276 13.2268 214.179 13.84 214.179 14.5455ZM226.712 5.45455V20H224.141V5.45455H226.712ZM234.186 20.2131C233.092 20.2131 232.147 19.9858 231.352 19.5312C230.561 19.072 229.953 18.4233 229.527 17.5852C229.1 16.7424 228.887 15.7505 228.887 14.6094C228.887 13.4872 229.1 12.5024 229.527 11.6548C229.958 10.8026 230.559 10.1397 231.331 9.66619C232.102 9.18797 233.009 8.94886 234.051 8.94886C234.723 8.94886 235.358 9.05777 235.954 9.27557C236.556 9.48864 237.086 9.82008 237.545 10.2699C238.009 10.7197 238.374 11.2926 238.639 11.9886C238.904 12.6799 239.037 13.5038 239.037 14.4602V15.2486H230.095V13.5156H236.572C236.567 13.0232 236.461 12.5852 236.252 12.2017C236.044 11.8134 235.753 11.508 235.379 11.2855C235.01 11.063 234.579 10.9517 234.086 10.9517C233.561 10.9517 233.099 11.0795 232.701 11.3352C232.304 11.5862 231.993 11.9176 231.771 12.3295C231.553 12.7367 231.442 13.1842 231.437 13.6719V15.1847C231.437 15.8191 231.553 16.3636 231.785 16.8182C232.017 17.268 232.342 17.6136 232.758 17.8551C233.175 18.0919 233.663 18.2102 234.221 18.2102C234.595 18.2102 234.934 18.1581 235.237 18.054C235.54 17.9451 235.803 17.7865 236.025 17.5781C236.248 17.3698 236.416 17.1117 236.529 16.804L238.93 17.0739C238.779 17.7083 238.49 18.2623 238.064 18.7358C237.642 19.2045 237.102 19.5691 236.444 19.8295C235.786 20.0852 235.033 20.2131 234.186 20.2131ZM115.885 36.3622H113.229C113.153 35.9266 113.013 35.5407 112.81 35.2045C112.606 34.8636 112.353 34.5748 112.05 34.3381C111.747 34.1013 111.401 33.9238 111.013 33.8054C110.629 33.6823 110.215 33.6207 109.77 33.6207C108.979 33.6207 108.278 33.8196 107.668 34.2173C107.057 34.6103 106.579 35.188 106.233 35.9503C105.887 36.7079 105.714 37.6335 105.714 38.7273C105.714 39.84 105.887 40.7775 106.233 41.5398C106.583 42.2973 107.062 42.8703 107.668 43.2585C108.278 43.642 108.977 43.8338 109.763 43.8338C110.198 43.8338 110.606 43.777 110.984 43.6634C111.368 43.545 111.711 43.3722 112.014 43.1449C112.322 42.9176 112.58 42.6383 112.788 42.3068C113.001 41.9754 113.148 41.5966 113.229 41.1705L115.885 41.1847C115.786 41.8759 115.57 42.5246 115.239 43.1307C114.912 43.7367 114.483 44.2718 113.953 44.7358C113.423 45.1951 112.803 45.5549 112.092 45.8153C111.382 46.071 110.594 46.1989 109.727 46.1989C108.449 46.1989 107.308 45.9029 106.304 45.3111C105.3 44.7192 104.509 43.8646 103.932 42.7472C103.354 41.6297 103.065 40.2898 103.065 38.7273C103.065 37.16 103.357 35.8201 103.939 34.7074C104.521 33.59 105.314 32.7353 106.318 32.1435C107.322 31.5516 108.458 31.2557 109.727 31.2557C110.537 31.2557 111.29 31.3693 111.986 31.5966C112.682 31.8239 113.302 32.1577 113.847 32.598C114.391 33.0336 114.839 33.5687 115.189 34.2031C115.544 34.8329 115.776 35.5526 115.885 36.3622ZM122.943 46.2131C121.877 46.2131 120.954 45.9787 120.173 45.5099C119.392 45.0412 118.786 44.3854 118.355 43.5426C117.929 42.6998 117.716 41.715 117.716 40.5881C117.716 39.4612 117.929 38.474 118.355 37.6264C118.786 36.7789 119.392 36.1207 120.173 35.652C120.954 35.1832 121.877 34.9489 122.943 34.9489C124.008 34.9489 124.931 35.1832 125.713 35.652C126.494 36.1207 127.098 36.7789 127.524 37.6264C127.955 38.474 128.17 39.4612 128.17 40.5881C128.17 41.715 127.955 42.6998 127.524 43.5426C127.098 44.3854 126.494 45.0412 125.713 45.5099C124.931 45.9787 124.008 46.2131 122.943 46.2131ZM122.957 44.1534C123.535 44.1534 124.018 43.9948 124.406 43.6776C124.794 43.3556 125.083 42.9247 125.272 42.3849C125.467 41.8452 125.564 41.2438 125.564 40.581C125.564 39.9134 125.467 39.3097 125.272 38.7699C125.083 38.2254 124.794 37.7921 124.406 37.4702C124.018 37.1482 123.535 36.9872 122.957 36.9872C122.365 36.9872 121.873 37.1482 121.48 37.4702C121.092 37.7921 120.8 38.2254 120.606 38.7699C120.417 39.3097 120.322 39.9134 120.322 40.581C120.322 41.2438 120.417 41.8452 120.606 42.3849C120.8 42.9247 121.092 43.3556 121.48 43.6776C121.873 43.9948 122.365 44.1534 122.957 44.1534ZM132.923 39.608V46H130.352V35.0909H132.81V36.9446H132.938C133.188 36.3338 133.589 35.8485 134.138 35.4886C134.692 35.1288 135.376 34.9489 136.19 34.9489C136.943 34.9489 137.599 35.1098 138.158 35.4318C138.721 35.7538 139.157 36.2202 139.464 36.831C139.777 37.4418 139.931 38.1828 139.926 39.054V46H137.355V39.4517C137.355 38.7225 137.166 38.152 136.787 37.7401C136.413 37.3281 135.894 37.1222 135.232 37.1222C134.782 37.1222 134.382 37.2216 134.031 37.4205C133.686 37.6146 133.413 37.8963 133.214 38.2656C133.02 38.6349 132.923 39.0824 132.923 39.608ZM147.987 35.0909V37.0795H141.716V35.0909H147.987ZM143.264 32.4773H145.835V42.7188C145.835 43.0644 145.887 43.3295 145.991 43.5142C146.1 43.6941 146.242 43.8172 146.418 43.8835C146.593 43.9498 146.787 43.983 147 43.983C147.161 43.983 147.308 43.9711 147.44 43.9474C147.578 43.9238 147.682 43.9025 147.753 43.8835L148.186 45.8935C148.049 45.9408 147.852 45.9929 147.597 46.0497C147.346 46.1065 147.038 46.1397 146.673 46.1491C146.029 46.1681 145.449 46.071 144.933 45.858C144.417 45.6402 144.008 45.304 143.705 44.8494C143.406 44.3949 143.259 43.8267 143.264 43.1449V32.4773ZM154.85 46.2131C153.756 46.2131 152.811 45.9858 152.016 45.5312C151.225 45.072 150.617 44.4233 150.191 43.5852C149.765 42.7424 149.551 41.7505 149.551 40.6094C149.551 39.4872 149.765 38.5024 150.191 37.6548C150.622 36.8026 151.223 36.1397 151.995 35.6662C152.766 35.188 153.673 34.9489 154.715 34.9489C155.387 34.9489 156.022 35.0578 156.618 35.2756C157.22 35.4886 157.75 35.8201 158.209 36.2699C158.673 36.7197 159.038 37.2926 159.303 37.9886C159.568 38.6799 159.701 39.5038 159.701 40.4602V41.2486H150.759V39.5156H157.236C157.231 39.0232 157.125 38.5852 156.917 38.2017C156.708 37.8134 156.417 37.508 156.043 37.2855C155.674 37.063 155.243 36.9517 154.75 36.9517C154.225 36.9517 153.763 37.0795 153.365 37.3352C152.968 37.5862 152.658 37.9176 152.435 38.3295C152.217 38.7367 152.106 39.1842 152.101 39.6719V41.1847C152.101 41.8191 152.217 42.3636 152.449 42.8182C152.681 43.268 153.006 43.6136 153.422 43.8551C153.839 44.0919 154.327 44.2102 154.885 44.2102C155.259 44.2102 155.598 44.1581 155.901 44.054C156.204 43.9451 156.467 43.7865 156.689 43.5781C156.912 43.3698 157.08 43.1117 157.194 42.804L159.594 43.0739C159.443 43.7083 159.154 44.2623 158.728 44.7358C158.306 45.2045 157.766 45.5691 157.108 45.8295C156.45 46.0852 155.697 46.2131 154.85 46.2131ZM164.447 39.608V46H161.876V35.0909H164.333V36.9446H164.461C164.712 36.3338 165.112 35.8485 165.661 35.4886C166.215 35.1288 166.899 34.9489 167.714 34.9489C168.467 34.9489 169.122 35.1098 169.681 35.4318C170.245 35.7538 170.68 36.2202 170.988 36.831C171.3 37.4418 171.454 38.1828 171.45 39.054V46H168.879V39.4517C168.879 38.7225 168.689 38.152 168.31 37.7401C167.936 37.3281 167.418 37.1222 166.755 37.1222C166.305 37.1222 165.905 37.2216 165.555 37.4205C165.209 37.6146 164.937 37.8963 164.738 38.2656C164.544 38.6349 164.447 39.0824 164.447 39.608ZM179.511 35.0909V37.0795H173.239V35.0909H179.511ZM174.788 32.4773H177.359V42.7188C177.359 43.0644 177.411 43.3295 177.515 43.5142C177.624 43.6941 177.766 43.8172 177.941 43.8835C178.116 43.9498 178.31 43.983 178.523 43.983C178.684 43.983 178.831 43.9711 178.964 43.9474C179.101 43.9238 179.205 43.9025 179.276 43.8835L179.71 45.8935C179.572 45.9408 179.376 45.9929 179.12 46.0497C178.869 46.1065 178.561 46.1397 178.197 46.1491C177.553 46.1681 176.973 46.071 176.457 45.858C175.941 45.6402 175.531 45.304 175.228 44.8494C174.93 44.3949 174.783 43.8267 174.788 43.1449V32.4773Z" fill="#0A2134"/>
<path d="M105.303 76L102.32 65.0909H103.662L105.942 73.9759H106.048L108.371 65.0909H109.862L112.185 73.9759H112.291L114.571 65.0909H115.913L112.93 76H111.567L109.159 67.3068H109.074L106.666 76H105.303ZM117.389 76V67.8182H118.646V76H117.389ZM118.028 66.4545C117.783 66.4545 117.572 66.3711 117.394 66.2042C117.22 66.0373 117.133 65.8366 117.133 65.6023C117.133 65.3679 117.22 65.1673 117.394 65.0004C117.572 64.8335 117.783 64.75 118.028 64.75C118.273 64.75 118.483 64.8335 118.657 65.0004C118.834 65.1673 118.923 65.3679 118.923 65.6023C118.923 65.8366 118.834 66.0373 118.657 66.2042C118.483 66.3711 118.273 66.4545 118.028 66.4545ZM124.507 67.8182V68.8835H120.267V67.8182H124.507ZM121.502 65.858H122.759V73.6562C122.759 74.0114 122.811 74.2777 122.914 74.4553C123.021 74.6293 123.155 74.7464 123.319 74.8068C123.486 74.8636 123.661 74.892 123.846 74.892C123.985 74.892 124.098 74.8849 124.187 74.8707C124.276 74.853 124.347 74.8388 124.4 74.8281L124.656 75.9574C124.571 75.9893 124.452 76.0213 124.299 76.0533C124.146 76.0888 123.953 76.1065 123.718 76.1065C123.363 76.1065 123.015 76.0302 122.674 75.8775C122.337 75.7248 122.056 75.4922 121.833 75.1797C121.612 74.8672 121.502 74.473 121.502 73.9972V65.858ZM127.831 71.0781V76H126.573V65.0909H127.831V69.0966H127.937C128.129 68.674 128.416 68.3384 128.8 68.0898C129.187 67.8377 129.702 67.7116 130.345 67.7116C130.902 67.7116 131.391 67.8235 131.81 68.0472C132.229 68.2674 132.554 68.6065 132.784 69.0646C133.019 69.5192 133.136 70.098 133.136 70.8011V76H131.879V70.8864C131.879 70.2365 131.71 69.734 131.373 69.3789C131.039 69.0202 130.576 68.8409 129.983 68.8409C129.571 68.8409 129.201 68.9279 128.875 69.1019C128.551 69.2759 128.296 69.5298 128.108 69.8636C127.923 70.1974 127.831 70.6023 127.831 71.0781ZM140.912 65.0909V76H139.654V65.0909H140.912ZM143.214 76V67.8182H144.471V76H143.214ZM143.853 66.4545C143.608 66.4545 143.397 66.3711 143.219 66.2042C143.045 66.0373 142.958 65.8366 142.958 65.6023C142.958 65.3679 143.045 65.1673 143.219 65.0004C143.397 64.8335 143.608 64.75 143.853 64.75C144.098 64.75 144.308 64.8335 144.482 65.0004C144.659 65.1673 144.748 65.3679 144.748 65.6023C144.748 65.8366 144.659 66.0373 144.482 66.2042C144.308 66.3711 144.098 66.4545 143.853 66.4545ZM150.417 67.8182V68.8835H146.007V67.8182H150.417ZM147.328 76V66.6889C147.328 66.2202 147.438 65.8295 147.658 65.517C147.878 65.2045 148.164 64.9702 148.515 64.8139C148.867 64.6577 149.238 64.5795 149.629 64.5795C149.938 64.5795 150.19 64.6044 150.385 64.6541C150.58 64.7038 150.726 64.75 150.822 64.7926L150.46 65.8793C150.396 65.858 150.307 65.8313 150.193 65.7994C150.083 65.7674 149.938 65.7514 149.757 65.7514C149.341 65.7514 149.041 65.8562 148.856 66.0657C148.675 66.2752 148.585 66.5824 148.585 66.9872V76H147.328ZM155.272 76.1705C154.484 76.1705 153.804 75.9964 153.232 75.6484C152.664 75.2969 152.225 74.8068 151.917 74.1783C151.611 73.5462 151.458 72.8111 151.458 71.973C151.458 71.1349 151.611 70.3963 151.917 69.7571C152.225 69.1143 152.655 68.6136 153.206 68.255C153.76 67.8928 154.406 67.7116 155.145 67.7116C155.571 67.7116 155.991 67.7827 156.407 67.9247C156.822 68.0668 157.201 68.2976 157.542 68.6172C157.882 68.9332 158.154 69.3523 158.357 69.8743C158.559 70.3963 158.66 71.0391 158.66 71.8026V72.3352H152.353V71.2486H157.382C157.382 70.7869 157.289 70.375 157.105 70.0128C156.924 69.6506 156.664 69.3647 156.327 69.1552C155.993 68.9457 155.599 68.8409 155.145 68.8409C154.644 68.8409 154.211 68.9652 153.845 69.2138C153.483 69.4588 153.204 69.7784 153.009 70.1726C152.813 70.5668 152.716 70.9893 152.716 71.4403V72.1648C152.716 72.7827 152.822 73.3065 153.035 73.7362C153.252 74.1623 153.552 74.4872 153.935 74.7109C154.319 74.9311 154.765 75.0412 155.272 75.0412C155.603 75.0412 155.901 74.995 156.167 74.9027C156.437 74.8068 156.67 74.6648 156.865 74.4766C157.06 74.2848 157.211 74.0469 157.318 73.7628L158.532 74.1037C158.404 74.5156 158.19 74.8778 157.888 75.1903C157.586 75.4993 157.213 75.7408 156.769 75.9148C156.325 76.0852 155.826 76.1705 155.272 76.1705ZM164.131 67.8182V68.8835H159.891V67.8182H164.131ZM161.126 65.858H162.384V73.6562C162.384 74.0114 162.435 74.2777 162.538 74.4553C162.645 74.6293 162.779 74.7464 162.943 74.8068C163.11 74.8636 163.286 74.892 163.47 74.892C163.609 74.892 163.722 74.8849 163.811 74.8707C163.9 74.853 163.971 74.8388 164.024 74.8281L164.28 75.9574C164.195 75.9893 164.076 76.0213 163.923 76.0533C163.77 76.0888 163.577 76.1065 163.342 76.1065C162.987 76.1065 162.639 76.0302 162.298 75.8775C161.961 75.7248 161.68 75.4922 161.457 75.1797C161.237 74.8672 161.126 74.473 161.126 73.9972V65.858ZM166.022 76V67.8182H167.279V76H166.022ZM166.661 66.4545C166.416 66.4545 166.205 66.3711 166.027 66.2042C165.853 66.0373 165.766 65.8366 165.766 65.6023C165.766 65.3679 165.853 65.1673 166.027 65.0004C166.205 64.8335 166.416 64.75 166.661 64.75C166.906 64.75 167.115 64.8335 167.289 65.0004C167.467 65.1673 167.556 65.3679 167.556 65.6023C167.556 65.8366 167.467 66.0373 167.289 66.2042C167.115 66.3711 166.906 66.4545 166.661 66.4545ZM169.581 76V67.8182H170.796V69.0966H170.902C171.073 68.6598 171.348 68.3207 171.728 68.0792C172.108 67.8342 172.564 67.7116 173.097 67.7116C173.637 67.7116 174.086 67.8342 174.445 68.0792C174.807 68.3207 175.089 68.6598 175.291 69.0966H175.377C175.586 68.674 175.9 68.3384 176.32 68.0898C176.739 67.8377 177.241 67.7116 177.827 67.7116C178.559 67.7116 179.157 67.9407 179.622 68.3988C180.087 68.8533 180.32 69.5618 180.32 70.5241V76H179.063V70.5241C179.063 69.9205 178.898 69.489 178.567 69.2298C178.237 68.9705 177.848 68.8409 177.401 68.8409C176.826 68.8409 176.38 69.0149 176.064 69.3629C175.748 69.7074 175.59 70.1442 175.59 70.6733V76H174.311V70.3963C174.311 69.9311 174.16 69.5565 173.859 69.2724C173.557 68.9847 173.168 68.8409 172.692 68.8409C172.365 68.8409 172.06 68.9279 171.776 69.1019C171.495 69.2759 171.268 69.5174 171.094 69.8263C170.924 70.1317 170.838 70.4851 170.838 70.8864V76H169.581ZM186.049 76.1705C185.26 76.1705 184.58 75.9964 184.009 75.6484C183.44 75.2969 183.002 74.8068 182.693 74.1783C182.388 73.5462 182.235 72.8111 182.235 71.973C182.235 71.1349 182.388 70.3963 182.693 69.7571C183.002 69.1143 183.432 68.6136 183.982 68.255C184.536 67.8928 185.182 67.7116 185.921 67.7116C186.347 67.7116 186.768 67.7827 187.183 67.9247C187.599 68.0668 187.977 68.2976 188.318 68.6172C188.659 68.9332 188.93 69.3523 189.133 69.8743C189.335 70.3963 189.437 71.0391 189.437 71.8026V72.3352H183.13V71.2486H188.158C188.158 70.7869 188.066 70.375 187.881 70.0128C187.7 69.6506 187.441 69.3647 187.103 69.1552C186.77 68.9457 186.375 68.8409 185.921 68.8409C185.42 68.8409 184.987 68.9652 184.621 69.2138C184.259 69.4588 183.98 69.7784 183.785 70.1726C183.59 70.5668 183.492 70.9893 183.492 71.4403V72.1648C183.492 72.7827 183.598 73.3065 183.812 73.7362C184.028 74.1623 184.328 74.4872 184.712 74.7109C185.095 74.9311 185.541 75.0412 186.049 75.0412C186.379 75.0412 186.677 74.995 186.944 74.9027C187.214 74.8068 187.446 74.6648 187.641 74.4766C187.837 74.2848 187.988 74.0469 188.094 73.7628L189.309 74.1037C189.181 74.5156 188.966 74.8778 188.664 75.1903C188.362 75.4993 187.989 75.7408 187.546 75.9148C187.102 76.0852 186.603 76.1705 186.049 76.1705ZM197.975 76.1918C197.457 76.1918 196.986 76.0941 196.564 75.8988C196.141 75.6999 195.805 75.4141 195.557 75.0412C195.308 74.6648 195.184 74.2102 195.184 73.6776C195.184 73.2088 195.276 72.8288 195.461 72.5376C195.646 72.2429 195.892 72.0121 196.201 71.8452C196.51 71.6783 196.851 71.554 197.224 71.4723C197.601 71.3871 197.979 71.3196 198.359 71.2699C198.856 71.206 199.259 71.158 199.568 71.1261C199.88 71.0906 200.108 71.032 200.25 70.9503C200.395 70.8686 200.468 70.7266 200.468 70.5241V70.4815C200.468 69.956 200.324 69.5476 200.037 69.2564C199.753 68.9652 199.321 68.8196 198.742 68.8196C198.142 68.8196 197.672 68.951 197.331 69.2138C196.99 69.4766 196.75 69.7571 196.612 70.0554L195.418 69.6293C195.631 69.1321 195.916 68.745 196.271 68.468C196.629 68.1875 197.02 67.9922 197.443 67.8821C197.869 67.7685 198.288 67.7116 198.7 67.7116C198.962 67.7116 199.264 67.7436 199.605 67.8075C199.95 67.8679 200.282 67.994 200.601 68.1857C200.924 68.3775 201.193 68.6669 201.406 69.054C201.619 69.4411 201.725 69.9595 201.725 70.6094V76H200.468V74.892H200.404C200.319 75.0696 200.177 75.2596 199.978 75.462C199.779 75.6644 199.515 75.8366 199.184 75.9787C198.854 76.1207 198.451 76.1918 197.975 76.1918ZM198.167 75.0625C198.664 75.0625 199.083 74.9648 199.424 74.7695C199.769 74.5742 200.028 74.3221 200.202 74.0131C200.379 73.7042 200.468 73.3793 200.468 73.0384V71.8878C200.415 71.9517 200.298 72.0103 200.117 72.0636C199.939 72.1133 199.733 72.1577 199.499 72.1967C199.268 72.2322 199.042 72.2642 198.822 72.2926C198.606 72.3175 198.43 72.3388 198.295 72.3565C197.968 72.3991 197.663 72.4684 197.379 72.5643C197.098 72.6566 196.871 72.7969 196.697 72.9851C196.526 73.1697 196.441 73.4219 196.441 73.7415C196.441 74.1783 196.603 74.5085 196.926 74.7322C197.253 74.9524 197.666 75.0625 198.167 75.0625ZM207.344 76.1705C206.577 76.1705 205.916 75.9893 205.362 75.6271C204.808 75.2649 204.382 74.766 204.084 74.1303C203.785 73.4947 203.636 72.7685 203.636 71.9517C203.636 71.1207 203.789 70.3874 204.094 69.7518C204.403 69.1126 204.833 68.6136 205.383 68.255C205.937 67.8928 206.584 67.7116 207.322 67.7116C207.898 67.7116 208.416 67.8182 208.878 68.0312C209.339 68.2443 209.718 68.5426 210.012 68.9261C210.307 69.3097 210.49 69.7571 210.561 70.2685H209.304C209.208 69.8956 208.995 69.5653 208.665 69.2777C208.338 68.9865 207.898 68.8409 207.344 68.8409C206.854 68.8409 206.424 68.9687 206.055 69.2244C205.689 69.4766 205.403 69.8335 205.197 70.2951C204.994 70.7532 204.893 71.2912 204.893 71.9091C204.893 72.5412 204.993 73.0916 205.192 73.5604C205.394 74.0291 205.678 74.3931 206.044 74.6523C206.413 74.9116 206.846 75.0412 207.344 75.0412C207.67 75.0412 207.967 74.9844 208.233 74.8707C208.499 74.7571 208.725 74.5938 208.91 74.3807C209.094 74.1676 209.226 73.9119 209.304 73.6136H210.561C210.49 74.0966 210.314 74.5316 210.034 74.9187C209.757 75.3022 209.389 75.6076 208.931 75.8349C208.476 76.0586 207.947 76.1705 207.344 76.1705ZM215.722 76.1705C214.955 76.1705 214.295 75.9893 213.741 75.6271C213.187 75.2649 212.761 74.766 212.463 74.1303C212.164 73.4947 212.015 72.7685 212.015 71.9517C212.015 71.1207 212.168 70.3874 212.473 69.7518C212.782 69.1126 213.212 68.6136 213.762 68.255C214.316 67.8928 214.963 67.7116 215.701 67.7116C216.276 67.7116 216.795 67.8182 217.257 68.0312C217.718 68.2443 218.096 68.5426 218.391 68.9261C218.686 69.3097 218.869 69.7571 218.94 70.2685H217.683C217.587 69.8956 217.374 69.5653 217.044 69.2777C216.717 68.9865 216.276 68.8409 215.722 68.8409C215.232 68.8409 214.803 68.9687 214.433 69.2244C214.068 69.4766 213.782 69.8335 213.576 70.2951C213.373 70.7532 213.272 71.2912 213.272 71.9091C213.272 72.5412 213.372 73.0916 213.57 73.5604C213.773 74.0291 214.057 74.3931 214.423 74.6523C214.792 74.9116 215.225 75.0412 215.722 75.0412C216.049 75.0412 216.346 74.9844 216.612 74.8707C216.878 74.7571 217.104 74.5938 217.289 74.3807C217.473 74.1676 217.605 73.9119 217.683 73.6136H218.94C218.869 74.0966 218.693 74.5316 218.412 74.9187C218.135 75.3022 217.768 75.6076 217.31 75.8349C216.855 76.0586 216.326 76.1705 215.722 76.1705ZM224.208 76.1705C223.42 76.1705 222.74 75.9964 222.168 75.6484C221.6 75.2969 221.161 74.8068 220.852 74.1783C220.547 73.5462 220.394 72.8111 220.394 71.973C220.394 71.1349 220.547 70.3963 220.852 69.7571C221.161 69.1143 221.591 68.6136 222.141 68.255C222.695 67.8928 223.341 67.7116 224.08 67.7116C224.506 67.7116 224.927 67.7827 225.343 67.9247C225.758 68.0668 226.136 68.2976 226.477 68.6172C226.818 68.9332 227.09 69.3523 227.292 69.8743C227.494 70.3963 227.596 71.0391 227.596 71.8026V72.3352H221.289V71.2486H226.317C226.317 70.7869 226.225 70.375 226.04 70.0128C225.859 69.6506 225.6 69.3647 225.263 69.1552C224.929 68.9457 224.535 68.8409 224.08 68.8409C223.579 68.8409 223.146 68.9652 222.78 69.2138C222.418 69.4588 222.139 69.7784 221.944 70.1726C221.749 70.5668 221.651 70.9893 221.651 71.4403V72.1648C221.651 72.7827 221.758 73.3065 221.971 73.7362C222.187 74.1623 222.487 74.4872 222.871 74.7109C223.254 74.9311 223.7 75.0412 224.208 75.0412C224.538 75.0412 224.836 74.995 225.103 74.9027C225.373 74.8068 225.605 74.6648 225.801 74.4766C225.996 74.2848 226.147 74.0469 226.253 73.7628L227.468 74.1037C227.34 74.5156 227.125 74.8778 226.823 75.1903C226.521 75.4993 226.149 75.7408 225.705 75.9148C225.261 76.0852 224.762 76.1705 224.208 76.1705ZM235.303 69.6506L234.174 69.9702C234.103 69.782 233.998 69.5991 233.86 69.4215C233.725 69.2404 233.54 69.0913 233.306 68.9741C233.072 68.8569 232.771 68.7983 232.406 68.7983C231.905 68.7983 231.488 68.9137 231.154 69.1445C230.824 69.3718 230.659 69.6612 230.659 70.0128C230.659 70.3253 230.772 70.5721 230.999 70.7532C231.227 70.9343 231.582 71.0852 232.065 71.206L233.279 71.5043C234.011 71.6818 234.556 71.9535 234.915 72.3192C235.273 72.6815 235.453 73.1484 235.453 73.7202C235.453 74.1889 235.318 74.608 235.048 74.9773C234.781 75.3466 234.409 75.6378 233.929 75.8509C233.45 76.0639 232.892 76.1705 232.257 76.1705C231.422 76.1705 230.731 75.9893 230.184 75.6271C229.638 75.2649 229.291 74.7358 229.146 74.0398L230.339 73.7415C230.453 74.1818 230.667 74.5121 230.983 74.7322C231.303 74.9524 231.72 75.0625 232.235 75.0625C232.821 75.0625 233.286 74.9382 233.631 74.6896C233.979 74.4375 234.153 74.1357 234.153 73.7841C234.153 73.5 234.053 73.2621 233.855 73.0703C233.656 72.875 233.35 72.7294 232.938 72.6335L231.575 72.3139C230.825 72.1364 230.275 71.8612 229.923 71.4883C229.575 71.1119 229.401 70.6413 229.401 70.0767C229.401 69.6151 229.531 69.2067 229.79 68.8516C230.053 68.4964 230.41 68.2177 230.861 68.0153C231.316 67.8129 231.83 67.7116 232.406 67.7116C233.215 67.7116 233.851 67.8892 234.313 68.2443C234.778 68.5994 235.108 69.0682 235.303 69.6506ZM243.14 69.6506L242.011 69.9702C241.94 69.782 241.835 69.5991 241.697 69.4215C241.562 69.2404 241.377 69.0913 241.143 68.9741C240.908 68.8569 240.608 68.7983 240.243 68.7983C239.742 68.7983 239.325 68.9137 238.991 69.1445C238.661 69.3718 238.495 69.6612 238.495 70.0128C238.495 70.3253 238.609 70.5721 238.836 70.7532C239.064 70.9343 239.419 71.0852 239.902 71.206L241.116 71.5043C241.848 71.6818 242.393 71.9535 242.752 72.3192C243.11 72.6815 243.29 73.1484 243.29 73.7202C243.29 74.1889 243.155 74.608 242.885 74.9773C242.618 75.3466 242.245 75.6378 241.766 75.8509C241.287 76.0639 240.729 76.1705 240.093 76.1705C239.259 76.1705 238.568 75.9893 238.021 75.6271C237.475 75.2649 237.128 74.7358 236.983 74.0398L238.176 73.7415C238.29 74.1818 238.504 74.5121 238.82 74.7322C239.14 74.9524 239.557 75.0625 240.072 75.0625C240.658 75.0625 241.123 74.9382 241.468 74.6896C241.816 74.4375 241.99 74.1357 241.99 73.7841C241.99 73.5 241.89 73.2621 241.691 73.0703C241.493 72.875 241.187 72.7294 240.775 72.6335L239.412 72.3139C238.662 72.1364 238.112 71.8612 237.76 71.4883C237.412 71.1119 237.238 70.6413 237.238 70.0767C237.238 69.6151 237.368 69.2067 237.627 68.8516C237.89 68.4964 238.247 68.2177 238.698 68.0153C239.152 67.8129 239.667 67.7116 240.243 67.7116C241.052 67.7116 241.688 67.8892 242.15 68.2443C242.615 68.5994 242.945 69.0682 243.14 69.6506Z" fill="#43505B"/>
</svg>
