<svg width="215" height="82" viewBox="0 0 215 82" fill="none" xmlns="http://www.w3.org/2000/svg">
<path d="M6.36364 20H1.43466V5.45455H6.46307C7.9072 5.45455 9.14773 5.74574 10.1847 6.32812C11.2263 6.90578 12.0265 7.73674 12.5852 8.82102C13.1439 9.9053 13.4233 11.2027 13.4233 12.7131C13.4233 14.2282 13.1416 15.5303 12.5781 16.6193C12.0194 17.7083 11.2121 18.544 10.1562 19.1264C9.10511 19.7088 7.84091 20 6.36364 20ZM4.0696 17.7202H6.2358C7.24905 17.7202 8.09422 17.5355 8.77131 17.1662C9.44839 16.7921 9.95739 16.2358 10.2983 15.4972C10.6392 14.7538 10.8097 13.8258 10.8097 12.7131C10.8097 11.6004 10.6392 10.6771 10.2983 9.94318C9.95739 9.20455 9.45313 8.65294 8.78551 8.28835C8.12263 7.91903 7.29877 7.73438 6.31392 7.73438H4.0696V17.7202ZM20.5717 20.2131C19.5064 20.2131 18.5831 19.9787 17.8018 19.5099C17.0206 19.0412 16.4145 18.3854 15.9837 17.5426C15.5575 16.6998 15.3445 15.715 15.3445 14.5881C15.3445 13.4612 15.5575 12.474 15.9837 11.6264C16.4145 10.7789 17.0206 10.1207 17.8018 9.65199C18.5831 9.18324 19.5064 8.94886 20.5717 8.94886C21.6371 8.94886 22.5604 9.18324 23.3416 9.65199C24.1229 10.1207 24.7266 10.7789 25.1527 11.6264C25.5836 12.474 25.799 13.4612 25.799 14.5881C25.799 15.715 25.5836 16.6998 25.1527 17.5426C24.7266 18.3854 24.1229 19.0412 23.3416 19.5099C22.5604 19.9787 21.6371 20.2131 20.5717 20.2131ZM20.5859 18.1534C21.1636 18.1534 21.6465 17.9948 22.0348 17.6776C22.4231 17.3556 22.7119 16.9247 22.9013 16.3849C23.0954 15.8452 23.1925 15.2438 23.1925 14.581C23.1925 13.9134 23.0954 13.3097 22.9013 12.7699C22.7119 12.2254 22.4231 11.7921 22.0348 11.4702C21.6465 11.1482 21.1636 10.9872 20.5859 10.9872C19.9941 10.9872 19.5017 11.1482 19.1087 11.4702C18.7204 11.7921 18.4292 12.2254 18.2351 12.7699C18.0457 13.3097 17.951 13.9134 17.951 14.581C17.951 15.2438 18.0457 15.8452 18.2351 16.3849C18.4292 16.9247 18.7204 17.3556 19.1087 17.6776C19.5017 17.9948 19.9941 18.1534 20.5859 18.1534ZM29.9201 20L26.8377 9.09091H29.4585L31.3761 16.7614H31.4755L33.4357 9.09091H36.0281L37.9883 16.7188H38.0948L39.984 9.09091H42.6119L39.5224 20H36.8448L34.7994 12.6278H34.6502L32.6048 20H29.9201ZM46.978 13.608V20H44.407V9.09091H46.8643V10.9446H46.9922C47.2431 10.3338 47.6432 9.84848 48.1925 9.48864C48.7464 9.12879 49.4306 8.94886 50.245 8.94886C50.9979 8.94886 51.6536 9.10985 52.2124 9.43182C52.7758 9.75379 53.2114 10.2202 53.5192 10.831C53.8317 11.4418 53.9856 12.1828 53.9808 13.054V20H51.4098V13.4517C51.4098 12.7225 51.2204 12.152 50.8416 11.7401C50.4676 11.3281 49.9491 11.1222 49.2862 11.1222C48.8364 11.1222 48.4363 11.2216 48.0859 11.4205C47.7403 11.6146 47.468 11.8963 47.2692 12.2656C47.075 12.6349 46.978 13.0824 46.978 13.608ZM59.1655 5.45455V20H56.5945V5.45455H59.1655ZM66.5678 20.2131C65.5025 20.2131 64.5792 19.9787 63.7979 19.5099C63.0167 19.0412 62.4106 18.3854 61.9798 17.5426C61.5536 16.6998 61.3406 15.715 61.3406 14.5881C61.3406 13.4612 61.5536 12.474 61.9798 11.6264C62.4106 10.7789 63.0167 10.1207 63.7979 9.65199C64.5792 9.18324 65.5025 8.94886 66.5678 8.94886C67.6332 8.94886 68.5565 9.18324 69.3377 9.65199C70.119 10.1207 70.7227 10.7789 71.1488 11.6264C71.5797 12.474 71.7951 13.4612 71.7951 14.5881C71.7951 15.715 71.5797 16.6998 71.1488 17.5426C70.7227 18.3854 70.119 19.0412 69.3377 19.5099C68.5565 19.9787 67.6332 20.2131 66.5678 20.2131ZM66.582 18.1534C67.1597 18.1534 67.6426 17.9948 68.0309 17.6776C68.4192 17.3556 68.708 16.9247 68.8974 16.3849C69.0915 15.8452 69.1886 15.2438 69.1886 14.581C69.1886 13.9134 69.0915 13.3097 68.8974 12.7699C68.708 12.2254 68.4192 11.7921 68.0309 11.4702C67.6426 11.1482 67.1597 10.9872 66.582 10.9872C65.9902 10.9872 65.4978 11.1482 65.1048 11.4702C64.7165 11.7921 64.4253 12.2254 64.2312 12.7699C64.0418 13.3097 63.9471 13.9134 63.9471 14.581C63.9471 15.2438 64.0418 15.8452 64.2312 16.3849C64.4253 16.9247 64.7165 17.3556 65.1048 17.6776C65.4978 17.9948 65.9902 18.1534 66.582 18.1534ZM77.1165 20.2202C76.4252 20.2202 75.8026 20.0971 75.2486 19.8509C74.6993 19.5999 74.2637 19.2306 73.9418 18.7429C73.6245 18.2552 73.4659 17.6539 73.4659 16.9389C73.4659 16.3234 73.5795 15.8144 73.8068 15.4119C74.0341 15.0095 74.3442 14.6875 74.7372 14.446C75.1302 14.2045 75.5729 14.0223 76.0653 13.8991C76.5625 13.7713 77.0762 13.679 77.6065 13.6222C78.2457 13.5559 78.7642 13.4967 79.1619 13.4446C79.5597 13.3878 79.8485 13.3026 80.0284 13.1889C80.2131 13.0705 80.3054 12.8883 80.3054 12.642V12.5994C80.3054 12.0644 80.1468 11.6501 79.8295 11.3565C79.5123 11.063 79.0554 10.9162 78.4588 10.9162C77.8291 10.9162 77.3295 11.0535 76.9602 11.3281C76.5956 11.6027 76.3494 11.9271 76.2216 12.3011L73.821 11.9602C74.0104 11.2973 74.3229 10.7434 74.7585 10.2983C75.1941 9.84848 75.7268 9.51231 76.3565 9.28977C76.9863 9.0625 77.6823 8.94886 78.4446 8.94886C78.9702 8.94886 79.4934 9.01042 80.0142 9.13352C80.535 9.25663 81.0109 9.46023 81.4418 9.74432C81.8726 10.0237 82.2183 10.4048 82.4787 10.8878C82.7438 11.3707 82.8764 11.9744 82.8764 12.6989V20H80.4048V18.5014H80.3196C80.1634 18.8045 79.9432 19.0885 79.6591 19.3537C79.3797 19.6141 79.027 19.8248 78.6009 19.9858C78.1795 20.142 77.6847 20.2202 77.1165 20.2202ZM77.7841 18.331C78.3002 18.331 78.7476 18.2292 79.1264 18.0256C79.5052 17.8172 79.7964 17.5426 80 17.2017C80.2083 16.8608 80.3125 16.4891 80.3125 16.0866V14.8011C80.232 14.8674 80.0947 14.929 79.9006 14.9858C79.7112 15.0426 79.4981 15.0923 79.2614 15.1349C79.0246 15.1776 78.7902 15.2154 78.5582 15.2486C78.3262 15.2817 78.125 15.3101 77.9545 15.3338C77.571 15.3859 77.2277 15.4711 76.9247 15.5895C76.6217 15.7079 76.3826 15.8736 76.2074 16.0866C76.0322 16.295 75.9446 16.5649 75.9446 16.8963C75.9446 17.3698 76.1174 17.7273 76.4631 17.9688C76.8087 18.2102 77.2491 18.331 77.7841 18.331ZM89.5099 20.1918C88.6529 20.1918 87.8859 19.9716 87.2088 19.5312C86.5317 19.0909 85.9967 18.4517 85.6037 17.6136C85.2107 16.7756 85.0142 15.7576 85.0142 14.5597C85.0142 13.3475 85.2131 12.3248 85.6108 11.4915C86.0133 10.6534 86.5554 10.0213 87.2372 9.59517C87.919 9.1643 88.679 8.94886 89.517 8.94886C90.1563 8.94886 90.6818 9.05777 91.0938 9.27557C91.5057 9.48864 91.8324 9.74669 92.0739 10.0497C92.3153 10.348 92.5024 10.6297 92.6349 10.8949H92.7415V5.45455H95.3196V20H92.7912V18.2812H92.6349C92.5024 18.5464 92.3106 18.8281 92.0597 19.1264C91.8087 19.42 91.4773 19.6709 91.0653 19.8793C90.6534 20.0876 90.1349 20.1918 89.5099 20.1918ZM90.2273 18.0824C90.7718 18.0824 91.2358 17.9356 91.6193 17.642C92.0028 17.3437 92.294 16.9295 92.4929 16.3991C92.6918 15.8688 92.7912 15.2509 92.7912 14.5455C92.7912 13.84 92.6918 13.2268 92.4929 12.706C92.2988 12.1851 92.0099 11.7803 91.6264 11.4915C91.2476 11.2027 90.7813 11.0582 90.2273 11.0582C89.6544 11.0582 89.1761 11.2074 88.7926 11.5057C88.4091 11.804 88.1203 12.2159 87.9261 12.7415C87.732 13.267 87.6349 13.8684 87.6349 14.5455C87.6349 15.2273 87.732 15.8357 87.9261 16.3707C88.125 16.901 88.4162 17.3201 88.7997 17.6278C89.188 17.9309 89.6638 18.0824 90.2273 18.0824ZM101.199 20.2202C100.507 20.2202 99.8846 20.0971 99.3306 19.8509C98.7814 19.5999 98.3458 19.2306 98.0238 18.7429C97.7066 18.2552 97.5479 17.6539 97.5479 16.9389C97.5479 16.3234 97.6616 15.8144 97.8888 15.4119C98.1161 15.0095 98.4263 14.6875 98.8192 14.446C99.2122 14.2045 99.6549 14.0223 100.147 13.8991C100.645 13.7713 101.158 13.679 101.689 13.6222C102.328 13.5559 102.846 13.4967 103.244 13.4446C103.642 13.3878 103.931 13.3026 104.11 13.1889C104.295 13.0705 104.387 12.8883 104.387 12.642V12.5994C104.387 12.0644 104.229 11.6501 103.912 11.3565C103.594 11.063 103.137 10.9162 102.541 10.9162C101.911 10.9162 101.412 11.0535 101.042 11.3281C100.678 11.6027 100.431 11.9271 100.304 12.3011L97.9031 11.9602C98.0924 11.2973 98.4049 10.7434 98.8406 10.2983C99.2762 9.84848 99.8088 9.51231 100.439 9.28977C101.068 9.0625 101.764 8.94886 102.527 8.94886C103.052 8.94886 103.575 9.01042 104.096 9.13352C104.617 9.25663 105.093 9.46023 105.524 9.74432C105.955 10.0237 106.3 10.4048 106.561 10.8878C106.826 11.3707 106.958 11.9744 106.958 12.6989V20H104.487V18.5014H104.402C104.245 18.8045 104.025 19.0885 103.741 19.3537C103.462 19.6141 103.109 19.8248 102.683 19.9858C102.261 20.142 101.767 20.2202 101.199 20.2202ZM101.866 18.331C102.382 18.331 102.83 18.2292 103.208 18.0256C103.587 17.8172 103.878 17.5426 104.082 17.2017C104.29 16.8608 104.395 16.4891 104.395 16.0866V14.8011C104.314 14.8674 104.177 14.929 103.983 14.9858C103.793 15.0426 103.58 15.0923 103.343 15.1349C103.107 15.1776 102.872 15.2154 102.64 15.2486C102.408 15.2817 102.207 15.3101 102.037 15.3338C101.653 15.3859 101.31 15.4711 101.007 15.5895C100.704 15.7079 100.465 15.8736 100.289 16.0866C100.114 16.295 100.027 16.5649 100.027 16.8963C100.027 17.3698 100.199 17.7273 100.545 17.9688C100.891 18.2102 101.331 18.331 101.866 18.331ZM109.657 20V5.45455H112.228V10.8949H112.335C112.467 10.6297 112.654 10.348 112.896 10.0497C113.137 9.74669 113.464 9.48864 113.876 9.27557C114.288 9.05777 114.814 8.94886 115.453 8.94886C116.296 8.94886 117.056 9.1643 117.733 9.59517C118.414 10.0213 118.954 10.6534 119.352 11.4915C119.754 12.3248 119.956 13.3475 119.956 14.5597C119.956 15.7576 119.759 16.7756 119.366 17.6136C118.973 18.4517 118.438 19.0909 117.761 19.5312C117.084 19.9716 116.317 20.1918 115.46 20.1918C114.835 20.1918 114.316 20.0876 113.904 19.8793C113.493 19.6709 113.161 19.42 112.91 19.1264C112.664 18.8281 112.472 18.5464 112.335 18.2812H112.186V20H109.657ZM112.179 14.5455C112.179 15.2509 112.278 15.8688 112.477 16.3991C112.681 16.9295 112.972 17.3437 113.35 17.642C113.734 17.9356 114.198 18.0824 114.743 18.0824C115.311 18.0824 115.787 17.9309 116.17 17.6278C116.554 17.3201 116.842 16.901 117.037 16.3707C117.235 15.8357 117.335 15.2273 117.335 14.5455C117.335 13.8684 117.238 13.267 117.044 12.7415C116.85 12.2159 116.561 11.804 116.177 11.5057C115.794 11.2074 115.315 11.0582 114.743 11.0582C114.193 11.0582 113.727 11.2027 113.343 11.4915C112.96 11.7803 112.669 12.1851 112.47 12.706C112.276 13.2268 112.179 13.84 112.179 14.5455ZM124.712 5.45455V20H122.141V5.45455H124.712ZM132.186 20.2131C131.092 20.2131 130.147 19.9858 129.352 19.5312C128.561 19.072 127.953 18.4233 127.527 17.5852C127.1 16.7424 126.887 15.7505 126.887 14.6094C126.887 13.4872 127.1 12.5024 127.527 11.6548C127.958 10.8026 128.559 10.1397 129.331 9.66619C130.102 9.18797 131.009 8.94886 132.051 8.94886C132.723 8.94886 133.358 9.05777 133.954 9.27557C134.556 9.48864 135.086 9.82008 135.545 10.2699C136.009 10.7197 136.374 11.2926 136.639 11.9886C136.904 12.6799 137.037 13.5038 137.037 14.4602V15.2486H128.095V13.5156H134.572C134.567 13.0232 134.461 12.5852 134.252 12.2017C134.044 11.8134 133.753 11.508 133.379 11.2855C133.01 11.063 132.579 10.9517 132.086 10.9517C131.561 10.9517 131.099 11.0795 130.701 11.3352C130.304 11.5862 129.993 11.9176 129.771 12.3295C129.553 12.7367 129.442 13.1842 129.437 13.6719V15.1847C129.437 15.8191 129.553 16.3636 129.785 16.8182C130.017 17.268 130.342 17.6136 130.758 17.8551C131.175 18.0919 131.663 18.2102 132.221 18.2102C132.595 18.2102 132.934 18.1581 133.237 18.054C133.54 17.9451 133.803 17.7865 134.025 17.5781C134.248 17.3698 134.416 17.1117 134.529 16.804L136.93 17.0739C136.779 17.7083 136.49 18.2623 136.064 18.7358C135.642 19.2045 135.102 19.5691 134.444 19.8295C133.786 20.0852 133.033 20.2131 132.186 20.2131ZM13.8849 36.3622H11.2287C11.1529 35.9266 11.0133 35.5407 10.8097 35.2045C10.6061 34.8636 10.3527 34.5748 10.0497 34.3381C9.74669 34.1013 9.40104 33.9238 9.01278 33.8054C8.62926 33.6823 8.21496 33.6207 7.76989 33.6207C6.97917 33.6207 6.27841 33.8196 5.66761 34.2173C5.05682 34.6103 4.5786 35.188 4.23295 35.9503C3.88731 36.7079 3.71449 37.6335 3.71449 38.7273C3.71449 39.84 3.88731 40.7775 4.23295 41.5398C4.58333 42.2973 5.06155 42.8703 5.66761 43.2585C6.27841 43.642 6.9768 43.8338 7.76278 43.8338C8.19839 43.8338 8.60559 43.777 8.98438 43.6634C9.3679 43.545 9.71117 43.3722 10.0142 43.1449C10.322 42.9176 10.58 42.6383 10.7884 42.3068C11.0014 41.9754 11.1482 41.5966 11.2287 41.1705L13.8849 41.1847C13.7855 41.8759 13.5701 42.5246 13.2386 43.1307C12.9119 43.7367 12.4834 44.2718 11.9531 44.7358C11.4228 45.1951 10.8026 45.5549 10.0923 45.8153C9.3821 46.071 8.59375 46.1989 7.72727 46.1989C6.44886 46.1989 5.30777 45.9029 4.30398 45.3111C3.30019 44.7192 2.50947 43.8646 1.93182 42.7472C1.35417 41.6297 1.06534 40.2898 1.06534 38.7273C1.06534 37.16 1.35653 35.8201 1.93892 34.7074C2.52131 33.59 3.31439 32.7353 4.31818 32.1435C5.32197 31.5516 6.45833 31.2557 7.72727 31.2557C8.53693 31.2557 9.28977 31.3693 9.9858 31.5966C10.6818 31.8239 11.3021 32.1577 11.8466 32.598C12.3911 33.0336 12.8385 33.5687 13.1889 34.2031C13.544 34.8329 13.776 35.5526 13.8849 36.3622ZM20.9428 46.2131C19.8775 46.2131 18.9542 45.9787 18.1729 45.5099C17.3917 45.0412 16.7856 44.3854 16.3548 43.5426C15.9286 42.6998 15.7156 41.715 15.7156 40.5881C15.7156 39.4612 15.9286 38.474 16.3548 37.6264C16.7856 36.7789 17.3917 36.1207 18.1729 35.652C18.9542 35.1832 19.8775 34.9489 20.9428 34.9489C22.0082 34.9489 22.9315 35.1832 23.7127 35.652C24.494 36.1207 25.0977 36.7789 25.5238 37.6264C25.9547 38.474 26.1701 39.4612 26.1701 40.5881C26.1701 41.715 25.9547 42.6998 25.5238 43.5426C25.0977 44.3854 24.494 45.0412 23.7127 45.5099C22.9315 45.9787 22.0082 46.2131 20.9428 46.2131ZM20.957 44.1534C21.5347 44.1534 22.0176 43.9948 22.4059 43.6776C22.7942 43.3556 23.083 42.9247 23.2724 42.3849C23.4665 41.8452 23.5636 41.2438 23.5636 40.581C23.5636 39.9134 23.4665 39.3097 23.2724 38.7699C23.083 38.2254 22.7942 37.7921 22.4059 37.4702C22.0176 37.1482 21.5347 36.9872 20.957 36.9872C20.3652 36.9872 19.8728 37.1482 19.4798 37.4702C19.0915 37.7921 18.8003 38.2254 18.6062 38.7699C18.4168 39.3097 18.3221 39.9134 18.3221 40.581C18.3221 41.2438 18.4168 41.8452 18.6062 42.3849C18.8003 42.9247 19.0915 43.3556 19.4798 43.6776C19.8728 43.9948 20.3652 44.1534 20.957 44.1534ZM30.9233 39.608V46H28.3523V35.0909H30.8097V36.9446H30.9375C31.1884 36.3338 31.5885 35.8485 32.1378 35.4886C32.6918 35.1288 33.3759 34.9489 34.1903 34.9489C34.9432 34.9489 35.599 35.1098 36.1577 35.4318C36.7211 35.7538 37.1567 36.2202 37.4645 36.831C37.777 37.4418 37.9309 38.1828 37.9261 39.054V46H35.3551V39.4517C35.3551 38.7225 35.1657 38.152 34.7869 37.7401C34.4129 37.3281 33.8944 37.1222 33.2315 37.1222C32.7817 37.1222 32.3816 37.2216 32.0312 37.4205C31.6856 37.6146 31.4134 37.8963 31.2145 38.2656C31.0204 38.6349 30.9233 39.0824 30.9233 39.608ZM45.9872 35.0909V37.0795H39.7159V35.0909H45.9872ZM41.2642 32.4773H43.8352V42.7188C43.8352 43.0644 43.8873 43.3295 43.9915 43.5142C44.1004 43.6941 44.2424 43.8172 44.4176 43.8835C44.5928 43.9498 44.7869 43.983 45 43.983C45.161 43.983 45.3078 43.9711 45.4403 43.9474C45.5777 43.9238 45.6818 43.9025 45.7528 43.8835L46.1861 45.8935C46.0488 45.9408 45.8523 45.9929 45.5966 46.0497C45.3456 46.1065 45.0379 46.1397 44.6733 46.1491C44.0294 46.1681 43.4493 46.071 42.9332 45.858C42.4171 45.6402 42.0076 45.304 41.7045 44.8494C41.4063 44.3949 41.2595 43.8267 41.2642 43.1449V32.4773ZM52.8498 46.2131C51.756 46.2131 50.8114 45.9858 50.016 45.5312C49.2253 45.072 48.6168 44.4233 48.1907 43.5852C47.7646 42.7424 47.5515 41.7505 47.5515 40.6094C47.5515 39.4872 47.7646 38.5024 48.1907 37.6548C48.6216 36.8026 49.2229 36.1397 49.9947 35.6662C50.7665 35.188 51.6732 34.9489 52.7148 34.9489C53.3872 34.9489 54.0217 35.0578 54.6183 35.2756C55.2196 35.4886 55.7499 35.8201 56.2092 36.2699C56.6732 36.7197 57.0378 37.2926 57.3029 37.9886C57.5681 38.6799 57.7006 39.5038 57.7006 40.4602V41.2486H48.7589V39.5156H55.2362C55.2314 39.0232 55.1249 38.5852 54.9165 38.2017C54.7082 37.8134 54.417 37.508 54.043 37.2855C53.6737 37.063 53.2428 36.9517 52.7504 36.9517C52.2248 36.9517 51.7631 37.0795 51.3654 37.3352C50.9677 37.5862 50.6576 37.9176 50.435 38.3295C50.2172 38.7367 50.1059 39.1842 50.1012 39.6719V41.1847C50.1012 41.8191 50.2172 42.3636 50.4492 42.8182C50.6812 43.268 51.0056 43.6136 51.4222 43.8551C51.8389 44.0919 52.3266 44.2102 52.8853 44.2102C53.2594 44.2102 53.5979 44.1581 53.9009 44.054C54.204 43.9451 54.4667 43.7865 54.6893 43.5781C54.9118 43.3698 55.0799 43.1117 55.1935 42.804L57.5941 43.0739C57.4426 43.7083 57.1538 44.2623 56.7276 44.7358C56.3062 45.2045 55.7665 45.5691 55.1083 45.8295C54.4502 46.0852 53.6973 46.2131 52.8498 46.2131ZM62.4467 39.608V46H59.8757V35.0909H62.3331V36.9446H62.4609C62.7119 36.3338 63.112 35.8485 63.6612 35.4886C64.2152 35.1288 64.8994 34.9489 65.7138 34.9489C66.4666 34.9489 67.1224 35.1098 67.6811 35.4318C68.2446 35.7538 68.6802 36.2202 68.9879 36.831C69.3004 37.4418 69.4543 38.1828 69.4496 39.054V46H66.8786V39.4517C66.8786 38.7225 66.6892 38.152 66.3104 37.7401C65.9363 37.3281 65.4179 37.1222 64.755 37.1222C64.3052 37.1222 63.9051 37.2216 63.5547 37.4205C63.209 37.6146 62.9368 37.8963 62.7379 38.2656C62.5438 38.6349 62.4467 39.0824 62.4467 39.608ZM77.5107 35.0909V37.0795H71.2393V35.0909H77.5107ZM72.7876 32.4773H75.3587V42.7188C75.3587 43.0644 75.4107 43.3295 75.5149 43.5142C75.6238 43.6941 75.7659 43.8172 75.9411 43.8835C76.1162 43.9498 76.3104 43.983 76.5234 43.983C76.6844 43.983 76.8312 43.9711 76.9638 43.9474C77.1011 43.9238 77.2053 43.9025 77.2763 43.8835L77.7095 45.8935C77.5722 45.9408 77.3757 45.9929 77.12 46.0497C76.8691 46.1065 76.5613 46.1397 76.1967 46.1491C75.5528 46.1681 74.9728 46.071 74.4567 45.858C73.9406 45.6402 73.531 45.304 73.228 44.8494C72.9297 44.3949 72.7829 43.8267 72.7876 43.1449V32.4773Z" fill="#0A2134"/>
<path d="M3.30256 76L0.319602 65.0909H1.66193L3.94176 73.9759H4.0483L6.37074 65.0909H7.86222L10.1847 73.9759H10.2912L12.571 65.0909H13.9134L10.9304 76H9.56676L7.15909 67.3068H7.07386L4.66619 76H3.30256ZM15.3888 76V67.8182H16.646V76H15.3888ZM16.0281 66.4545C15.783 66.4545 15.5717 66.3711 15.3942 66.2042C15.2202 66.0373 15.1332 65.8366 15.1332 65.6023C15.1332 65.3679 15.2202 65.1673 15.3942 65.0004C15.5717 64.8335 15.783 64.75 16.0281 64.75C16.2731 64.75 16.4826 64.8335 16.6566 65.0004C16.8342 65.1673 16.9229 65.3679 16.9229 65.6023C16.9229 65.8366 16.8342 66.0373 16.6566 66.2042C16.4826 66.3711 16.2731 66.4545 16.0281 66.4545ZM22.5067 67.8182V68.8835H18.2666V67.8182H22.5067ZM19.5024 65.858H20.7595V73.6562C20.7595 74.0114 20.811 74.2777 20.914 74.4553C21.0205 74.6293 21.1555 74.7464 21.3188 74.8068C21.4857 74.8636 21.6615 74.892 21.8461 74.892C21.9846 74.892 22.0983 74.8849 22.1871 74.8707C22.2758 74.853 22.3469 74.8388 22.4001 74.8281L22.6558 75.9574C22.5706 75.9893 22.4516 76.0213 22.2989 76.0533C22.1462 76.0888 21.9527 76.1065 21.7183 76.1065C21.3632 76.1065 21.0152 76.0302 20.6743 75.8775C20.3369 75.7248 20.0564 75.4922 19.8327 75.1797C19.6125 74.8672 19.5024 74.473 19.5024 73.9972V65.858ZM25.8305 71.0781V76H24.5734V65.0909H25.8305V69.0966H25.9371C26.1288 68.674 26.4165 68.3384 26.8 68.0898C27.1871 67.8377 27.702 67.7116 28.3447 67.7116C28.9023 67.7116 29.3905 67.8235 29.8096 68.0472C30.2286 68.2674 30.5535 68.6065 30.7844 69.0646C31.0187 69.5192 31.1359 70.098 31.1359 70.8011V76H29.8788V70.8864C29.8788 70.2365 29.7101 69.734 29.3728 69.3789C29.039 69.0202 28.5756 68.8409 27.9825 68.8409C27.5706 68.8409 27.2013 68.9279 26.8746 69.1019C26.5514 69.2759 26.2957 69.5298 26.1075 69.8636C25.9229 70.1974 25.8305 70.6023 25.8305 71.0781ZM38.9116 65.0909V76H37.6545V65.0909H38.9116ZM41.214 76V67.8182H42.4711V76H41.214ZM41.8532 66.4545C41.6082 66.4545 41.3969 66.3711 41.2194 66.2042C41.0454 66.0373 40.9584 65.8366 40.9584 65.6023C40.9584 65.3679 41.0454 65.1673 41.2194 65.0004C41.3969 64.8335 41.6082 64.75 41.8532 64.75C42.0983 64.75 42.3078 64.8335 42.4818 65.0004C42.6594 65.1673 42.7481 65.3679 42.7481 65.6023C42.7481 65.8366 42.6594 66.0373 42.4818 66.2042C42.3078 66.3711 42.0983 66.4545 41.8532 66.4545ZM48.4171 67.8182V68.8835H44.0066V67.8182H48.4171ZM45.3276 76V66.6889C45.3276 66.2202 45.4377 65.8295 45.6578 65.517C45.878 65.2045 46.1639 64.9702 46.5154 64.8139C46.867 64.6577 47.2381 64.5795 47.6287 64.5795C47.9377 64.5795 48.1898 64.6044 48.3851 64.6541C48.5804 64.7038 48.726 64.75 48.8219 64.7926L48.4597 65.8793C48.3958 65.858 48.307 65.8313 48.1934 65.7994C48.0833 65.7674 47.9377 65.7514 47.7566 65.7514C47.3411 65.7514 47.041 65.8562 46.8564 66.0657C46.6752 66.2752 46.5847 66.5824 46.5847 66.9872V76H45.3276ZM53.2724 76.1705C52.484 76.1705 51.804 75.9964 51.2322 75.6484C50.6641 75.2969 50.2255 74.8068 49.9165 74.1783C49.6112 73.5462 49.4585 72.8111 49.4585 71.973C49.4585 71.1349 49.6112 70.3963 49.9165 69.7571C50.2255 69.1143 50.6552 68.6136 51.2056 68.255C51.7596 67.8928 52.4059 67.7116 53.1445 67.7116C53.5707 67.7116 53.9915 67.7827 54.407 67.9247C54.8224 68.0668 55.2006 68.2976 55.5415 68.6172C55.8825 68.9332 56.1541 69.3523 56.3565 69.8743C56.5589 70.3963 56.6602 71.0391 56.6602 71.8026V72.3352H50.3533V71.2486H55.3817C55.3817 70.7869 55.2894 70.375 55.1048 70.0128C54.9237 69.6506 54.6644 69.3647 54.3271 69.1552C53.9933 68.9457 53.5991 68.8409 53.1445 68.8409C52.6438 68.8409 52.2106 68.9652 51.8448 69.2138C51.4826 69.4588 51.2038 69.7784 51.0085 70.1726C50.8132 70.5668 50.7156 70.9893 50.7156 71.4403V72.1648C50.7156 72.7827 50.8221 73.3065 51.0352 73.7362C51.2518 74.1623 51.5518 74.4872 51.9354 74.7109C52.3189 74.9311 52.7646 75.0412 53.2724 75.0412C53.6026 75.0412 53.9009 74.995 54.1673 74.9027C54.4371 74.8068 54.6697 74.6648 54.8651 74.4766C55.0604 74.2848 55.2113 74.0469 55.3178 73.7628L56.5323 74.1037C56.4045 74.5156 56.1896 74.8778 55.8878 75.1903C55.5859 75.4993 55.2131 75.7408 54.7692 75.9148C54.3253 76.0852 53.8263 76.1705 53.2724 76.1705ZM62.1307 67.8182V68.8835H57.8906V67.8182H62.1307ZM59.1264 65.858H60.3835V73.6562C60.3835 74.0114 60.435 74.2777 60.538 74.4553C60.6445 74.6293 60.7795 74.7464 60.9428 74.8068C61.1097 74.8636 61.2855 74.892 61.4702 74.892C61.6087 74.892 61.7223 74.8849 61.8111 74.8707C61.8999 74.853 61.9709 74.8388 62.0241 74.8281L62.2798 75.9574C62.1946 75.9893 62.0756 76.0213 61.9229 76.0533C61.7702 76.0888 61.5767 76.1065 61.3423 76.1065C60.9872 76.1065 60.6392 76.0302 60.2983 75.8775C59.9609 75.7248 59.6804 75.4922 59.4567 75.1797C59.2365 74.8672 59.1264 74.473 59.1264 73.9972V65.858ZM64.0217 76V67.8182H65.2788V76H64.0217ZM64.6609 66.4545C64.4158 66.4545 64.2045 66.3711 64.027 66.2042C63.853 66.0373 63.766 65.8366 63.766 65.6023C63.766 65.3679 63.853 65.1673 64.027 65.0004C64.2045 64.8335 64.4158 64.75 64.6609 64.75C64.9059 64.75 65.1154 64.8335 65.2894 65.0004C65.467 65.1673 65.5558 65.3679 65.5558 65.6023C65.5558 65.8366 65.467 66.0373 65.2894 66.2042C65.1154 66.3711 64.9059 66.4545 64.6609 66.4545ZM67.5812 76V67.8182H68.7957V69.0966H68.9023C69.0727 68.6598 69.3479 68.3207 69.7279 68.0792C70.1079 67.8342 70.5642 67.7116 71.0969 67.7116C71.6366 67.7116 72.0858 67.8342 72.4445 68.0792C72.8067 68.3207 73.089 68.6598 73.2915 69.0966H73.3767C73.5862 68.674 73.9005 68.3384 74.3195 68.0898C74.7385 67.8377 75.241 67.7116 75.827 67.7116C76.5585 67.7116 77.1569 67.9407 77.6221 68.3988C78.0873 68.8533 78.3199 69.5618 78.3199 70.5241V76H77.0628V70.5241C77.0628 69.9205 76.8976 69.489 76.5674 69.2298C76.2371 68.9705 75.8483 68.8409 75.4008 68.8409C74.8256 68.8409 74.3799 69.0149 74.0638 69.3629C73.7478 69.7074 73.5898 70.1442 73.5898 70.6733V76H72.3113V70.3963C72.3113 69.9311 72.1604 69.5565 71.8586 69.2724C71.5567 68.9847 71.1679 68.8409 70.692 68.8409C70.3653 68.8409 70.0599 68.9279 69.7758 69.1019C69.4953 69.2759 69.268 69.5174 69.094 69.8263C68.9236 70.1317 68.8383 70.4851 68.8383 70.8864V76H67.5812ZM84.0487 76.1705C83.2604 76.1705 82.5803 75.9964 82.0086 75.6484C81.4404 75.2969 81.0019 74.8068 80.6929 74.1783C80.3875 73.5462 80.2348 72.8111 80.2348 71.973C80.2348 71.1349 80.3875 70.3963 80.6929 69.7571C81.0019 69.1143 81.4316 68.6136 81.982 68.255C82.536 67.8928 83.1823 67.7116 83.9209 67.7116C84.347 67.7116 84.7678 67.7827 85.1833 67.9247C85.5988 68.0668 85.977 68.2976 86.3179 68.6172C86.6588 68.9332 86.9305 69.3523 87.1329 69.8743C87.3353 70.3963 87.4365 71.0391 87.4365 71.8026V72.3352H81.1297V71.2486H86.1581C86.1581 70.7869 86.0658 70.375 85.8811 70.0128C85.7 69.6506 85.4408 69.3647 85.1034 69.1552C84.7696 68.9457 84.3754 68.8409 83.9209 68.8409C83.4202 68.8409 82.9869 68.9652 82.6212 69.2138C82.259 69.4588 81.9802 69.7784 81.7849 70.1726C81.5896 70.5668 81.4919 70.9893 81.4919 71.4403V72.1648C81.4919 72.7827 81.5985 73.3065 81.8115 73.7362C82.0281 74.1623 82.3282 74.4872 82.7117 74.7109C83.0953 74.9311 83.5409 75.0412 84.0487 75.0412C84.379 75.0412 84.6773 74.995 84.9436 74.9027C85.2135 74.8068 85.4461 74.6648 85.6414 74.4766C85.8367 74.2848 85.9877 74.0469 86.0942 73.7628L87.3087 74.1037C87.1808 74.5156 86.966 74.8778 86.6642 75.1903C86.3623 75.4993 85.9894 75.7408 85.5455 75.9148C85.1017 76.0852 84.6027 76.1705 84.0487 76.1705ZM95.9752 76.1918C95.4568 76.1918 94.9862 76.0941 94.5637 75.8988C94.1411 75.6999 93.8055 75.4141 93.5569 75.0412C93.3083 74.6648 93.184 74.2102 93.184 73.6776C93.184 73.2088 93.2764 72.8288 93.461 72.5376C93.6457 72.2429 93.8925 72.0121 94.2014 71.8452C94.5104 71.6783 94.8513 71.554 95.2242 71.4723C95.6006 71.3871 95.9788 71.3196 96.3588 71.2699C96.8559 71.206 97.259 71.158 97.5679 71.1261C97.8804 71.0906 98.1077 71.032 98.2497 70.9503C98.3953 70.8686 98.4681 70.7266 98.4681 70.5241V70.4815C98.4681 69.956 98.3243 69.5476 98.0367 69.2564C97.7526 68.9652 97.3211 68.8196 96.7423 68.8196C96.1421 68.8196 95.6716 68.951 95.3307 69.2138C94.9898 69.4766 94.7501 69.7571 94.6116 70.0554L93.4184 69.6293C93.6315 69.1321 93.9156 68.745 94.2707 68.468C94.6294 68.1875 95.02 67.9922 95.4426 67.8821C95.8687 67.7685 96.2877 67.7116 96.6997 67.7116C96.9624 67.7116 97.2643 67.7436 97.6052 67.8075C97.9497 67.8679 98.2817 67.994 98.6013 68.1857C98.9244 68.3775 99.1926 68.6669 99.4056 69.054C99.6187 69.4411 99.7252 69.9595 99.7252 70.6094V76H98.4681V74.892H98.4042C98.319 75.0696 98.1769 75.2596 97.9781 75.462C97.7792 75.6644 97.5146 75.8366 97.1844 75.9787C96.8541 76.1207 96.4511 76.1918 95.9752 76.1918ZM96.167 75.0625C96.6642 75.0625 97.0832 74.9648 97.4241 74.7695C97.7686 74.5742 98.0278 74.3221 98.2018 74.0131C98.3794 73.7042 98.4681 73.3793 98.4681 73.0384V71.8878C98.4149 71.9517 98.2977 72.0103 98.1166 72.0636C97.939 72.1133 97.733 72.1577 97.4987 72.1967C97.2678 72.2322 97.0423 72.2642 96.8222 72.2926C96.6056 72.3175 96.4298 72.3388 96.2948 72.3565C95.9681 72.3991 95.6627 72.4684 95.3786 72.5643C95.0981 72.6566 94.8708 72.7969 94.6968 72.9851C94.5264 73.1697 94.4411 73.4219 94.4411 73.7415C94.4411 74.1783 94.6027 74.5085 94.9259 74.7322C95.2526 74.9524 95.6663 75.0625 96.167 75.0625ZM105.344 76.1705C104.577 76.1705 103.916 75.9893 103.362 75.6271C102.808 75.2649 102.382 74.766 102.084 74.1303C101.785 73.4947 101.636 72.7685 101.636 71.9517C101.636 71.1207 101.789 70.3874 102.094 69.7518C102.403 69.1126 102.833 68.6136 103.383 68.255C103.937 67.8928 104.584 67.7116 105.322 67.7116C105.898 67.7116 106.416 67.8182 106.878 68.0312C107.339 68.2443 107.718 68.5426 108.012 68.9261C108.307 69.3097 108.49 69.7571 108.561 70.2685H107.304C107.208 69.8956 106.995 69.5653 106.665 69.2777C106.338 68.9865 105.898 68.8409 105.344 68.8409C104.854 68.8409 104.424 68.9687 104.055 69.2244C103.689 69.4766 103.403 69.8335 103.197 70.2951C102.994 70.7532 102.893 71.2912 102.893 71.9091C102.893 72.5412 102.993 73.0916 103.192 73.5604C103.394 74.0291 103.678 74.3931 104.044 74.6523C104.413 74.9116 104.846 75.0412 105.344 75.0412C105.67 75.0412 105.967 74.9844 106.233 74.8707C106.499 74.7571 106.725 74.5938 106.91 74.3807C107.094 74.1676 107.226 73.9119 107.304 73.6136H108.561C108.49 74.0966 108.314 74.5316 108.034 74.9187C107.757 75.3022 107.389 75.6076 106.931 75.8349C106.476 76.0586 105.947 76.1705 105.344 76.1705ZM113.722 76.1705C112.955 76.1705 112.295 75.9893 111.741 75.6271C111.187 75.2649 110.761 74.766 110.463 74.1303C110.164 73.4947 110.015 72.7685 110.015 71.9517C110.015 71.1207 110.168 70.3874 110.473 69.7518C110.782 69.1126 111.212 68.6136 111.762 68.255C112.316 67.8928 112.963 67.7116 113.701 67.7116C114.276 67.7116 114.795 67.8182 115.257 68.0312C115.718 68.2443 116.096 68.5426 116.391 68.9261C116.686 69.3097 116.869 69.7571 116.94 70.2685H115.683C115.587 69.8956 115.374 69.5653 115.044 69.2777C114.717 68.9865 114.276 68.8409 113.722 68.8409C113.232 68.8409 112.803 68.9687 112.433 69.2244C112.068 69.4766 111.782 69.8335 111.576 70.2951C111.373 70.7532 111.272 71.2912 111.272 71.9091C111.272 72.5412 111.372 73.0916 111.57 73.5604C111.773 74.0291 112.057 74.3931 112.423 74.6523C112.792 74.9116 113.225 75.0412 113.722 75.0412C114.049 75.0412 114.346 74.9844 114.612 74.8707C114.878 74.7571 115.104 74.5938 115.289 74.3807C115.473 74.1676 115.605 73.9119 115.683 73.6136H116.94C116.869 74.0966 116.693 74.5316 116.412 74.9187C116.135 75.3022 115.768 75.6076 115.31 75.8349C114.855 76.0586 114.326 76.1705 113.722 76.1705ZM122.208 76.1705C121.42 76.1705 120.74 75.9964 120.168 75.6484C119.6 75.2969 119.161 74.8068 118.852 74.1783C118.547 73.5462 118.394 72.8111 118.394 71.973C118.394 71.1349 118.547 70.3963 118.852 69.7571C119.161 69.1143 119.591 68.6136 120.141 68.255C120.695 67.8928 121.341 67.7116 122.08 67.7116C122.506 67.7116 122.927 67.7827 123.343 67.9247C123.758 68.0668 124.136 68.2976 124.477 68.6172C124.818 68.9332 125.09 69.3523 125.292 69.8743C125.494 70.3963 125.596 71.0391 125.596 71.8026V72.3352H119.289V71.2486H124.317C124.317 70.7869 124.225 70.375 124.04 70.0128C123.859 69.6506 123.6 69.3647 123.263 69.1552C122.929 68.9457 122.535 68.8409 122.08 68.8409C121.579 68.8409 121.146 68.9652 120.78 69.2138C120.418 69.4588 120.139 69.7784 119.944 70.1726C119.749 70.5668 119.651 70.9893 119.651 71.4403V72.1648C119.651 72.7827 119.758 73.3065 119.971 73.7362C120.187 74.1623 120.487 74.4872 120.871 74.7109C121.254 74.9311 121.7 75.0412 122.208 75.0412C122.538 75.0412 122.836 74.995 123.103 74.9027C123.373 74.8068 123.605 74.6648 123.801 74.4766C123.996 74.2848 124.147 74.0469 124.253 73.7628L125.468 74.1037C125.34 74.5156 125.125 74.8778 124.823 75.1903C124.521 75.4993 124.149 75.7408 123.705 75.9148C123.261 76.0852 122.762 76.1705 122.208 76.1705ZM133.303 69.6506L132.174 69.9702C132.103 69.782 131.998 69.5991 131.86 69.4215C131.725 69.2404 131.54 69.0913 131.306 68.9741C131.072 68.8569 130.771 68.7983 130.406 68.7983C129.905 68.7983 129.488 68.9137 129.154 69.1445C128.824 69.3718 128.659 69.6612 128.659 70.0128C128.659 70.3253 128.772 70.5721 128.999 70.7532C129.227 70.9343 129.582 71.0852 130.065 71.206L131.279 71.5043C132.011 71.6818 132.556 71.9535 132.915 72.3192C133.273 72.6815 133.453 73.1484 133.453 73.7202C133.453 74.1889 133.318 74.608 133.048 74.9773C132.781 75.3466 132.409 75.6378 131.929 75.8509C131.45 76.0639 130.892 76.1705 130.257 76.1705C129.422 76.1705 128.731 75.9893 128.184 75.6271C127.638 75.2649 127.291 74.7358 127.146 74.0398L128.339 73.7415C128.453 74.1818 128.667 74.5121 128.983 74.7322C129.303 74.9524 129.72 75.0625 130.235 75.0625C130.821 75.0625 131.286 74.9382 131.631 74.6896C131.979 74.4375 132.153 74.1357 132.153 73.7841C132.153 73.5 132.053 73.2621 131.855 73.0703C131.656 72.875 131.35 72.7294 130.938 72.6335L129.575 72.3139C128.825 72.1364 128.275 71.8612 127.923 71.4883C127.575 71.1119 127.401 70.6413 127.401 70.0767C127.401 69.6151 127.531 69.2067 127.79 68.8516C128.053 68.4964 128.41 68.2177 128.861 68.0153C129.316 67.8129 129.83 67.7116 130.406 67.7116C131.215 67.7116 131.851 67.8892 132.313 68.2443C132.778 68.5994 133.108 69.0682 133.303 69.6506ZM141.14 69.6506L140.011 69.9702C139.94 69.782 139.835 69.5991 139.697 69.4215C139.562 69.2404 139.377 69.0913 139.143 68.9741C138.908 68.8569 138.608 68.7983 138.243 68.7983C137.742 68.7983 137.325 68.9137 136.991 69.1445C136.661 69.3718 136.495 69.6612 136.495 70.0128C136.495 70.3253 136.609 70.5721 136.836 70.7532C137.064 70.9343 137.419 71.0852 137.902 71.206L139.116 71.5043C139.848 71.6818 140.393 71.9535 140.752 72.3192C141.11 72.6815 141.29 73.1484 141.29 73.7202C141.29 74.1889 141.155 74.608 140.885 74.9773C140.618 75.3466 140.245 75.6378 139.766 75.8509C139.287 76.0639 138.729 76.1705 138.093 76.1705C137.259 76.1705 136.568 75.9893 136.021 75.6271C135.475 75.2649 135.128 74.7358 134.983 74.0398L136.176 73.7415C136.29 74.1818 136.504 74.5121 136.82 74.7322C137.14 74.9524 137.557 75.0625 138.072 75.0625C138.658 75.0625 139.123 74.9382 139.468 74.6896C139.816 74.4375 139.99 74.1357 139.99 73.7841C139.99 73.5 139.89 73.2621 139.691 73.0703C139.493 72.875 139.187 72.7294 138.775 72.6335L137.412 72.3139C136.662 72.1364 136.112 71.8612 135.76 71.4883C135.412 71.1119 135.238 70.6413 135.238 70.0767C135.238 69.6151 135.368 69.2067 135.627 68.8516C135.89 68.4964 136.247 68.2177 136.698 68.0153C137.152 67.8129 137.667 67.7116 138.243 67.7116C139.052 67.7116 139.688 67.8892 140.15 68.2443C140.615 68.5994 140.945 69.0682 141.14 69.6506Z" fill="#43505B"/>
</svg>
