<svg width="317" height="86" viewBox="0 0 317 86" fill="none" xmlns="http://www.w3.org/2000/svg">
<rect width="86" height="86" rx="8" fill="#F1F1FC"/>
<path d="M50.191 50.3926H35.751" stroke="#4540E1" stroke-width="2.5" stroke-linecap="round" stroke-linejoin="round"/>
<path d="M50.191 42.873H35.751" stroke="#4540E1" stroke-width="2.5" stroke-linecap="round" stroke-linejoin="round"/>
<path d="M41.262 35.3535H35.752" stroke="#4540E1" stroke-width="2.5" stroke-linecap="round" stroke-linejoin="round"/>
<path fill-rule="evenodd" clip-rule="evenodd" d="M26.2197 43C26.2197 56.874 30.4157 61.5 43.0017 61.5C55.5897 61.5 59.7837 56.874 59.7837 43C59.7837 29.126 55.5897 24.5 43.0017 24.5C30.4157 24.5 26.2197 29.126 26.2197 43Z" stroke="#4540E1" stroke-width="2.5" stroke-linecap="round" stroke-linejoin="round"/>
<path d="M108.619 20.1989C107.923 20.1941 107.244 20.0734 106.581 19.8366C105.918 19.5952 105.321 19.2045 104.791 18.6648C104.261 18.1203 103.839 17.3982 103.527 16.4986C103.214 15.5942 103.061 14.4744 103.065 13.1392C103.065 11.8939 103.198 10.7836 103.463 9.80824C103.728 8.83286 104.109 8.009 104.607 7.33665C105.104 6.65956 105.703 6.14347 106.403 5.78835C107.109 5.43324 107.897 5.25568 108.768 5.25568C109.682 5.25568 110.492 5.43561 111.197 5.79545C111.908 6.1553 112.481 6.64773 112.916 7.27273C113.352 7.89299 113.622 8.59375 113.726 9.375H111.134C111.001 8.81629 110.729 8.37121 110.317 8.03977C109.91 7.7036 109.393 7.53551 108.768 7.53551C107.76 7.53551 106.983 7.97348 106.439 8.84943C105.899 9.72538 105.627 10.928 105.622 12.4574H105.722C105.954 12.0407 106.254 11.6832 106.624 11.3849C106.993 11.0866 107.41 10.857 107.874 10.696C108.342 10.5303 108.837 10.4474 109.358 10.4474C110.21 10.4474 110.975 10.651 111.652 11.0582C112.334 11.4654 112.874 12.0265 113.271 12.7415C113.669 13.4517 113.866 14.2661 113.861 15.1847C113.866 16.1411 113.648 17.0005 113.207 17.7628C112.767 18.5204 112.154 19.117 111.368 19.5526C110.582 19.9882 109.666 20.2036 108.619 20.1989ZM108.605 18.0682C109.121 18.0682 109.583 17.9427 109.99 17.6918C110.397 17.4408 110.719 17.1023 110.956 16.6761C111.193 16.25 111.309 15.7718 111.304 15.2415C111.309 14.7206 111.195 14.2495 110.963 13.8281C110.736 13.4067 110.421 13.0729 110.018 12.8267C109.616 12.5805 109.157 12.4574 108.641 12.4574C108.257 12.4574 107.9 12.5308 107.568 12.6776C107.237 12.8243 106.948 13.0279 106.702 13.2884C106.455 13.544 106.261 13.8423 106.119 14.1832C105.982 14.5194 105.911 14.8793 105.906 15.2628C105.911 15.7694 106.029 16.2358 106.261 16.6619C106.493 17.0881 106.813 17.429 107.22 17.6847C107.627 17.9403 108.089 18.0682 108.605 18.0682ZM123.999 5.45455V20H121.364V5.45455H123.999ZM129.31 13.608V20H126.739V9.09091H129.196V10.9446H129.324C129.575 10.3338 129.975 9.84848 130.525 9.48864C131.078 9.12879 131.763 8.94886 132.577 8.94886C133.33 8.94886 133.986 9.10985 134.544 9.43182C135.108 9.75379 135.543 10.2202 135.851 10.831C136.164 11.4418 136.318 12.1828 136.313 13.054V20H133.742V13.4517C133.742 12.7225 133.552 12.152 133.174 11.7401C132.8 11.3281 132.281 11.1222 131.618 11.1222C131.168 11.1222 130.768 11.2216 130.418 11.4205C130.072 11.6146 129.8 11.8963 129.601 12.2656C129.407 12.6349 129.31 13.0824 129.31 13.608ZM142.975 20.1918C142.118 20.1918 141.351 19.9716 140.674 19.5312C139.997 19.0909 139.462 18.4517 139.069 17.6136C138.676 16.7756 138.479 15.7576 138.479 14.5597C138.479 13.3475 138.678 12.3248 139.076 11.4915C139.478 10.6534 140.02 10.0213 140.702 9.59517C141.384 9.1643 142.144 8.94886 142.982 8.94886C143.621 8.94886 144.147 9.05777 144.559 9.27557C144.971 9.48864 145.297 9.74669 145.539 10.0497C145.78 10.348 145.967 10.6297 146.1 10.8949H146.206V5.45455H148.784V20H146.256V18.2812H146.1C145.967 18.5464 145.775 18.8281 145.525 19.1264C145.274 19.42 144.942 19.6709 144.53 19.8793C144.118 20.0876 143.6 20.1918 142.975 20.1918ZM143.692 18.0824C144.237 18.0824 144.701 17.9356 145.084 17.642C145.468 17.3437 145.759 16.9295 145.958 16.3991C146.157 15.8688 146.256 15.2509 146.256 14.5455C146.256 13.84 146.157 13.2268 145.958 12.706C145.764 12.1851 145.475 11.7803 145.091 11.4915C144.712 11.2027 144.246 11.0582 143.692 11.0582C143.119 11.0582 142.641 11.2074 142.257 11.5057C141.874 11.804 141.585 12.2159 141.391 12.7415C141.197 13.267 141.1 13.8684 141.1 14.5455C141.1 15.2273 141.197 15.8357 141.391 16.3707C141.59 16.901 141.881 17.3201 142.265 17.6278C142.653 17.9309 143.129 18.0824 143.692 18.0824ZM158.477 15.4119V9.09091H161.048V20H158.555V18.0611H158.442C158.196 18.6719 157.791 19.1714 157.227 19.5597C156.669 19.9479 155.98 20.142 155.161 20.142C154.446 20.142 153.813 19.9834 153.264 19.6662C152.72 19.3442 152.294 18.8778 151.986 18.267C151.678 17.6515 151.524 16.9081 151.524 16.0369V9.09091H154.095V15.6392C154.095 16.3305 154.285 16.8797 154.663 17.2869C155.042 17.6941 155.539 17.8977 156.155 17.8977C156.534 17.8977 156.901 17.8054 157.256 17.6207C157.611 17.4361 157.902 17.1615 158.129 16.7969C158.361 16.4276 158.477 15.9659 158.477 15.4119ZM172.314 11.9744L169.971 12.2301C169.904 11.9934 169.788 11.7708 169.623 11.5625C169.462 11.3542 169.244 11.1861 168.969 11.0582C168.694 10.9304 168.358 10.8665 167.961 10.8665C167.426 10.8665 166.976 10.9825 166.611 11.2145C166.251 11.4465 166.074 11.7472 166.078 12.1165C166.074 12.4337 166.19 12.6918 166.426 12.8906C166.668 13.0895 167.066 13.2528 167.62 13.3807L169.48 13.7784C170.513 14.0009 171.28 14.3537 171.782 14.8366C172.288 15.3196 172.544 15.9517 172.549 16.733C172.544 17.4195 172.343 18.0256 171.945 18.5511C171.552 19.072 171.005 19.4792 170.304 19.7727C169.604 20.0663 168.799 20.2131 167.89 20.2131C166.554 20.2131 165.48 19.9337 164.665 19.375C163.851 18.8116 163.365 18.0279 163.209 17.0241L165.716 16.7827C165.83 17.2751 166.071 17.6468 166.441 17.8977C166.81 18.1487 167.291 18.2741 167.882 18.2741C168.493 18.2741 168.983 18.1487 169.353 17.8977C169.727 17.6468 169.914 17.3366 169.914 16.9673C169.914 16.6548 169.793 16.3968 169.551 16.1932C169.315 15.9896 168.945 15.8333 168.444 15.7244L166.583 15.3338C165.536 15.116 164.762 14.7491 164.26 14.233C163.758 13.7121 163.51 13.054 163.515 12.2585C163.51 11.5862 163.692 11.0038 164.061 10.5114C164.435 10.0142 164.954 9.63068 165.617 9.3608C166.284 9.08617 167.054 8.94886 167.925 8.94886C169.203 8.94886 170.21 9.22112 170.944 9.76562C171.682 10.3101 172.139 11.0464 172.314 11.9744ZM180.116 9.09091V11.0795H173.845V9.09091H180.116ZM175.393 6.47727H177.964V16.7188C177.964 17.0644 178.016 17.3295 178.12 17.5142C178.229 17.6941 178.371 17.8172 178.547 17.8835C178.722 17.9498 178.916 17.983 179.129 17.983C179.29 17.983 179.437 17.9711 179.569 17.9474C179.707 17.9238 179.811 17.9025 179.882 17.8835L180.315 19.8935C180.178 19.9408 179.981 19.9929 179.725 20.0497C179.475 20.1065 179.167 20.1397 178.802 20.1491C178.158 20.1681 177.578 20.071 177.062 19.858C176.546 19.6402 176.136 19.304 175.833 18.8494C175.535 18.3949 175.388 17.8267 175.393 17.1449V6.47727ZM182.266 20V9.09091H184.759V10.9091H184.873C185.072 10.2794 185.413 9.79403 185.896 9.45312C186.383 9.10748 186.94 8.93466 187.565 8.93466C187.707 8.93466 187.865 8.94176 188.04 8.95597C188.22 8.96544 188.37 8.98201 188.488 9.00568V11.3707C188.379 11.3329 188.206 11.2997 187.969 11.2713C187.737 11.2382 187.513 11.2216 187.295 11.2216C186.826 11.2216 186.405 11.3234 186.031 11.527C185.661 11.7259 185.37 12.0028 185.157 12.358C184.944 12.7131 184.837 13.1226 184.837 13.5866V20H182.266ZM192.126 24.0909C191.776 24.0909 191.451 24.0625 191.153 24.0057C190.859 23.9536 190.625 23.892 190.45 23.821L191.047 21.8182C191.421 21.9271 191.754 21.9792 192.048 21.9744C192.342 21.9697 192.6 21.8774 192.822 21.6974C193.049 21.5223 193.241 21.2287 193.397 20.8168L193.618 20.2273L189.662 9.09091H192.389L194.903 17.3295H195.017L197.538 9.09091H200.272L195.904 21.321C195.701 21.8987 195.431 22.3935 195.095 22.8054C194.759 23.2221 194.347 23.5393 193.859 23.7571C193.376 23.9796 192.798 24.0909 192.126 24.0909ZM207.126 20V5.45455H209.761V17.7912H216.167V20H207.126ZM223.17 20.2131C222.076 20.2131 221.132 19.9858 220.336 19.5312C219.546 19.072 218.937 18.4233 218.511 17.5852C218.085 16.7424 217.872 15.7505 217.872 14.6094C217.872 13.4872 218.085 12.5024 218.511 11.6548C218.942 10.8026 219.543 10.1397 220.315 9.66619C221.087 9.18797 221.993 8.94886 223.035 8.94886C223.708 8.94886 224.342 9.05777 224.939 9.27557C225.54 9.48864 226.07 9.82008 226.529 10.2699C226.993 10.7197 227.358 11.2926 227.623 11.9886C227.888 12.6799 228.021 13.5038 228.021 14.4602V15.2486H219.079V13.5156H225.556C225.552 13.0232 225.445 12.5852 225.237 12.2017C225.029 11.8134 224.737 11.508 224.363 11.2855C223.994 11.063 223.563 10.9517 223.071 10.9517C222.545 10.9517 222.083 11.0795 221.686 11.3352C221.288 11.5862 220.978 11.9176 220.755 12.3295C220.538 12.7367 220.426 13.1842 220.422 13.6719V15.1847C220.422 15.8191 220.538 16.3636 220.77 16.8182C221.002 17.268 221.326 17.6136 221.743 17.8551C222.159 18.0919 222.647 18.2102 223.206 18.2102C223.58 18.2102 223.918 18.1581 224.221 18.054C224.524 17.9451 224.787 17.7865 225.01 17.5781C225.232 17.3698 225.4 17.1117 225.514 16.804L227.914 17.0739C227.763 17.7083 227.474 18.2623 227.048 18.7358C226.627 19.2045 226.087 19.5691 225.429 19.8295C224.77 20.0852 224.018 20.2131 223.17 20.2131ZM239.628 9.09091L235.743 20H232.902L229.017 9.09091H231.759L234.266 17.1946H234.379L236.893 9.09091H239.628ZM245.865 20.2131C244.772 20.2131 243.827 19.9858 243.032 19.5312C242.241 19.072 241.632 18.4233 241.206 17.5852C240.78 16.7424 240.567 15.7505 240.567 14.6094C240.567 13.4872 240.78 12.5024 241.206 11.6548C241.637 10.8026 242.239 10.1397 243.01 9.66619C243.782 9.18797 244.689 8.94886 245.73 8.94886C246.403 8.94886 247.037 9.05777 247.634 9.27557C248.235 9.48864 248.766 9.82008 249.225 10.2699C249.689 10.7197 250.053 11.2926 250.319 11.9886C250.584 12.6799 250.716 13.5038 250.716 14.4602V15.2486H241.775V13.5156H248.252C248.247 13.0232 248.141 12.5852 247.932 12.2017C247.724 11.8134 247.433 11.508 247.059 11.2855C246.689 11.063 246.258 10.9517 245.766 10.9517C245.24 10.9517 244.779 11.0795 244.381 11.3352C243.983 11.5862 243.673 11.9176 243.451 12.3295C243.233 12.7367 243.122 13.1842 243.117 13.6719V15.1847C243.117 15.8191 243.233 16.3636 243.465 16.8182C243.697 17.268 244.021 17.6136 244.438 17.8551C244.855 18.0919 245.342 18.2102 245.901 18.2102C246.275 18.2102 246.614 18.1581 246.917 18.054C247.22 17.9451 247.482 17.7865 247.705 17.5781C247.927 17.3698 248.096 17.1117 248.209 16.804L250.61 17.0739C250.458 17.7083 250.169 18.2623 249.743 18.7358C249.322 19.2045 248.782 19.5691 248.124 19.8295C247.466 20.0852 246.713 20.2131 245.865 20.2131ZM255.462 5.45455V20H252.891V5.45455H255.462ZM103.435 46V31.4545H108.889C110.007 31.4545 110.944 31.6629 111.702 32.0795C112.464 32.4962 113.039 33.0691 113.428 33.7983C113.821 34.5227 114.017 35.3466 114.017 36.2699C114.017 37.2027 113.821 38.0312 113.428 38.7557C113.035 39.4801 112.455 40.0507 111.688 40.4673C110.92 40.8793 109.976 41.0852 108.854 41.0852H105.239V38.919H108.499C109.152 38.919 109.687 38.8054 110.104 38.5781C110.52 38.3509 110.828 38.0384 111.027 37.6406C111.231 37.2429 111.332 36.786 111.332 36.2699C111.332 35.7538 111.231 35.2992 111.027 34.9062C110.828 34.5133 110.518 34.2079 110.097 33.9901C109.68 33.7675 109.143 33.6562 108.484 33.6562H106.07V46H103.435ZM116.192 46V35.0909H118.685V36.9091H118.799C118.998 36.2794 119.338 35.794 119.821 35.4531C120.309 35.1075 120.865 34.9347 121.49 34.9347C121.632 34.9347 121.791 34.9418 121.966 34.956C122.146 34.9654 122.295 34.982 122.414 35.0057V37.3707C122.305 37.3329 122.132 37.2997 121.895 37.2713C121.663 37.2382 121.438 37.2216 121.221 37.2216C120.752 37.2216 120.33 37.3234 119.956 37.527C119.587 37.7259 119.296 38.0028 119.083 38.358C118.87 38.7131 118.763 39.1226 118.763 39.5866V46H116.192ZM128.431 46.2131C127.366 46.2131 126.442 45.9787 125.661 45.5099C124.88 45.0412 124.274 44.3854 123.843 43.5426C123.417 42.6998 123.204 41.715 123.204 40.5881C123.204 39.4612 123.417 38.474 123.843 37.6264C124.274 36.7789 124.88 36.1207 125.661 35.652C126.442 35.1832 127.366 34.9489 128.431 34.9489C129.496 34.9489 130.42 35.1832 131.201 35.652C131.982 36.1207 132.586 36.7789 133.012 37.6264C133.443 38.474 133.658 39.4612 133.658 40.5881C133.658 41.715 133.443 42.6998 133.012 43.5426C132.586 44.3854 131.982 45.0412 131.201 45.5099C130.42 45.9787 129.496 46.2131 128.431 46.2131ZM128.445 44.1534C129.023 44.1534 129.506 43.9948 129.894 43.6776C130.282 43.3556 130.571 42.9247 130.761 42.3849C130.955 41.8452 131.052 41.2438 131.052 40.581C131.052 39.9134 130.955 39.3097 130.761 38.7699C130.571 38.2254 130.282 37.7921 129.894 37.4702C129.506 37.1482 129.023 36.9872 128.445 36.9872C127.853 36.9872 127.361 37.1482 126.968 37.4702C126.58 37.7921 126.289 38.2254 126.094 38.7699C125.905 39.3097 125.81 39.9134 125.81 40.581C125.81 41.2438 125.905 41.8452 126.094 42.3849C126.289 42.9247 126.58 43.3556 126.968 43.6776C127.361 43.9948 127.853 44.1534 128.445 44.1534ZM135.841 35.0909H138.412V46.625C138.412 47.411 138.262 48.0597 137.964 48.571C137.666 49.0824 137.235 49.4635 136.672 49.7145C136.108 49.9654 135.424 50.0909 134.619 50.0909C134.524 50.0909 134.437 50.0885 134.356 50.0838C134.276 50.0838 134.188 50.0814 134.093 50.0767V47.9815C134.164 47.9863 134.228 47.9886 134.285 47.9886C134.342 47.9934 134.401 47.9957 134.463 47.9957C134.955 47.9957 135.308 47.875 135.521 47.6335C135.734 47.3968 135.841 47.0488 135.841 46.5895V35.0909ZM137.119 33.5426C136.707 33.5426 136.354 33.4077 136.061 33.1378C135.772 32.8632 135.627 32.5341 135.627 32.1506C135.627 31.7623 135.772 31.4332 136.061 31.1634C136.354 30.8887 136.707 30.7514 137.119 30.7514C137.526 30.7514 137.874 30.8887 138.163 31.1634C138.457 31.4332 138.603 31.7623 138.603 32.1506C138.603 32.5341 138.457 32.8632 138.163 33.1378C137.874 33.4077 137.526 33.5426 137.119 33.5426ZM145.885 46.2131C144.791 46.2131 143.847 45.9858 143.051 45.5312C142.26 45.072 141.652 44.4233 141.226 43.5852C140.8 42.7424 140.587 41.7505 140.587 40.6094C140.587 39.4872 140.8 38.5024 141.226 37.6548C141.657 36.8026 142.258 36.1397 143.03 35.6662C143.802 35.188 144.708 34.9489 145.75 34.9489C146.422 34.9489 147.057 35.0578 147.653 35.2756C148.255 35.4886 148.785 35.8201 149.244 36.2699C149.708 36.7197 150.073 37.2926 150.338 37.9886C150.603 38.6799 150.736 39.5038 150.736 40.4602V41.2486H141.794V39.5156H148.271C148.267 39.0232 148.16 38.5852 147.952 38.2017C147.743 37.8134 147.452 37.508 147.078 37.2855C146.709 37.063 146.278 36.9517 145.786 36.9517C145.26 36.9517 144.798 37.0795 144.401 37.3352C144.003 37.5862 143.693 37.9176 143.47 38.3295C143.252 38.7367 143.141 39.1842 143.136 39.6719V41.1847C143.136 41.8191 143.252 42.3636 143.484 42.8182C143.716 43.268 144.041 43.6136 144.457 43.8551C144.874 44.0919 145.362 44.2102 145.92 44.2102C146.295 44.2102 146.633 44.1581 146.936 44.054C147.239 43.9451 147.502 43.7865 147.724 43.5781C147.947 43.3698 148.115 43.1117 148.229 42.804L150.629 43.0739C150.478 43.7083 150.189 44.2623 149.763 44.7358C149.341 45.2045 148.802 45.5691 148.143 45.8295C147.485 46.0852 146.732 46.2131 145.885 46.2131ZM157.669 46.2131C156.58 46.2131 155.645 45.974 154.864 45.4957C154.087 45.0175 153.489 44.357 153.067 43.5142C152.65 42.6667 152.442 41.6913 152.442 40.5881C152.442 39.4801 152.655 38.5024 153.081 37.6548C153.507 36.8026 154.109 36.1397 154.885 35.6662C155.667 35.188 156.59 34.9489 157.655 34.9489C158.541 34.9489 159.324 35.1122 160.006 35.4389C160.693 35.7609 161.239 36.2178 161.647 36.8097C162.054 37.3968 162.286 38.0833 162.343 38.8693H159.885C159.786 38.3437 159.549 37.9058 159.175 37.5554C158.806 37.2003 158.311 37.0227 157.691 37.0227C157.165 37.0227 156.703 37.1648 156.306 37.4489C155.908 37.7282 155.598 38.1307 155.375 38.6562C155.158 39.1818 155.049 39.8116 155.049 40.5455C155.049 41.2888 155.158 41.928 155.375 42.4631C155.593 42.9934 155.899 43.4029 156.292 43.6918C156.689 43.9759 157.156 44.1179 157.691 44.1179C158.069 44.1179 158.408 44.0469 158.706 43.9048C159.009 43.758 159.263 43.5473 159.466 43.2727C159.67 42.9981 159.81 42.6643 159.885 42.2713H162.343C162.281 43.0431 162.054 43.7273 161.661 44.3239C161.268 44.9157 160.733 45.3797 160.056 45.7159C159.379 46.0473 158.583 46.2131 157.669 46.2131ZM169.901 35.0909V37.0795H163.63V35.0909H169.901ZM165.178 32.4773H167.749V42.7188C167.749 43.0644 167.801 43.3295 167.906 43.5142C168.014 43.6941 168.156 43.8172 168.332 43.8835C168.507 43.9498 168.701 43.983 168.914 43.983C169.075 43.983 169.222 43.9711 169.354 43.9474C169.492 43.9238 169.596 43.9025 169.667 43.8835L170.1 45.8935C169.963 45.9408 169.766 45.9929 169.511 46.0497C169.26 46.1065 168.952 46.1397 168.587 46.1491C167.943 46.1681 167.363 46.071 166.847 45.858C166.331 45.6402 165.922 45.304 165.619 44.8494C165.32 44.3949 165.174 43.8267 165.178 43.1449V32.4773ZM180.517 37.9744L178.174 38.2301C178.107 37.9934 177.991 37.7708 177.826 37.5625C177.665 37.3542 177.447 37.1861 177.172 37.0582C176.898 36.9304 176.561 36.8665 176.164 36.8665C175.629 36.8665 175.179 36.9825 174.814 37.2145C174.454 37.4465 174.277 37.7472 174.282 38.1165C174.277 38.4337 174.393 38.6918 174.63 38.8906C174.871 39.0895 175.269 39.2528 175.823 39.3807L177.684 39.7784C178.716 40.0009 179.483 40.3537 179.985 40.8366C180.491 41.3196 180.747 41.9517 180.752 42.733C180.747 43.4195 180.546 44.0256 180.148 44.5511C179.755 45.072 179.208 45.4792 178.507 45.7727C177.807 46.0663 177.002 46.2131 176.093 46.2131C174.757 46.2131 173.683 45.9337 172.868 45.375C172.054 44.8116 171.569 44.0279 171.412 43.0241L173.919 42.7827C174.033 43.2751 174.275 43.6468 174.644 43.8977C175.013 44.1487 175.494 44.2741 176.086 44.2741C176.696 44.2741 177.186 44.1487 177.556 43.8977C177.93 43.6468 178.117 43.3366 178.117 42.9673C178.117 42.6548 177.996 42.3968 177.755 42.1932C177.518 41.9896 177.149 41.8333 176.647 41.7244L174.786 41.3338C173.739 41.116 172.965 40.7491 172.463 40.233C171.962 39.7121 171.713 39.054 171.718 38.2585C171.713 37.5862 171.895 37.0038 172.265 36.5114C172.639 36.0142 173.157 35.6307 173.82 35.3608C174.488 35.0862 175.257 34.9489 176.128 34.9489C177.407 34.9489 178.413 35.2211 179.147 35.7656C179.885 36.3101 180.342 37.0464 180.517 37.9744Z" fill="#0A2134"/>
<path d="M110.778 68.5C110.661 68.1413 110.507 67.82 110.315 67.5359C110.127 67.2482 109.901 67.0032 109.638 66.8008C109.379 66.5984 109.085 66.4439 108.754 66.3374C108.424 66.2308 108.062 66.1776 107.668 66.1776C107.021 66.1776 106.434 66.3445 105.904 66.6783C105.375 67.0121 104.955 67.5039 104.642 68.1538C104.33 68.8036 104.173 69.6009 104.173 70.5455C104.173 71.4901 104.331 72.2873 104.647 72.9371C104.963 73.587 105.391 74.0788 105.931 74.4126C106.471 74.7464 107.078 74.9134 107.753 74.9134C108.378 74.9134 108.928 74.7802 109.404 74.5138C109.884 74.244 110.256 73.864 110.523 73.3739C110.793 72.8803 110.928 72.2997 110.928 71.6321L111.332 71.7173H108.051V70.5455H112.206V71.7173C112.206 72.6158 112.014 73.397 111.631 74.0611C111.251 74.7251 110.725 75.2401 110.054 75.6058C109.386 75.968 108.619 76.1491 107.753 76.1491C106.787 76.1491 105.938 75.9219 105.207 75.4673C104.479 75.0128 103.911 74.3665 103.502 73.5284C103.097 72.6903 102.895 71.696 102.895 70.5455C102.895 69.6825 103.01 68.9066 103.241 68.2177C103.475 67.5252 103.806 66.9357 104.232 66.4492C104.658 65.9627 105.162 65.5898 105.745 65.3306C106.327 65.0714 106.968 64.9418 107.668 64.9418C108.243 64.9418 108.779 65.0288 109.276 65.2028C109.777 65.3732 110.223 65.6165 110.613 65.9325C111.007 66.245 111.336 66.6197 111.599 67.0565C111.862 67.4897 112.043 67.9709 112.142 68.5H110.778ZM117.728 76.1705C116.94 76.1705 116.26 75.9964 115.688 75.6484C115.12 75.2969 114.682 74.8068 114.373 74.1783C114.067 73.5462 113.915 72.8111 113.915 71.973C113.915 71.1349 114.067 70.3963 114.373 69.7571C114.682 69.1143 115.111 68.6136 115.662 68.255C116.216 67.8928 116.862 67.7116 117.601 67.7116C118.027 67.7116 118.448 67.7827 118.863 67.9247C119.278 68.0668 119.657 68.2976 119.998 68.6172C120.339 68.9332 120.61 69.3523 120.813 69.8743C121.015 70.3963 121.116 71.0391 121.116 71.8026V72.3352H114.809V71.2486H119.838C119.838 70.7869 119.745 70.375 119.561 70.0128C119.38 69.6506 119.12 69.3647 118.783 69.1552C118.449 68.9457 118.055 68.8409 117.601 68.8409C117.1 68.8409 116.667 68.9652 116.301 69.2138C115.939 69.4588 115.66 69.7784 115.465 70.1726C115.269 70.5668 115.172 70.9893 115.172 71.4403V72.1648C115.172 72.7827 115.278 73.3065 115.491 73.7362C115.708 74.1623 116.008 74.4872 116.391 74.7109C116.775 74.9311 117.221 75.0412 117.728 75.0412C118.059 75.0412 118.357 74.995 118.623 74.9027C118.893 74.8068 119.126 74.6648 119.321 74.4766C119.516 74.2848 119.667 74.0469 119.774 73.7628L120.988 74.1037C120.861 74.5156 120.646 74.8778 120.344 75.1903C120.042 75.4993 119.669 75.7408 119.225 75.9148C118.781 76.0852 118.282 76.1705 117.728 76.1705ZM126.587 67.8182V68.8835H122.347V67.8182H126.587ZM123.582 65.858H124.84V73.6562C124.84 74.0114 124.891 74.2777 124.994 74.4553C125.101 74.6293 125.236 74.7464 125.399 74.8068C125.566 74.8636 125.742 74.892 125.926 74.892C126.065 74.892 126.178 74.8849 126.267 74.8707C126.356 74.853 126.427 74.8388 126.48 74.8281L126.736 75.9574C126.651 75.9893 126.532 76.0213 126.379 76.0533C126.226 76.0888 126.033 76.1065 125.798 76.1065C125.443 76.1065 125.095 76.0302 124.754 75.8775C124.417 75.7248 124.136 75.4922 123.913 75.1797C123.693 74.8672 123.582 74.473 123.582 73.9972V65.858ZM132.696 79.0682V67.8182H133.911V69.1179H134.06C134.152 68.9759 134.28 68.7947 134.444 68.5746C134.611 68.3509 134.848 68.152 135.157 67.978C135.47 67.8004 135.892 67.7116 136.425 67.7116C137.114 67.7116 137.721 67.8839 138.247 68.2283C138.772 68.5728 139.183 69.0611 139.477 69.6932C139.772 70.3253 139.919 71.071 139.919 71.9304C139.919 72.7969 139.772 73.5479 139.477 74.1836C139.183 74.8157 138.774 75.3058 138.252 75.6538C137.73 75.9982 137.128 76.1705 136.446 76.1705C135.921 76.1705 135.5 76.0835 135.184 75.9094C134.868 75.7319 134.625 75.5312 134.454 75.3075C134.284 75.0803 134.152 74.892 134.06 74.7429H133.954V79.0682H132.696ZM133.932 71.9091C133.932 72.527 134.023 73.0721 134.204 73.5444C134.385 74.0131 134.65 74.3807 134.998 74.647C135.346 74.9098 135.772 75.0412 136.276 75.0412C136.802 75.0412 137.24 74.9027 137.592 74.6257C137.947 74.3452 138.213 73.9687 138.391 73.4964C138.572 73.0206 138.662 72.4915 138.662 71.9091C138.662 71.3338 138.574 70.8153 138.396 70.3537C138.222 69.8885 137.957 69.521 137.602 69.2511C137.251 68.9776 136.809 68.8409 136.276 68.8409C135.765 68.8409 135.335 68.9705 134.987 69.2298C134.639 69.4854 134.376 69.8441 134.199 70.3058C134.021 70.7638 133.932 71.2983 133.932 71.9091ZM141.837 76V67.8182H143.052V69.054H143.137C143.286 68.6491 143.556 68.3207 143.946 68.0685C144.337 67.8164 144.777 67.6903 145.267 67.6903C145.36 67.6903 145.475 67.6921 145.614 67.6957C145.752 67.6992 145.857 67.7045 145.928 67.7116V68.9901C145.885 68.9794 145.788 68.9634 145.635 68.9421C145.486 68.9173 145.328 68.9048 145.161 68.9048C144.763 68.9048 144.408 68.9883 144.096 69.1552C143.787 69.3185 143.542 69.5458 143.361 69.837C143.183 70.1246 143.094 70.4531 143.094 70.8224V76H141.837ZM149.826 76.1918C149.307 76.1918 148.837 76.0941 148.414 75.8988C147.992 75.6999 147.656 75.4141 147.407 75.0412C147.159 74.6648 147.035 74.2102 147.035 73.6776C147.035 73.2088 147.127 72.8288 147.312 72.5376C147.496 72.2429 147.743 72.0121 148.052 71.8452C148.361 71.6783 148.702 71.554 149.075 71.4723C149.451 71.3871 149.829 71.3196 150.209 71.2699C150.706 71.206 151.11 71.158 151.419 71.1261C151.731 71.0906 151.958 71.032 152.1 70.9503C152.246 70.8686 152.319 70.7266 152.319 70.5241V70.4815C152.319 69.956 152.175 69.5476 151.887 69.2564C151.603 68.9652 151.172 68.8196 150.593 68.8196C149.993 68.8196 149.522 68.951 149.181 69.2138C148.84 69.4766 148.601 69.7571 148.462 70.0554L147.269 69.6293C147.482 69.1321 147.766 68.745 148.121 68.468C148.48 68.1875 148.871 67.9922 149.293 67.8821C149.719 67.7685 150.138 67.7116 150.55 67.7116C150.813 67.7116 151.115 67.7436 151.456 67.8075C151.8 67.8679 152.132 67.994 152.452 68.1857C152.775 68.3775 153.043 68.6669 153.256 69.054C153.469 69.4411 153.576 69.9595 153.576 70.6094V76H152.319V74.892H152.255C152.17 75.0696 152.028 75.2596 151.829 75.462C151.63 75.6644 151.365 75.8366 151.035 75.9787C150.705 76.1207 150.302 76.1918 149.826 76.1918ZM150.018 75.0625C150.515 75.0625 150.934 74.9648 151.275 74.7695C151.619 74.5742 151.878 74.3221 152.052 74.0131C152.23 73.7042 152.319 73.3793 152.319 73.0384V71.8878C152.265 71.9517 152.148 72.0103 151.967 72.0636C151.79 72.1133 151.584 72.1577 151.349 72.1967C151.118 72.2322 150.893 72.2642 150.673 72.2926C150.456 72.3175 150.28 72.3388 150.145 72.3565C149.819 72.3991 149.513 72.4684 149.229 72.5643C148.949 72.6566 148.721 72.7969 148.547 72.9851C148.377 73.1697 148.292 73.4219 148.292 73.7415C148.292 74.1783 148.453 74.5085 148.776 74.7322C149.103 74.9524 149.517 75.0625 150.018 75.0625ZM159.194 76.1705C158.427 76.1705 157.767 75.9893 157.213 75.6271C156.659 75.2649 156.233 74.766 155.934 74.1303C155.636 73.4947 155.487 72.7685 155.487 71.9517C155.487 71.1207 155.639 70.3874 155.945 69.7518C156.254 69.1126 156.684 68.6136 157.234 68.255C157.788 67.8928 158.434 67.7116 159.173 67.7116C159.748 67.7116 160.267 67.8182 160.728 68.0312C161.19 68.2443 161.568 68.5426 161.863 68.9261C162.158 69.3097 162.34 69.7571 162.411 70.2685H161.154C161.059 69.8956 160.845 69.5653 160.515 69.2777C160.188 68.9865 159.748 68.8409 159.194 68.8409C158.704 68.8409 158.274 68.9687 157.905 69.2244C157.539 69.4766 157.253 69.8335 157.047 70.2951C156.845 70.7532 156.744 71.2912 156.744 71.9091C156.744 72.5412 156.843 73.0916 157.042 73.5604C157.245 74.0291 157.529 74.3931 157.894 74.6523C158.264 74.9116 158.697 75.0412 159.194 75.0412C159.521 75.0412 159.817 74.9844 160.084 74.8707C160.35 74.7571 160.576 74.5938 160.76 74.3807C160.945 74.1676 161.076 73.9119 161.154 73.6136H162.411C162.34 74.0966 162.165 74.5316 161.884 74.9187C161.607 75.3022 161.24 75.6076 160.782 75.8349C160.327 76.0586 159.798 76.1705 159.194 76.1705ZM167.807 67.8182V68.8835H163.567V67.8182H167.807ZM164.803 65.858H166.06V73.6562C166.06 74.0114 166.112 74.2777 166.215 74.4553C166.321 74.6293 166.456 74.7464 166.62 74.8068C166.786 74.8636 166.962 74.892 167.147 74.892C167.285 74.892 167.399 74.8849 167.488 74.8707C167.577 74.853 167.648 74.8388 167.701 74.8281L167.957 75.9574C167.871 75.9893 167.752 76.0213 167.6 76.0533C167.447 76.0888 167.253 76.1065 167.019 76.1065C166.664 76.1065 166.316 76.0302 165.975 75.8775C165.638 75.7248 165.357 75.4922 165.133 75.1797C164.913 74.8672 164.803 74.473 164.803 73.9972V65.858ZM169.698 76V67.8182H170.956V76H169.698ZM170.338 66.4545C170.093 66.4545 169.881 66.3711 169.704 66.2042C169.53 66.0373 169.443 65.8366 169.443 65.6023C169.443 65.3679 169.53 65.1673 169.704 65.0004C169.881 64.8335 170.093 64.75 170.338 64.75C170.583 64.75 170.792 64.8335 170.966 65.0004C171.144 65.1673 171.233 65.3679 171.233 65.6023C171.233 65.8366 171.144 66.0373 170.966 66.2042C170.792 66.3711 170.583 66.4545 170.338 66.4545ZM176.582 76.1705C175.815 76.1705 175.154 75.9893 174.6 75.6271C174.046 75.2649 173.62 74.766 173.322 74.1303C173.024 73.4947 172.874 72.7685 172.874 71.9517C172.874 71.1207 173.027 70.3874 173.333 69.7518C173.642 69.1126 174.071 68.6136 174.622 68.255C175.176 67.8928 175.822 67.7116 176.561 67.7116C177.136 67.7116 177.654 67.8182 178.116 68.0312C178.578 68.2443 178.956 68.5426 179.251 68.9261C179.545 69.3097 179.728 69.7571 179.799 70.2685H178.542C178.446 69.8956 178.233 69.5653 177.903 69.2777C177.576 68.9865 177.136 68.8409 176.582 68.8409C176.092 68.8409 175.662 68.9687 175.293 69.2244C174.927 69.4766 174.641 69.8335 174.435 70.2951C174.233 70.7532 174.132 71.2912 174.132 71.9091C174.132 72.5412 174.231 73.0916 174.43 73.5604C174.632 74.0291 174.916 74.3931 175.282 74.6523C175.651 74.9116 176.085 75.0412 176.582 75.0412C176.909 75.0412 177.205 74.9844 177.471 74.8707C177.738 74.7571 177.963 74.5938 178.148 74.3807C178.333 74.1676 178.464 73.9119 178.542 73.6136H179.799C179.728 74.0966 179.552 74.5316 179.272 74.9187C178.995 75.3022 178.627 75.6076 178.169 75.8349C177.715 76.0586 177.186 76.1705 176.582 76.1705ZM184.045 76.1918C183.526 76.1918 183.056 76.0941 182.633 75.8988C182.21 75.6999 181.875 75.4141 181.626 75.0412C181.378 74.6648 181.253 74.2102 181.253 73.6776C181.253 73.2088 181.346 72.8288 181.53 72.5376C181.715 72.2429 181.962 72.0121 182.271 71.8452C182.58 71.6783 182.921 71.554 183.294 71.4723C183.67 71.3871 184.048 71.3196 184.428 71.2699C184.925 71.206 185.328 71.158 185.637 71.1261C185.95 71.0906 186.177 71.032 186.319 70.9503C186.465 70.8686 186.537 70.7266 186.537 70.5241V70.4815C186.537 69.956 186.394 69.5476 186.106 69.2564C185.822 68.9652 185.39 68.8196 184.812 68.8196C184.211 68.8196 183.741 68.951 183.4 69.2138C183.059 69.4766 182.819 69.7571 182.681 70.0554L181.488 69.6293C181.701 69.1321 181.985 68.745 182.34 68.468C182.699 68.1875 183.089 67.9922 183.512 67.8821C183.938 67.7685 184.357 67.7116 184.769 67.7116C185.032 67.7116 185.334 67.7436 185.675 67.8075C186.019 67.8679 186.351 67.994 186.671 68.1857C186.994 68.3775 187.262 68.6669 187.475 69.054C187.688 69.4411 187.795 69.9595 187.795 70.6094V76H186.537V74.892H186.474C186.388 75.0696 186.246 75.2596 186.047 75.462C185.849 75.6644 185.584 75.8366 185.254 75.9787C184.923 76.1207 184.52 76.1918 184.045 76.1918ZM184.236 75.0625C184.733 75.0625 185.153 74.9648 185.493 74.7695C185.838 74.5742 186.097 74.3221 186.271 74.0131C186.449 73.7042 186.537 73.3793 186.537 73.0384V71.8878C186.484 71.9517 186.367 72.0103 186.186 72.0636C186.008 72.1133 185.802 72.1577 185.568 72.1967C185.337 72.2322 185.112 72.2642 184.892 72.2926C184.675 72.3175 184.499 72.3388 184.364 72.3565C184.037 72.3991 183.732 72.4684 183.448 72.5643C183.167 72.6566 182.94 72.7969 182.766 72.9851C182.596 73.1697 182.51 73.4219 182.51 73.7415C182.51 74.1783 182.672 74.5085 182.995 74.7322C183.322 74.9524 183.736 75.0625 184.236 75.0625ZM191.346 65.0909V76H190.089V65.0909H191.346ZM203.663 69.6506L202.534 69.9702C202.463 69.782 202.358 69.5991 202.219 69.4215C202.084 69.2404 201.9 69.0913 201.665 68.9741C201.431 68.8569 201.131 68.7983 200.765 68.7983C200.264 68.7983 199.847 68.9137 199.513 69.1445C199.183 69.3718 199.018 69.6612 199.018 70.0128C199.018 70.3253 199.132 70.5721 199.359 70.7532C199.586 70.9343 199.941 71.0852 200.424 71.206L201.639 71.5043C202.37 71.6818 202.915 71.9535 203.274 72.3192C203.633 72.6815 203.812 73.1484 203.812 73.7202C203.812 74.1889 203.677 74.608 203.407 74.9773C203.141 75.3466 202.768 75.6378 202.289 75.8509C201.809 76.0639 201.252 76.1705 200.616 76.1705C199.781 76.1705 199.091 75.9893 198.544 75.6271C197.997 75.2649 197.651 74.7358 197.505 74.0398L198.698 73.7415C198.812 74.1818 199.027 74.5121 199.343 74.7322C199.662 74.9524 200.08 75.0625 200.595 75.0625C201.181 75.0625 201.646 74.9382 201.99 74.6896C202.338 74.4375 202.512 74.1357 202.512 73.7841C202.512 73.5 202.413 73.2621 202.214 73.0703C202.015 72.875 201.71 72.7294 201.298 72.6335L199.934 72.3139C199.185 72.1364 198.634 71.8612 198.283 71.4883C197.935 71.1119 197.761 70.6413 197.761 70.0767C197.761 69.6151 197.89 69.2067 198.15 68.8516C198.412 68.4964 198.769 68.2177 199.22 68.0153C199.675 67.8129 200.19 67.7116 200.765 67.7116C201.575 67.7116 202.21 67.8892 202.672 68.2443C203.137 68.5994 203.468 69.0682 203.663 69.6506ZM206.876 73.017L206.855 71.4616H207.111L210.69 67.8182H212.245L208.432 71.6747H208.325L206.876 73.017ZM205.704 76V65.0909H206.961V76H205.704ZM210.903 76L207.707 71.9517L208.602 71.0781L212.501 76H210.903ZM213.863 76V67.8182H215.121V76H213.863ZM214.503 66.4545C214.258 66.4545 214.046 66.3711 213.869 66.2042C213.695 66.0373 213.608 65.8366 213.608 65.6023C213.608 65.3679 213.695 65.1673 213.869 65.0004C214.046 64.8335 214.258 64.75 214.503 64.75C214.748 64.75 214.957 64.8335 215.131 65.0004C215.309 65.1673 215.398 65.3679 215.398 65.6023C215.398 65.8366 215.309 66.0373 215.131 66.2042C214.957 66.3711 214.748 66.4545 214.503 66.4545ZM218.68 65.0909V76H217.423V65.0909H218.68ZM222.24 65.0909V76H220.983V65.0909H222.24ZM230.338 69.6506L229.208 69.9702C229.137 69.782 229.033 69.5991 228.894 69.4215C228.759 69.2404 228.574 69.0913 228.34 68.9741C228.106 68.8569 227.806 68.7983 227.44 68.7983C226.939 68.7983 226.522 68.9137 226.188 69.1445C225.858 69.3718 225.693 69.6612 225.693 70.0128C225.693 70.3253 225.806 70.5721 226.034 70.7532C226.261 70.9343 226.616 71.0852 227.099 71.206L228.313 71.5043C229.045 71.6818 229.59 71.9535 229.949 72.3192C230.307 72.6815 230.487 73.1484 230.487 73.7202C230.487 74.1889 230.352 74.608 230.082 74.9773C229.816 75.3466 229.443 75.6378 228.963 75.8509C228.484 76.0639 227.926 76.1705 227.291 76.1705C226.456 76.1705 225.766 75.9893 225.219 75.6271C224.672 75.2649 224.326 74.7358 224.18 74.0398L225.373 73.7415C225.487 74.1818 225.702 74.5121 226.018 74.7322C226.337 74.9524 226.755 75.0625 227.269 75.0625C227.855 75.0625 228.321 74.9382 228.665 74.6896C229.013 74.4375 229.187 74.1357 229.187 73.7841C229.187 73.5 229.088 73.2621 228.889 73.0703C228.69 72.875 228.384 72.7294 227.973 72.6335L226.609 72.3139C225.86 72.1364 225.309 71.8612 224.958 71.4883C224.61 71.1119 224.436 70.6413 224.436 70.0767C224.436 69.6151 224.565 69.2067 224.824 68.8516C225.087 68.4964 225.444 68.2177 225.895 68.0153C226.35 67.8129 226.865 67.7116 227.44 67.7116C228.25 67.7116 228.885 67.8892 229.347 68.2443C229.812 68.5994 230.142 69.0682 230.338 69.6506Z" fill="#43505B"/>
</svg>
