<svg width="317" height="86" viewBox="0 0 317 86" fill="none" xmlns="http://www.w3.org/2000/svg">
<rect width="86" height="86" rx="8" fill="#FDF1EF"/>
<path d="M50.8789 43.8259H50.8969" stroke="#EF6767" stroke-width="2.5" stroke-linecap="round" stroke-linejoin="round"/>
<path d="M42.8604 43.8262H42.8784" stroke="#EF6767" stroke-width="2.5" stroke-linecap="round" stroke-linejoin="round"/>
<path d="M34.8428 43.8259H34.8608" stroke="#EF6767" stroke-width="2.5" stroke-linecap="round" stroke-linejoin="round"/>
<path fill-rule="evenodd" clip-rule="evenodd" d="M57.1421 57.1397C51.0319 63.2527 41.9792 64.5734 34.5726 61.148C33.4792 60.7078 26.4023 62.6677 24.8667 61.134C23.3311 59.5982 25.2928 52.5203 24.8526 51.4267C21.4257 44.0211 22.7482 34.9652 28.8604 28.8542C36.6629 21.0486 49.3395 21.0486 57.1421 28.8542C64.9607 36.6719 64.9446 49.3361 57.1421 57.1397Z" stroke="#EF6767" stroke-width="2.5" stroke-linecap="round" stroke-linejoin="round"/>
<path d="M103.03 17.3011V15.206L109.202 5.45455H110.949V8.4375H109.884L105.729 15.0213V15.1349H114.344V17.3011H103.03ZM109.969 20V16.6619L109.997 15.7244V5.45455H112.483V20H109.969ZM121.716 20V5.45455H124.351V17.7912H130.757V20H121.716ZM132.93 20V9.09091H135.501V20H132.93ZM134.223 7.54261C133.816 7.54261 133.465 7.40767 133.172 7.13778C132.878 6.86316 132.732 6.53409 132.732 6.15057C132.732 5.76231 132.878 5.43324 133.172 5.16335C133.465 4.88873 133.816 4.75142 134.223 4.75142C134.635 4.75142 134.985 4.88873 135.274 5.16335C135.568 5.43324 135.714 5.76231 135.714 6.15057C135.714 6.53409 135.568 6.86316 135.274 7.13778C134.985 7.40767 134.635 7.54261 134.223 7.54261ZM147.89 9.09091L144.005 20H141.164L137.279 9.09091H140.02L142.527 17.1946H142.641L145.155 9.09091H147.89ZM154.127 20.2131C153.033 20.2131 152.089 19.9858 151.293 19.5312C150.503 19.072 149.894 18.4233 149.468 17.5852C149.042 16.7424 148.829 15.7505 148.829 14.6094C148.829 13.4872 149.042 12.5024 149.468 11.6548C149.899 10.8026 150.5 10.1397 151.272 9.66619C152.044 9.18797 152.951 8.94886 153.992 8.94886C154.665 8.94886 155.299 9.05777 155.896 9.27557C156.497 9.48864 157.027 9.82008 157.487 10.2699C157.951 10.7197 158.315 11.2926 158.58 11.9886C158.845 12.6799 158.978 13.5038 158.978 14.4602V15.2486H150.036V13.5156H156.513C156.509 13.0232 156.402 12.5852 156.194 12.2017C155.986 11.8134 155.694 11.508 155.32 11.2855C154.951 11.063 154.52 10.9517 154.028 10.9517C153.502 10.9517 153.04 11.0795 152.643 11.3352C152.245 11.5862 151.935 11.9176 151.712 12.3295C151.495 12.7367 151.383 13.1842 151.379 13.6719V15.1847C151.379 15.8191 151.495 16.3636 151.727 16.8182C151.959 17.268 152.283 17.6136 152.7 17.8551C153.116 18.0919 153.604 18.2102 154.163 18.2102C154.537 18.2102 154.875 18.1581 155.178 18.054C155.481 17.9451 155.744 17.7865 155.967 17.5781C156.189 17.3698 156.357 17.1117 156.471 16.804L158.871 17.0739C158.72 17.7083 158.431 18.2623 158.005 18.7358C157.584 19.2045 157.044 19.5691 156.386 19.8295C155.728 20.0852 154.975 20.2131 154.127 20.2131ZM171.157 20H166.228V5.45455H171.256C172.7 5.45455 173.941 5.74574 174.978 6.32812C176.019 6.90578 176.819 7.73674 177.378 8.82102C177.937 9.9053 178.216 11.2027 178.216 12.7131C178.216 14.2282 177.935 15.5303 177.371 16.6193C176.812 17.7083 176.005 18.544 174.949 19.1264C173.898 19.7088 172.634 20 171.157 20ZM168.863 17.7202H171.029C172.042 17.7202 172.887 17.5355 173.564 17.1662C174.241 16.7921 174.75 16.2358 175.091 15.4972C175.432 14.7538 175.603 13.8258 175.603 12.7131C175.603 11.6004 175.432 10.6771 175.091 9.94318C174.75 9.20455 174.246 8.65294 173.578 8.28835C172.916 7.91903 172.092 7.73438 171.107 7.73438H168.863V17.7202ZM185.365 20.2131C184.299 20.2131 183.376 19.9787 182.595 19.5099C181.814 19.0412 181.208 18.3854 180.777 17.5426C180.35 16.6998 180.137 15.715 180.137 14.5881C180.137 13.4612 180.35 12.474 180.777 11.6264C181.208 10.7789 181.814 10.1207 182.595 9.65199C183.376 9.18324 184.299 8.94886 185.365 8.94886C186.43 8.94886 187.353 9.18324 188.135 9.65199C188.916 10.1207 189.52 10.7789 189.946 11.6264C190.377 12.474 190.592 13.4612 190.592 14.5881C190.592 15.715 190.377 16.6998 189.946 17.5426C189.52 18.3854 188.916 19.0412 188.135 19.5099C187.353 19.9787 186.43 20.2131 185.365 20.2131ZM185.379 18.1534C185.957 18.1534 186.44 17.9948 186.828 17.6776C187.216 17.3556 187.505 16.9247 187.694 16.3849C187.888 15.8452 187.985 15.2438 187.985 14.581C187.985 13.9134 187.888 13.3097 187.694 12.7699C187.505 12.2254 187.216 11.7921 186.828 11.4702C186.44 11.1482 185.957 10.9872 185.379 10.9872C184.787 10.9872 184.295 11.1482 183.902 11.4702C183.513 11.7921 183.222 12.2254 183.028 12.7699C182.839 13.3097 182.744 13.9134 182.744 14.581C182.744 15.2438 182.839 15.8452 183.028 16.3849C183.222 16.9247 183.513 17.3556 183.902 17.6776C184.295 17.9948 184.787 18.1534 185.379 18.1534ZM199.727 15.4119V9.09091H202.298V20H199.805V18.0611H199.692C199.446 18.6719 199.041 19.1714 198.477 19.5597C197.919 19.9479 197.23 20.142 196.411 20.142C195.696 20.142 195.063 19.9834 194.514 19.6662C193.97 19.3442 193.544 18.8778 193.236 18.267C192.928 17.6515 192.774 16.9081 192.774 16.0369V9.09091H195.345V15.6392C195.345 16.3305 195.535 16.8797 195.913 17.2869C196.292 17.6941 196.789 17.8977 197.405 17.8977C197.784 17.8977 198.151 17.8054 198.506 17.6207C198.861 17.4361 199.152 17.1615 199.379 16.7969C199.611 16.4276 199.727 15.9659 199.727 15.4119ZM205.056 20V5.45455H207.627V10.8949H207.733C207.866 10.6297 208.053 10.348 208.294 10.0497C208.536 9.74669 208.863 9.48864 209.275 9.27557C209.686 9.05777 210.212 8.94886 210.851 8.94886C211.694 8.94886 212.454 9.1643 213.131 9.59517C213.813 10.0213 214.353 10.6534 214.75 11.4915C215.153 12.3248 215.354 13.3475 215.354 14.5597C215.354 15.7576 215.158 16.7756 214.765 17.6136C214.372 18.4517 213.837 19.0909 213.159 19.5312C212.482 19.9716 211.715 20.1918 210.858 20.1918C210.233 20.1918 209.715 20.0876 209.303 19.8793C208.891 19.6709 208.56 19.42 208.309 19.1264C208.062 18.8281 207.871 18.5464 207.733 18.2812H207.584V20H205.056ZM207.577 14.5455C207.577 15.2509 207.676 15.8688 207.875 16.3991C208.079 16.9295 208.37 17.3437 208.749 17.642C209.132 17.9356 209.596 18.0824 210.141 18.0824C210.709 18.0824 211.185 17.9309 211.569 17.6278C211.952 17.3201 212.241 16.901 212.435 16.3707C212.634 15.8357 212.733 15.2273 212.733 14.5455C212.733 13.8684 212.636 13.267 212.442 12.7415C212.248 12.2159 211.959 11.804 211.576 11.5057C211.192 11.2074 210.714 11.0582 210.141 11.0582C209.592 11.0582 209.125 11.2027 208.742 11.4915C208.358 11.7803 208.067 12.1851 207.868 12.706C207.674 13.2268 207.577 13.84 207.577 14.5455ZM222.987 9.09091V11.0795H216.716V9.09091H222.987ZM218.264 6.47727H220.835V16.7188C220.835 17.0644 220.887 17.3295 220.991 17.5142C221.1 17.6941 221.242 17.8172 221.418 17.8835C221.593 17.9498 221.787 17.983 222 17.983C222.161 17.983 222.308 17.9711 222.44 17.9474C222.578 17.9238 222.682 17.9025 222.753 17.8835L223.186 19.8935C223.049 19.9408 222.852 19.9929 222.597 20.0497C222.346 20.1065 222.038 20.1397 221.673 20.1491C221.029 20.1681 220.449 20.071 219.933 19.858C219.417 19.6402 219.008 19.304 218.705 18.8494C218.406 18.3949 218.259 17.8267 218.264 17.1449V6.47727ZM242.662 10.3622H240.006C239.93 9.92661 239.791 9.54072 239.587 9.20455C239.383 8.86364 239.13 8.57481 238.827 8.33807C238.524 8.10133 238.178 7.92377 237.79 7.8054C237.407 7.68229 236.992 7.62074 236.547 7.62074C235.757 7.62074 235.056 7.8196 234.445 8.21733C233.834 8.61032 233.356 9.18797 233.01 9.95028C232.665 10.7079 232.492 11.6335 232.492 12.7273C232.492 13.84 232.665 14.7775 233.01 15.5398C233.361 16.2973 233.839 16.8703 234.445 17.2585C235.056 17.642 235.754 17.8338 236.54 17.8338C236.976 17.8338 237.383 17.777 237.762 17.6634C238.145 17.545 238.489 17.3722 238.792 17.1449C239.099 16.9176 239.357 16.6383 239.566 16.3068C239.779 15.9754 239.926 15.5966 240.006 15.1705L242.662 15.1847C242.563 15.8759 242.347 16.5246 242.016 17.1307C241.689 17.7367 241.261 18.2718 240.73 18.7358C240.2 19.1951 239.58 19.5549 238.87 19.8153C238.159 20.071 237.371 20.1989 236.505 20.1989C235.226 20.1989 234.085 19.9029 233.081 19.3111C232.078 18.7192 231.287 17.8646 230.709 16.7472C230.132 15.6297 229.843 14.2898 229.843 12.7273C229.843 11.16 230.134 9.82008 230.716 8.70739C231.299 7.58996 232.092 6.73532 233.096 6.14347C234.099 5.55161 235.236 5.25568 236.505 5.25568C237.314 5.25568 238.067 5.36932 238.763 5.59659C239.459 5.82386 240.079 6.15767 240.624 6.59801C241.168 7.03362 241.616 7.56866 241.966 8.20312C242.321 8.83286 242.553 9.55256 242.662 10.3622ZM247.533 5.45455V20H244.962V5.45455H247.533ZM255.006 20.2131C253.912 20.2131 252.968 19.9858 252.172 19.5312C251.382 19.072 250.773 18.4233 250.347 17.5852C249.921 16.7424 249.708 15.7505 249.708 14.6094C249.708 13.4872 249.921 12.5024 250.347 11.6548C250.778 10.8026 251.379 10.1397 252.151 9.66619C252.923 9.18797 253.829 8.94886 254.871 8.94886C255.543 8.94886 256.178 9.05777 256.775 9.27557C257.376 9.48864 257.906 9.82008 258.365 10.2699C258.829 10.7197 259.194 11.2926 259.459 11.9886C259.724 12.6799 259.857 13.5038 259.857 14.4602V15.2486H250.915V13.5156H257.392C257.388 13.0232 257.281 12.5852 257.073 12.2017C256.864 11.8134 256.573 11.508 256.199 11.2855C255.83 11.063 255.399 10.9517 254.907 10.9517C254.381 10.9517 253.919 11.0795 253.522 11.3352C253.124 11.5862 252.814 11.9176 252.591 12.3295C252.373 12.7367 252.262 13.1842 252.257 13.6719V15.1847C252.257 15.8191 252.373 16.3636 252.605 16.8182C252.837 17.268 253.162 17.6136 253.578 17.8551C253.995 18.0919 254.483 18.2102 255.042 18.2102C255.416 18.2102 255.754 18.1581 256.057 18.054C256.36 17.9451 256.623 17.7865 256.846 17.5781C257.068 17.3698 257.236 17.1117 257.35 16.804L259.75 17.0739C259.599 17.7083 259.31 18.2623 258.884 18.7358C258.462 19.2045 257.923 19.5691 257.265 19.8295C256.606 20.0852 255.854 20.2131 255.006 20.2131ZM265.171 20.2202C264.48 20.2202 263.857 20.0971 263.303 19.8509C262.754 19.5999 262.318 19.2306 261.996 18.7429C261.679 18.2552 261.521 17.6539 261.521 16.9389C261.521 16.3234 261.634 15.8144 261.862 15.4119C262.089 15.0095 262.399 14.6875 262.792 14.446C263.185 14.2045 263.628 14.0223 264.12 13.8991C264.617 13.7713 265.131 13.679 265.661 13.6222C266.3 13.5559 266.819 13.4967 267.217 13.4446C267.614 13.3878 267.903 13.3026 268.083 13.1889C268.268 13.0705 268.36 12.8883 268.36 12.642V12.5994C268.36 12.0644 268.201 11.6501 267.884 11.3565C267.567 11.063 267.11 10.9162 266.513 10.9162C265.884 10.9162 265.384 11.0535 265.015 11.3281C264.65 11.6027 264.404 11.9271 264.276 12.3011L261.876 11.9602C262.065 11.2973 262.378 10.7434 262.813 10.2983C263.249 9.84848 263.781 9.51231 264.411 9.28977C265.041 9.0625 265.737 8.94886 266.499 8.94886C267.025 8.94886 267.548 9.01042 268.069 9.13352C268.59 9.25663 269.066 9.46023 269.496 9.74432C269.927 10.0237 270.273 10.4048 270.533 10.8878C270.799 11.3707 270.931 11.9744 270.931 12.6989V20H268.46V18.5014H268.374C268.218 18.8045 267.998 19.0885 267.714 19.3537C267.434 19.6141 267.082 19.8248 266.656 19.9858C266.234 20.142 265.739 20.2202 265.171 20.2202ZM265.839 18.331C266.355 18.331 266.802 18.2292 267.181 18.0256C267.56 17.8172 267.851 17.5426 268.055 17.2017C268.263 16.8608 268.367 16.4891 268.367 16.0866V14.8011C268.287 14.8674 268.149 14.929 267.955 14.9858C267.766 15.0426 267.553 15.0923 267.316 15.1349C267.079 15.1776 266.845 15.2154 266.613 15.2486C266.381 15.2817 266.18 15.3101 266.009 15.3338C265.626 15.3859 265.282 15.4711 264.979 15.5895C264.676 15.7079 264.437 15.8736 264.262 16.0866C264.087 16.295 263.999 16.5649 263.999 16.8963C263.999 17.3698 264.172 17.7273 264.518 17.9688C264.863 18.2102 265.304 18.331 265.839 18.331ZM273.516 20V9.09091H276.009V10.9091H276.123C276.322 10.2794 276.663 9.79403 277.146 9.45312C277.633 9.10748 278.19 8.93466 278.815 8.93466C278.957 8.93466 279.115 8.94176 279.29 8.95597C279.47 8.96544 279.62 8.98201 279.738 9.00568V11.3707C279.629 11.3329 279.456 11.2997 279.219 11.2713C278.987 11.2382 278.763 11.2216 278.545 11.2216C278.076 11.2216 277.655 11.3234 277.281 11.527C276.911 11.7259 276.62 12.0028 276.407 12.358C276.194 12.7131 276.087 13.1226 276.087 13.5866V20H273.516ZM281.446 20V9.09091H284.017V20H281.446ZM282.739 7.54261C282.331 7.54261 281.981 7.40767 281.688 7.13778C281.394 6.86316 281.247 6.53409 281.247 6.15057C281.247 5.76231 281.394 5.43324 281.688 5.16335C281.981 4.88873 282.331 4.75142 282.739 4.75142C283.151 4.75142 283.501 4.88873 283.79 5.16335C284.083 5.43324 284.23 5.76231 284.23 6.15057C284.23 6.53409 284.083 6.86316 283.79 7.13778C283.501 7.40767 283.151 7.54261 282.739 7.54261ZM289.232 13.608V20H286.661V9.09091H289.118V10.9446H289.246C289.497 10.3338 289.897 9.84848 290.446 9.48864C291 9.12879 291.685 8.94886 292.499 8.94886C293.252 8.94886 293.908 9.10985 294.466 9.43182C295.03 9.75379 295.465 10.2202 295.773 10.831C296.086 11.4418 296.239 12.1828 296.235 13.054V20H293.664V13.4517C293.664 12.7225 293.474 12.152 293.096 11.7401C292.721 11.3281 292.203 11.1222 291.54 11.1222C291.09 11.1222 290.69 11.2216 290.34 11.4205C289.994 11.6146 289.722 11.8963 289.523 12.2656C289.329 12.6349 289.232 13.0824 289.232 13.608ZM303.593 24.3182C302.669 24.3182 301.876 24.1927 301.213 23.9418C300.551 23.6955 300.018 23.3641 299.615 22.9474C299.213 22.5308 298.934 22.0691 298.777 21.5625L301.093 21.0014C301.197 21.2145 301.348 21.4252 301.547 21.6335C301.746 21.8466 302.014 22.0218 302.35 22.1591C302.691 22.3011 303.119 22.3722 303.635 22.3722C304.364 22.3722 304.968 22.1946 305.446 21.8395C305.925 21.4891 306.164 20.9115 306.164 20.1065V18.0398H306.036C305.903 18.3049 305.709 18.5772 305.453 18.8565C305.203 19.1359 304.869 19.3703 304.452 19.5597C304.04 19.7491 303.522 19.8438 302.897 19.8438C302.059 19.8438 301.299 19.6473 300.617 19.2543C299.94 18.8565 299.4 18.2647 298.998 17.4787C298.6 16.688 298.401 15.6984 298.401 14.5099C298.401 13.312 298.6 12.3011 298.998 11.4773C299.4 10.6487 299.942 10.0213 300.624 9.59517C301.306 9.1643 302.066 8.94886 302.904 8.94886C303.543 8.94886 304.069 9.05777 304.48 9.27557C304.897 9.48864 305.229 9.74669 305.475 10.0497C305.721 10.348 305.908 10.6297 306.036 10.8949H306.178V9.09091H308.713V20.1776C308.713 21.1103 308.491 21.8821 308.046 22.4929C307.601 23.1037 306.992 23.5606 306.221 23.8636C305.449 24.1667 304.573 24.3182 303.593 24.3182ZM303.614 17.8267C304.158 17.8267 304.623 17.6941 305.006 17.429C305.39 17.1638 305.681 16.7827 305.88 16.2855C306.078 15.7884 306.178 15.1918 306.178 14.4957C306.178 13.8092 306.078 13.2079 305.88 12.6918C305.685 12.1757 305.397 11.7756 305.013 11.4915C304.634 11.2027 304.168 11.0582 303.614 11.0582C303.041 11.0582 302.563 11.2074 302.179 11.5057C301.796 11.804 301.507 12.2135 301.313 12.7344C301.119 13.2505 301.022 13.8376 301.022 14.4957C301.022 15.1634 301.119 15.7481 301.313 16.25C301.512 16.7472 301.803 17.1354 302.186 17.4148C302.575 17.6894 303.051 17.8267 303.614 17.8267ZM111.339 35.4531C111.273 34.8329 110.994 34.3499 110.501 34.0043C110.014 33.6586 109.379 33.4858 108.598 33.4858C108.049 33.4858 107.578 33.5687 107.185 33.7344C106.792 33.9001 106.491 34.125 106.283 34.4091C106.074 34.6932 105.968 35.0175 105.963 35.3821C105.963 35.6851 106.032 35.9479 106.169 36.1705C106.311 36.393 106.503 36.5824 106.744 36.7386C106.986 36.8902 107.253 37.018 107.547 37.1222C107.84 37.2263 108.136 37.3139 108.435 37.3849L109.798 37.7259C110.348 37.8537 110.875 38.0265 111.382 38.2443C111.893 38.4621 112.35 38.7367 112.753 39.0682C113.16 39.3996 113.482 39.7997 113.719 40.2685C113.955 40.7372 114.074 41.2865 114.074 41.9162C114.074 42.7685 113.856 43.5189 113.42 44.1676C112.985 44.8116 112.355 45.3158 111.531 45.6804C110.712 46.0402 109.72 46.2202 108.555 46.2202C107.424 46.2202 106.441 46.045 105.608 45.6946C104.779 45.3442 104.131 44.8329 103.662 44.1605C103.198 43.4882 102.947 42.669 102.909 41.7031H105.501C105.539 42.2098 105.696 42.6312 105.97 42.9673C106.245 43.3035 106.602 43.5545 107.043 43.7202C107.488 43.8859 107.985 43.9688 108.534 43.9688C109.107 43.9688 109.609 43.8835 110.04 43.7131C110.475 43.5379 110.816 43.2964 111.062 42.9886C111.309 42.6761 111.434 42.3116 111.439 41.8949C111.434 41.5161 111.323 41.2036 111.105 40.9574C110.887 40.7064 110.582 40.4981 110.189 40.3324C109.801 40.1619 109.346 40.0104 108.825 39.8778L107.17 39.4517C105.973 39.1439 105.026 38.6776 104.33 38.0526C103.638 37.4228 103.293 36.5871 103.293 35.5455C103.293 34.6884 103.525 33.938 103.989 33.294C104.457 32.6501 105.094 32.1506 105.899 31.7955C106.704 31.4356 107.616 31.2557 108.634 31.2557C109.666 31.2557 110.57 31.4356 111.347 31.7955C112.128 32.1506 112.741 32.6454 113.186 33.2798C113.631 33.9096 113.861 34.634 113.875 35.4531H111.339ZM121.139 46.2131C120.045 46.2131 119.1 45.9858 118.305 45.5312C117.514 45.072 116.906 44.4233 116.48 43.5852C116.054 42.7424 115.841 41.7505 115.841 40.6094C115.841 39.4872 116.054 38.5024 116.48 37.6548C116.911 36.8026 117.512 36.1397 118.284 35.6662C119.056 35.188 119.962 34.9489 121.004 34.9489C121.676 34.9489 122.311 35.0578 122.907 35.2756C123.509 35.4886 124.039 35.8201 124.498 36.2699C124.962 36.7197 125.327 37.2926 125.592 37.9886C125.857 38.6799 125.99 39.5038 125.99 40.4602V41.2486H117.048V39.5156H123.525C123.52 39.0232 123.414 38.5852 123.206 38.2017C122.997 37.8134 122.706 37.508 122.332 37.2855C121.963 37.063 121.532 36.9517 121.039 36.9517C120.514 36.9517 120.052 37.0795 119.654 37.3352C119.257 37.5862 118.947 37.9176 118.724 38.3295C118.506 38.7367 118.395 39.1842 118.39 39.6719V41.1847C118.39 41.8191 118.506 42.3636 118.738 42.8182C118.97 43.268 119.295 43.6136 119.711 43.8551C120.128 44.0919 120.616 44.2102 121.174 44.2102C121.548 44.2102 121.887 44.1581 122.19 44.054C122.493 43.9451 122.756 43.7865 122.978 43.5781C123.201 43.3698 123.369 43.1117 123.483 42.804L125.883 43.0739C125.732 43.7083 125.443 44.2623 125.017 44.7358C124.595 45.2045 124.056 45.5691 123.397 45.8295C122.739 46.0852 121.986 46.2131 121.139 46.2131ZM136.787 37.9744L134.443 38.2301C134.377 37.9934 134.261 37.7708 134.095 37.5625C133.934 37.3542 133.716 37.1861 133.442 37.0582C133.167 36.9304 132.831 36.8665 132.433 36.8665C131.898 36.8665 131.448 36.9825 131.084 37.2145C130.724 37.4465 130.546 37.7472 130.551 38.1165C130.546 38.4337 130.662 38.6918 130.899 38.8906C131.141 39.0895 131.538 39.2528 132.092 39.3807L133.953 39.7784C134.985 40.0009 135.752 40.3537 136.254 40.8366C136.761 41.3196 137.017 41.9517 137.021 42.733C137.017 43.4195 136.815 44.0256 136.418 44.5511C136.025 45.072 135.478 45.4792 134.777 45.7727C134.076 46.0663 133.271 46.2131 132.362 46.2131C131.027 46.2131 129.952 45.9337 129.138 45.375C128.323 44.8116 127.838 44.0279 127.682 43.0241L130.189 42.7827C130.303 43.2751 130.544 43.6468 130.913 43.8977C131.283 44.1487 131.763 44.2741 132.355 44.2741C132.966 44.2741 133.456 44.1487 133.825 43.8977C134.199 43.6468 134.386 43.3366 134.386 42.9673C134.386 42.6548 134.266 42.3968 134.024 42.1932C133.787 41.9896 133.418 41.8333 132.916 41.7244L131.055 41.3338C130.009 41.116 129.235 40.7491 128.733 40.233C128.231 39.7121 127.982 39.054 127.987 38.2585C127.982 37.5862 128.165 37.0038 128.534 36.5114C128.908 36.0142 129.427 35.6307 130.089 35.3608C130.757 35.0862 131.527 34.9489 132.398 34.9489C133.676 34.9489 134.682 35.2211 135.416 35.7656C136.155 36.3101 136.612 37.0464 136.787 37.9744ZM147.763 37.9744L145.42 38.2301C145.353 37.9934 145.237 37.7708 145.072 37.5625C144.911 37.3542 144.693 37.1861 144.418 37.0582C144.144 36.9304 143.808 36.8665 143.41 36.8665C142.875 36.8665 142.425 36.9825 142.06 37.2145C141.701 37.4465 141.523 37.7472 141.528 38.1165C141.523 38.4337 141.639 38.6918 141.876 38.8906C142.117 39.0895 142.515 39.2528 143.069 39.3807L144.93 39.7784C145.962 40.0009 146.729 40.3537 147.231 40.8366C147.737 41.3196 147.993 41.9517 147.998 42.733C147.993 43.4195 147.792 44.0256 147.394 44.5511C147.001 45.072 146.454 45.4792 145.754 45.7727C145.053 46.0663 144.248 46.2131 143.339 46.2131C142.004 46.2131 140.929 45.9337 140.114 45.375C139.3 44.8116 138.815 44.0279 138.658 43.0241L141.165 42.7827C141.279 43.2751 141.521 43.6468 141.89 43.8977C142.259 44.1487 142.74 44.2741 143.332 44.2741C143.942 44.2741 144.433 44.1487 144.802 43.8977C145.176 43.6468 145.363 43.3366 145.363 42.9673C145.363 42.6548 145.242 42.3968 145.001 42.1932C144.764 41.9896 144.395 41.8333 143.893 41.7244L142.032 41.3338C140.986 41.116 140.211 40.7491 139.71 40.233C139.208 39.7121 138.959 39.054 138.964 38.2585C138.959 37.5862 139.141 37.0038 139.511 36.5114C139.885 36.0142 140.403 35.6307 141.066 35.3608C141.734 35.0862 142.503 34.9489 143.374 34.9489C144.653 34.9489 145.659 35.2211 146.393 35.7656C147.131 36.3101 147.588 37.0464 147.763 37.9744ZM150.118 46V35.0909H152.689V46H150.118ZM151.411 33.5426C151.003 33.5426 150.653 33.4077 150.359 33.1378C150.066 32.8632 149.919 32.5341 149.919 32.1506C149.919 31.7623 150.066 31.4332 150.359 31.1634C150.653 30.8887 151.003 30.7514 151.411 30.7514C151.822 30.7514 152.173 30.8887 152.462 31.1634C152.755 31.4332 152.902 31.7623 152.902 32.1506C152.902 32.5341 152.755 32.8632 152.462 33.1378C152.173 33.4077 151.822 33.5426 151.411 33.5426ZM160.091 46.2131C159.026 46.2131 158.103 45.9787 157.321 45.5099C156.54 45.0412 155.934 44.3854 155.503 43.5426C155.077 42.6998 154.864 41.715 154.864 40.5881C154.864 39.4612 155.077 38.474 155.503 37.6264C155.934 36.7789 156.54 36.1207 157.321 35.652C158.103 35.1832 159.026 34.9489 160.091 34.9489C161.157 34.9489 162.08 35.1832 162.861 35.652C163.642 36.1207 164.246 36.7789 164.672 37.6264C165.103 38.474 165.319 39.4612 165.319 40.5881C165.319 41.715 165.103 42.6998 164.672 43.5426C164.246 44.3854 163.642 45.0412 162.861 45.5099C162.08 45.9787 161.157 46.2131 160.091 46.2131ZM160.105 44.1534C160.683 44.1534 161.166 43.9948 161.554 43.6776C161.943 43.3556 162.231 42.9247 162.421 42.3849C162.615 41.8452 162.712 41.2438 162.712 40.581C162.712 39.9134 162.615 39.3097 162.421 38.7699C162.231 38.2254 161.943 37.7921 161.554 37.4702C161.166 37.1482 160.683 36.9872 160.105 36.9872C159.514 36.9872 159.021 37.1482 158.628 37.4702C158.24 37.7921 157.949 38.2254 157.755 38.7699C157.565 39.3097 157.471 39.9134 157.471 40.581C157.471 41.2438 157.565 41.8452 157.755 42.3849C157.949 42.9247 158.24 43.3556 158.628 43.6776C159.021 43.9948 159.514 44.1534 160.105 44.1534ZM170.072 39.608V46H167.501V35.0909H169.958V36.9446H170.086C170.337 36.3338 170.737 35.8485 171.286 35.4886C171.84 35.1288 172.524 34.9489 173.339 34.9489C174.092 34.9489 174.747 35.1098 175.306 35.4318C175.87 35.7538 176.305 36.2202 176.613 36.831C176.925 37.4418 177.079 38.1828 177.075 39.054V46H174.504V39.4517C174.504 38.7225 174.314 38.152 173.935 37.7401C173.561 37.3281 173.043 37.1222 172.38 37.1222C171.93 37.1222 171.53 37.2216 171.18 37.4205C170.834 37.6146 170.562 37.8963 170.363 38.2656C170.169 38.6349 170.072 39.0824 170.072 39.608Z" fill="#0A2134"/>
<path d="M110.778 68.5C110.661 68.1413 110.507 67.82 110.315 67.5359C110.127 67.2482 109.901 67.0032 109.638 66.8008C109.379 66.5984 109.085 66.4439 108.754 66.3374C108.424 66.2308 108.062 66.1776 107.668 66.1776C107.021 66.1776 106.434 66.3445 105.904 66.6783C105.375 67.0121 104.955 67.5039 104.642 68.1538C104.33 68.8036 104.173 69.6009 104.173 70.5455C104.173 71.4901 104.331 72.2873 104.647 72.9371C104.963 73.587 105.391 74.0788 105.931 74.4126C106.471 74.7464 107.078 74.9134 107.753 74.9134C108.378 74.9134 108.928 74.7802 109.404 74.5138C109.884 74.244 110.256 73.864 110.523 73.3739C110.793 72.8803 110.928 72.2997 110.928 71.6321L111.332 71.7173H108.051V70.5455H112.206V71.7173C112.206 72.6158 112.014 73.397 111.631 74.0611C111.251 74.7251 110.725 75.2401 110.054 75.6058C109.386 75.968 108.619 76.1491 107.753 76.1491C106.787 76.1491 105.938 75.9219 105.207 75.4673C104.479 75.0128 103.911 74.3665 103.502 73.5284C103.097 72.6903 102.895 71.696 102.895 70.5455C102.895 69.6825 103.01 68.9066 103.241 68.2177C103.475 67.5252 103.806 66.9357 104.232 66.4492C104.658 65.9627 105.162 65.5898 105.745 65.3306C106.327 65.0714 106.968 64.9418 107.668 64.9418C108.243 64.9418 108.779 65.0288 109.276 65.2028C109.777 65.3732 110.223 65.6165 110.613 65.9325C111.007 66.245 111.336 66.6197 111.599 67.0565C111.862 67.4897 112.043 67.9709 112.142 68.5H110.778ZM116.706 76.1918C116.187 76.1918 115.717 76.0941 115.294 75.8988C114.872 75.6999 114.536 75.4141 114.287 75.0412C114.039 74.6648 113.915 74.2102 113.915 73.6776C113.915 73.2088 114.007 72.8288 114.191 72.5376C114.376 72.2429 114.623 72.0121 114.932 71.8452C115.241 71.6783 115.582 71.554 115.955 71.4723C116.331 71.3871 116.709 71.3196 117.089 71.2699C117.586 71.206 117.989 71.158 118.298 71.1261C118.611 71.0906 118.838 71.032 118.98 70.9503C119.126 70.8686 119.199 70.7266 119.199 70.5241V70.4815C119.199 69.956 119.055 69.5476 118.767 69.2564C118.483 68.9652 118.052 68.8196 117.473 68.8196C116.873 68.8196 116.402 68.951 116.061 69.2138C115.72 69.4766 115.481 69.7571 115.342 70.0554L114.149 69.6293C114.362 69.1321 114.646 68.745 115.001 68.468C115.36 68.1875 115.75 67.9922 116.173 67.8821C116.599 67.7685 117.018 67.7116 117.43 67.7116C117.693 67.7116 117.995 67.7436 118.336 67.8075C118.68 67.8679 119.012 67.994 119.332 68.1857C119.655 68.3775 119.923 68.6669 120.136 69.054C120.349 69.4411 120.456 69.9595 120.456 70.6094V76H119.199V74.892H119.135C119.049 75.0696 118.907 75.2596 118.709 75.462C118.51 75.6644 118.245 75.8366 117.915 75.9787C117.585 76.1207 117.182 76.1918 116.706 76.1918ZM116.897 75.0625C117.395 75.0625 117.814 74.9648 118.155 74.7695C118.499 74.5742 118.758 74.3221 118.932 74.0131C119.11 73.7042 119.199 73.3793 119.199 73.0384V71.8878C119.145 71.9517 119.028 72.0103 118.847 72.0636C118.669 72.1133 118.464 72.1577 118.229 72.1967C117.998 72.2322 117.773 72.2642 117.553 72.2926C117.336 72.3175 117.16 72.3388 117.025 72.3565C116.699 72.3991 116.393 72.4684 116.109 72.5643C115.829 72.6566 115.601 72.7969 115.427 72.9851C115.257 73.1697 115.172 73.4219 115.172 73.7415C115.172 74.1783 115.333 74.5085 115.656 74.7322C115.983 74.9524 116.397 75.0625 116.897 75.0625ZM122.75 76V67.8182H124.007V76H122.75ZM123.389 66.4545C123.144 66.4545 122.933 66.3711 122.756 66.2042C122.581 66.0373 122.494 65.8366 122.494 65.6023C122.494 65.3679 122.581 65.1673 122.756 65.0004C122.933 64.8335 123.144 64.75 123.389 64.75C123.634 64.75 123.844 64.8335 124.018 65.0004C124.195 65.1673 124.284 65.3679 124.284 65.6023C124.284 65.8366 124.195 66.0373 124.018 66.2042C123.844 66.3711 123.634 66.4545 123.389 66.4545ZM127.567 71.0781V76H126.31V67.8182H127.524V69.0966H127.631C127.823 68.6811 128.114 68.3473 128.504 68.0952C128.895 67.8395 129.399 67.7116 130.017 67.7116C130.571 67.7116 131.056 67.8253 131.471 68.0526C131.887 68.2763 132.21 68.6172 132.441 69.0753C132.672 69.5298 132.787 70.1051 132.787 70.8011V76H131.53V70.8864C131.53 70.2436 131.363 69.7429 131.029 69.3842C130.695 69.022 130.237 68.8409 129.655 68.8409C129.254 68.8409 128.895 68.9279 128.579 69.1019C128.266 69.2759 128.02 69.5298 127.839 69.8636C127.657 70.1974 127.567 70.6023 127.567 71.0781ZM141.711 76.1918C141.192 76.1918 140.722 76.0941 140.299 75.8988C139.876 75.6999 139.541 75.4141 139.292 75.0412C139.044 74.6648 138.919 74.2102 138.919 73.6776C138.919 73.2088 139.012 72.8288 139.196 72.5376C139.381 72.2429 139.628 72.0121 139.937 71.8452C140.246 71.6783 140.587 71.554 140.96 71.4723C141.336 71.3871 141.714 71.3196 142.094 71.2699C142.591 71.206 142.994 71.158 143.303 71.1261C143.616 71.0906 143.843 71.032 143.985 70.9503C144.131 70.8686 144.203 70.7266 144.203 70.5241V70.4815C144.203 69.956 144.06 69.5476 143.772 69.2564C143.488 68.9652 143.056 68.8196 142.478 68.8196C141.877 68.8196 141.407 68.951 141.066 69.2138C140.725 69.4766 140.485 69.7571 140.347 70.0554L139.154 69.6293C139.367 69.1321 139.651 68.745 140.006 68.468C140.365 68.1875 140.755 67.9922 141.178 67.8821C141.604 67.7685 142.023 67.7116 142.435 67.7116C142.698 67.7116 143 67.7436 143.341 67.8075C143.685 67.8679 144.017 67.994 144.337 68.1857C144.66 68.3775 144.928 68.6669 145.141 69.054C145.354 69.4411 145.461 69.9595 145.461 70.6094V76H144.203V74.892H144.14C144.054 75.0696 143.912 75.2596 143.713 75.462C143.515 75.6644 143.25 75.8366 142.92 75.9787C142.589 76.1207 142.186 76.1918 141.711 76.1918ZM141.902 75.0625C142.4 75.0625 142.819 74.9648 143.159 74.7695C143.504 74.5742 143.763 74.3221 143.937 74.0131C144.115 73.7042 144.203 73.3793 144.203 73.0384V71.8878C144.15 71.9517 144.033 72.0103 143.852 72.0636C143.674 72.1133 143.468 72.1577 143.234 72.1967C143.003 72.2322 142.778 72.2642 142.558 72.2926C142.341 72.3175 142.165 72.3388 142.03 72.3565C141.703 72.3991 141.398 72.4684 141.114 72.5643C140.833 72.6566 140.606 72.7969 140.432 72.9851C140.262 73.1697 140.176 73.4219 140.176 73.7415C140.176 74.1783 140.338 74.5085 140.661 74.7322C140.988 74.9524 141.402 75.0625 141.902 75.0625ZM155.298 76.1705C154.531 76.1705 153.87 75.9893 153.316 75.6271C152.762 75.2649 152.336 74.766 152.038 74.1303C151.739 73.4947 151.59 72.7685 151.59 71.9517C151.59 71.1207 151.743 70.3874 152.048 69.7518C152.357 69.1126 152.787 68.6136 153.337 68.255C153.891 67.8928 154.538 67.7116 155.276 67.7116C155.852 67.7116 156.37 67.8182 156.832 68.0312C157.293 68.2443 157.672 68.5426 157.966 68.9261C158.261 69.3097 158.444 69.7571 158.515 70.2685H157.258C157.162 69.8956 156.949 69.5653 156.619 69.2777C156.292 68.9865 155.852 68.8409 155.298 68.8409C154.808 68.8409 154.378 68.9687 154.009 69.2244C153.643 69.4766 153.357 69.8335 153.151 70.2951C152.949 70.7532 152.847 71.2912 152.847 71.9091C152.847 72.5412 152.947 73.0916 153.146 73.5604C153.348 74.0291 153.632 74.3931 153.998 74.6523C154.367 74.9116 154.801 75.0412 155.298 75.0412C155.624 75.0412 155.921 74.9844 156.187 74.8707C156.454 74.7571 156.679 74.5938 156.864 74.3807C157.048 74.1676 157.18 73.9119 157.258 73.6136H158.515C158.444 74.0966 158.268 74.5316 157.988 74.9187C157.711 75.3022 157.343 75.6076 156.885 75.8349C156.43 76.0586 155.901 76.1705 155.298 76.1705ZM161.61 65.0909V76H160.353V65.0909H161.61ZM167.343 76.1705C166.554 76.1705 165.874 75.9964 165.303 75.6484C164.734 75.2969 164.296 74.8068 163.987 74.1783C163.681 73.5462 163.529 72.8111 163.529 71.973C163.529 71.1349 163.681 70.3963 163.987 69.7571C164.296 69.1143 164.725 68.6136 165.276 68.255C165.83 67.8928 166.476 67.7116 167.215 67.7116C167.641 67.7116 168.062 67.7827 168.477 67.9247C168.893 68.0668 169.271 68.2976 169.612 68.6172C169.953 68.9332 170.224 69.3523 170.427 69.8743C170.629 70.3963 170.73 71.0391 170.73 71.8026V72.3352H164.424V71.2486H169.452C169.452 70.7869 169.36 70.375 169.175 70.0128C168.994 69.6506 168.735 69.3647 168.397 69.1552C168.064 68.9457 167.669 68.8409 167.215 68.8409C166.714 68.8409 166.281 68.9652 165.915 69.2138C165.553 69.4588 165.274 69.7784 165.079 70.1726C164.884 70.5668 164.786 70.9893 164.786 71.4403V72.1648C164.786 72.7827 164.892 73.3065 165.105 73.7362C165.322 74.1623 165.622 74.4872 166.006 74.7109C166.389 74.9311 166.835 75.0412 167.343 75.0412C167.673 75.0412 167.971 74.995 168.238 74.9027C168.507 74.8068 168.74 74.6648 168.935 74.4766C169.131 74.2848 169.282 74.0469 169.388 73.7628L170.603 74.1037C170.475 74.5156 170.26 74.8778 169.958 75.1903C169.656 75.4993 169.283 75.7408 168.839 75.9148C168.396 76.0852 167.897 76.1705 167.343 76.1705ZM175.05 76.1918C174.532 76.1918 174.061 76.0941 173.639 75.8988C173.216 75.6999 172.881 75.4141 172.632 75.0412C172.384 74.6648 172.259 74.2102 172.259 73.6776C172.259 73.2088 172.352 72.8288 172.536 72.5376C172.721 72.2429 172.968 72.0121 173.277 71.8452C173.586 71.6783 173.926 71.554 174.299 71.4723C174.676 71.3871 175.054 71.3196 175.434 71.2699C175.931 71.206 176.334 71.158 176.643 71.1261C176.956 71.0906 177.183 71.032 177.325 70.9503C177.471 70.8686 177.543 70.7266 177.543 70.5241V70.4815C177.543 69.956 177.4 69.5476 177.112 69.2564C176.828 68.9652 176.396 68.8196 175.817 68.8196C175.217 68.8196 174.747 68.951 174.406 69.2138C174.065 69.4766 173.825 69.7571 173.687 70.0554L172.494 69.6293C172.707 69.1321 172.991 68.745 173.346 68.468C173.705 68.1875 174.095 67.9922 174.518 67.8821C174.944 67.7685 175.363 67.7116 175.775 67.7116C176.038 67.7116 176.339 67.7436 176.68 67.8075C177.025 67.8679 177.357 67.994 177.676 68.1857C178 68.3775 178.268 68.6669 178.481 69.054C178.694 69.4411 178.8 69.9595 178.8 70.6094V76H177.543V74.892H177.479C177.394 75.0696 177.252 75.2596 177.053 75.462C176.854 75.6644 176.59 75.8366 176.26 75.9787C175.929 76.1207 175.526 76.1918 175.05 76.1918ZM175.242 75.0625C175.739 75.0625 176.158 74.9648 176.499 74.7695C176.844 74.5742 177.103 74.3221 177.277 74.0131C177.455 73.7042 177.543 73.3793 177.543 73.0384V71.8878C177.49 71.9517 177.373 72.0103 177.192 72.0636C177.014 72.1133 176.808 72.1577 176.574 72.1967C176.343 72.2322 176.118 72.2642 175.897 72.2926C175.681 72.3175 175.505 72.3388 175.37 72.3565C175.043 72.3991 174.738 72.4684 174.454 72.5643C174.173 72.6566 173.946 72.7969 173.772 72.9851C173.602 73.1697 173.516 73.4219 173.516 73.7415C173.516 74.1783 173.678 74.5085 174.001 74.7322C174.328 74.9524 174.741 75.0625 175.242 75.0625ZM181.095 76V67.8182H182.309V69.054H182.395C182.544 68.6491 182.814 68.3207 183.204 68.0685C183.595 67.8164 184.035 67.6903 184.525 67.6903C184.618 67.6903 184.733 67.6921 184.872 67.6957C185.01 67.6992 185.115 67.7045 185.186 67.7116V68.9901C185.143 68.9794 185.046 68.9634 184.893 68.9421C184.744 68.9173 184.586 68.9048 184.419 68.9048C184.021 68.9048 183.666 68.9883 183.353 69.1552C183.044 69.3185 182.799 69.5458 182.618 69.837C182.441 70.1246 182.352 70.4531 182.352 70.8224V76H181.095ZM196.051 72.6548V67.8182H197.308V76H196.051V74.6151H195.966C195.774 75.0305 195.476 75.3839 195.071 75.6751C194.666 75.9627 194.155 76.1065 193.537 76.1065C193.025 76.1065 192.571 75.9947 192.173 75.771C191.775 75.5437 191.463 75.2028 191.236 74.7482C191.008 74.2901 190.895 73.7131 190.895 73.017V67.8182H192.152V72.9318C192.152 73.5284 192.319 74.0043 192.653 74.3594C192.99 74.7145 193.42 74.892 193.942 74.892C194.254 74.892 194.572 74.8121 194.895 74.6523C195.222 74.4925 195.495 74.2475 195.715 73.9173C195.939 73.587 196.051 73.1662 196.051 72.6548ZM200.868 71.0781V76H199.611V67.8182H200.825V69.0966H200.932C201.123 68.6811 201.415 68.3473 201.805 68.0952C202.196 67.8395 202.7 67.7116 203.318 67.7116C203.872 67.7116 204.357 67.8253 204.772 68.0526C205.188 68.2763 205.511 68.6172 205.742 69.0753C205.972 69.5298 206.088 70.1051 206.088 70.8011V76H204.831V70.8864C204.831 70.2436 204.664 69.7429 204.33 69.3842C203.996 69.022 203.538 68.8409 202.956 68.8409C202.554 68.8409 202.196 68.9279 201.88 69.1019C201.567 69.2759 201.32 69.5298 201.139 69.8636C200.958 70.1974 200.868 70.6023 200.868 71.0781ZM211.474 76.1705C210.793 76.1705 210.191 75.9982 209.669 75.6538C209.147 75.3058 208.738 74.8157 208.444 74.1836C208.149 73.5479 208.001 72.7969 208.001 71.9304C208.001 71.071 208.149 70.3253 208.444 69.6932C208.738 69.0611 209.148 68.5728 209.674 68.2283C210.2 67.8839 210.807 67.7116 211.496 67.7116C212.028 67.7116 212.449 67.8004 212.758 67.978C213.071 68.152 213.309 68.3509 213.472 68.5746C213.639 68.7947 213.768 68.9759 213.861 69.1179H213.967V65.0909H215.224V76H214.01V74.7429H213.861C213.768 74.892 213.637 75.0803 213.467 75.3075C213.296 75.5312 213.053 75.7319 212.737 75.9094C212.421 76.0835 212 76.1705 211.474 76.1705ZM211.645 75.0412C212.149 75.0412 212.575 74.9098 212.923 74.647C213.271 74.3807 213.536 74.0131 213.717 73.5444C213.898 73.0721 213.989 72.527 213.989 71.9091C213.989 71.2983 213.9 70.7638 213.722 70.3058C213.545 69.8441 213.282 69.4854 212.934 69.2298C212.586 68.9705 212.156 68.8409 211.645 68.8409C211.112 68.8409 210.668 68.9776 210.313 69.2511C209.962 69.521 209.697 69.8885 209.52 70.3537C209.346 70.8153 209.259 71.3338 209.259 71.9091C209.259 72.4915 209.347 73.0206 209.525 73.4964C209.706 73.9687 209.972 74.3452 210.324 74.6257C210.679 74.9027 211.119 75.0412 211.645 75.0412ZM221.132 76.1705C220.343 76.1705 219.663 75.9964 219.092 75.6484C218.523 75.2969 218.085 74.8068 217.776 74.1783C217.471 73.5462 217.318 72.8111 217.318 71.973C217.318 71.1349 217.471 70.3963 217.776 69.7571C218.085 69.1143 218.515 68.6136 219.065 68.255C219.619 67.8928 220.265 67.7116 221.004 67.7116C221.43 67.7116 221.851 67.7827 222.266 67.9247C222.682 68.0668 223.06 68.2976 223.401 68.6172C223.742 68.9332 224.013 69.3523 224.216 69.8743C224.418 70.3963 224.52 71.0391 224.52 71.8026V72.3352H218.213V71.2486H223.241C223.241 70.7869 223.149 70.375 222.964 70.0128C222.783 69.6506 222.524 69.3647 222.186 69.1552C221.853 68.9457 221.458 68.8409 221.004 68.8409C220.503 68.8409 220.07 68.9652 219.704 69.2138C219.342 69.4588 219.063 69.7784 218.868 70.1726C218.673 70.5668 218.575 70.9893 218.575 71.4403V72.1648C218.575 72.7827 218.681 73.3065 218.895 73.7362C219.111 74.1623 219.411 74.4872 219.795 74.7109C220.178 74.9311 220.624 75.0412 221.132 75.0412C221.462 75.0412 221.76 74.995 222.027 74.9027C222.297 74.8068 222.529 74.6648 222.724 74.4766C222.92 74.2848 223.071 74.0469 223.177 73.7628L224.392 74.1037C224.264 74.5156 224.049 74.8778 223.747 75.1903C223.445 75.4993 223.072 75.7408 222.629 75.9148C222.185 76.0852 221.686 76.1705 221.132 76.1705ZM226.432 76V67.8182H227.646V69.054H227.732C227.881 68.6491 228.151 68.3207 228.541 68.0685C228.932 67.8164 229.372 67.6903 229.862 67.6903C229.955 67.6903 230.07 67.6921 230.208 67.6957C230.347 67.6992 230.452 67.7045 230.523 67.7116V68.9901C230.48 68.9794 230.382 68.9634 230.23 68.9421C230.081 68.9173 229.923 68.9048 229.756 68.9048C229.358 68.9048 229.003 68.9883 228.69 69.1552C228.381 69.3185 228.136 69.5458 227.955 69.837C227.778 70.1246 227.689 70.4531 227.689 70.8224V76H226.432ZM237.808 69.6506L236.679 69.9702C236.608 69.782 236.503 69.5991 236.365 69.4215C236.23 69.2404 236.045 69.0913 235.811 68.9741C235.576 68.8569 235.276 68.7983 234.911 68.7983C234.41 68.7983 233.993 68.9137 233.659 69.1445C233.329 69.3718 233.163 69.6612 233.163 70.0128C233.163 70.3253 233.277 70.5721 233.504 70.7532C233.732 70.9343 234.087 71.0852 234.57 71.206L235.784 71.5043C236.516 71.6818 237.061 71.9535 237.419 72.3192C237.778 72.6815 237.957 73.1484 237.957 73.7202C237.957 74.1889 237.823 74.608 237.553 74.9773C237.286 75.3466 236.913 75.6378 236.434 75.8509C235.955 76.0639 235.397 76.1705 234.761 76.1705C233.927 76.1705 233.236 75.9893 232.689 75.6271C232.142 75.2649 231.796 74.7358 231.651 74.0398L232.844 73.7415C232.957 74.1818 233.172 74.5121 233.488 74.7322C233.808 74.9524 234.225 75.0625 234.74 75.0625C235.326 75.0625 235.791 74.9382 236.136 74.6896C236.484 74.4375 236.658 74.1357 236.658 73.7841C236.658 73.5 236.558 73.2621 236.359 73.0703C236.161 72.875 235.855 72.7294 235.443 72.6335L234.08 72.3139C233.33 72.1364 232.78 71.8612 232.428 71.4883C232.08 71.1119 231.906 70.6413 231.906 70.0767C231.906 69.6151 232.036 69.2067 232.295 68.8516C232.558 68.4964 232.915 68.2177 233.366 68.0153C233.82 67.8129 234.335 67.7116 234.911 67.7116C235.72 67.7116 236.356 67.8892 236.818 68.2443C237.283 68.5994 237.613 69.0682 237.808 69.6506ZM243.408 67.8182V68.8835H239.168V67.8182H243.408ZM240.404 65.858H241.661V73.6562C241.661 74.0114 241.712 74.2777 241.815 74.4553C241.922 74.6293 242.057 74.7464 242.22 74.8068C242.387 74.8636 242.563 74.892 242.748 74.892C242.886 74.892 243 74.8849 243.088 74.8707C243.177 74.853 243.248 74.8388 243.301 74.8281L243.557 75.9574C243.472 75.9893 243.353 76.0213 243.2 76.0533C243.048 76.0888 242.854 76.1065 242.62 76.1065C242.265 76.1065 241.917 76.0302 241.576 75.8775C241.238 75.7248 240.958 75.4922 240.734 75.1797C240.514 74.8672 240.404 74.473 240.404 73.9972V65.858ZM247.707 76.1918C247.188 76.1918 246.718 76.0941 246.295 75.8988C245.873 75.6999 245.537 75.4141 245.288 75.0412C245.04 74.6648 244.915 74.2102 244.915 73.6776C244.915 73.2088 245.008 72.8288 245.192 72.5376C245.377 72.2429 245.624 72.0121 245.933 71.8452C246.242 71.6783 246.583 71.554 246.956 71.4723C247.332 71.3871 247.71 71.3196 248.09 71.2699C248.587 71.206 248.99 71.158 249.299 71.1261C249.612 71.0906 249.839 71.032 249.981 70.9503C250.127 70.8686 250.2 70.7266 250.2 70.5241V70.4815C250.2 69.956 250.056 69.5476 249.768 69.2564C249.484 68.9652 249.053 68.8196 248.474 68.8196C247.874 68.8196 247.403 68.951 247.062 69.2138C246.721 69.4766 246.482 69.7571 246.343 70.0554L245.15 69.6293C245.363 69.1321 245.647 68.745 246.002 68.468C246.361 68.1875 246.751 67.9922 247.174 67.8821C247.6 67.7685 248.019 67.7116 248.431 67.7116C248.694 67.7116 248.996 67.7436 249.337 67.8075C249.681 67.8679 250.013 67.994 250.333 68.1857C250.656 68.3775 250.924 68.6669 251.137 69.054C251.35 69.4411 251.457 69.9595 251.457 70.6094V76H250.2V74.892H250.136C250.05 75.0696 249.908 75.2596 249.71 75.462C249.511 75.6644 249.246 75.8366 248.916 75.9787C248.586 76.1207 248.183 76.1918 247.707 76.1918ZM247.898 75.0625C248.396 75.0625 248.815 74.9648 249.156 74.7695C249.5 74.5742 249.759 74.3221 249.933 74.0131C250.111 73.7042 250.2 73.3793 250.2 73.0384V71.8878C250.146 71.9517 250.029 72.0103 249.848 72.0636C249.67 72.1133 249.464 72.1577 249.23 72.1967C248.999 72.2322 248.774 72.2642 248.554 72.2926C248.337 72.3175 248.161 72.3388 248.026 72.3565C247.7 72.3991 247.394 72.4684 247.11 72.5643C246.83 72.6566 246.602 72.7969 246.428 72.9851C246.258 73.1697 246.173 73.4219 246.173 73.7415C246.173 74.1783 246.334 74.5085 246.657 74.7322C246.984 74.9524 247.398 75.0625 247.898 75.0625ZM255.008 71.0781V76H253.751V67.8182H254.966V69.0966H255.072C255.264 68.6811 255.555 68.3473 255.946 68.0952C256.336 67.8395 256.841 67.7116 257.459 67.7116C258.013 67.7116 258.497 67.8253 258.913 68.0526C259.328 68.2763 259.651 68.6172 259.882 69.0753C260.113 69.5298 260.228 70.1051 260.228 70.8011V76H258.971V70.8864C258.971 70.2436 258.804 69.7429 258.471 69.3842C258.137 69.022 257.679 68.8409 257.096 68.8409C256.695 68.8409 256.336 68.9279 256.02 69.1019C255.708 69.2759 255.461 69.5298 255.28 69.8636C255.099 70.1974 255.008 70.6023 255.008 71.0781ZM265.615 76.1705C264.933 76.1705 264.331 75.9982 263.809 75.6538C263.287 75.3058 262.879 74.8157 262.584 74.1836C262.289 73.5479 262.142 72.7969 262.142 71.9304C262.142 71.071 262.289 70.3253 262.584 69.6932C262.879 69.0611 263.289 68.5728 263.815 68.2283C264.34 67.8839 264.947 67.7116 265.636 67.7116C266.169 67.7116 266.59 67.8004 266.899 67.978C267.211 68.152 267.449 68.3509 267.613 68.5746C267.779 68.7947 267.909 68.9759 268.001 69.1179H268.108V65.0909H269.365V76H268.151V74.7429H268.001C267.909 74.892 267.778 75.0803 267.607 75.3075C267.437 75.5312 267.194 75.7319 266.877 75.9094C266.561 76.0835 266.141 76.1705 265.615 76.1705ZM265.786 75.0412C266.29 75.0412 266.716 74.9098 267.064 74.647C267.412 74.3807 267.676 74.0131 267.858 73.5444C268.039 73.0721 268.129 72.527 268.129 71.9091C268.129 71.2983 268.04 70.7638 267.863 70.3058C267.685 69.8441 267.423 69.4854 267.075 69.2298C266.727 68.9705 266.297 68.8409 265.786 68.8409C265.253 68.8409 264.809 68.9776 264.454 69.2511C264.102 69.521 263.838 69.8885 263.66 70.3537C263.486 70.8153 263.399 71.3338 263.399 71.9091C263.399 72.4915 263.488 73.0206 263.665 73.4964C263.847 73.9687 264.113 74.3452 264.464 74.6257C264.82 74.9027 265.26 75.0412 265.786 75.0412ZM271.842 76V67.8182H273.099V76H271.842ZM272.481 66.4545C272.236 66.4545 272.025 66.3711 271.847 66.2042C271.673 66.0373 271.586 65.8366 271.586 65.6023C271.586 65.3679 271.673 65.1673 271.847 65.0004C272.025 64.8335 272.236 64.75 272.481 64.75C272.726 64.75 272.936 64.8335 273.11 65.0004C273.287 65.1673 273.376 65.3679 273.376 65.6023C273.376 65.8366 273.287 66.0373 273.11 66.2042C272.936 66.3711 272.726 66.4545 272.481 66.4545ZM276.659 71.0781V76H275.402V67.8182H276.616V69.0966H276.723C276.914 68.6811 277.206 68.3473 277.596 68.0952C277.987 67.8395 278.491 67.7116 279.109 67.7116C279.663 67.7116 280.148 67.8253 280.563 68.0526C280.979 68.2763 281.302 68.6172 281.533 69.0753C281.763 69.5298 281.879 70.1051 281.879 70.8011V76H280.622V70.8864C280.622 70.2436 280.455 69.7429 280.121 69.3842C279.787 69.022 279.329 68.8409 278.747 68.8409C278.345 68.8409 277.987 68.9279 277.671 69.1019C277.358 69.2759 277.111 69.5298 276.93 69.8636C276.749 70.1974 276.659 70.6023 276.659 71.0781ZM287.479 79.2386C286.871 79.2386 286.349 79.1605 285.912 79.0043C285.476 78.8516 285.112 78.6491 284.82 78.397C284.533 78.1484 284.304 77.8821 284.133 77.598L285.135 76.8949C285.248 77.044 285.392 77.2145 285.566 77.4062C285.74 77.6016 285.978 77.7702 286.28 77.9123C286.585 78.0579 286.985 78.1307 287.479 78.1307C288.139 78.1307 288.684 77.9709 289.114 77.6513C289.544 77.3317 289.758 76.831 289.758 76.1491V74.4872H289.652C289.559 74.6364 289.428 74.821 289.258 75.0412C289.091 75.2578 288.849 75.4513 288.533 75.6218C288.221 75.7887 287.798 75.8722 287.265 75.8722C286.605 75.8722 286.012 75.7159 285.486 75.4034C284.964 75.0909 284.551 74.6364 284.245 74.0398C283.943 73.4432 283.792 72.7187 283.792 71.8665C283.792 71.0284 283.94 70.2987 284.235 69.6772C284.529 69.0522 284.939 68.5692 285.465 68.2283C285.991 67.8839 286.598 67.7116 287.287 67.7116C287.819 67.7116 288.242 67.8004 288.555 67.978C288.871 68.152 289.112 68.3509 289.279 68.5746C289.449 68.7947 289.581 68.9759 289.673 69.1179H289.801V67.8182H291.015V76.2344C291.015 76.9375 290.856 77.5092 290.536 77.9496C290.22 78.3935 289.794 78.7184 289.258 78.9244C288.725 79.1339 288.132 79.2386 287.479 79.2386ZM287.436 74.7429C287.94 74.7429 288.366 74.6275 288.714 74.3967C289.062 74.1658 289.327 73.8338 289.508 73.4006C289.689 72.9673 289.78 72.4489 289.78 71.8452C289.78 71.2557 289.691 70.7354 289.513 70.2844C289.336 69.8335 289.073 69.4801 288.725 69.2244C288.377 68.9687 287.947 68.8409 287.436 68.8409C286.903 68.8409 286.459 68.9759 286.104 69.2457C285.753 69.5156 285.488 69.8778 285.311 70.3324C285.137 70.7869 285.05 71.2912 285.05 71.8452C285.05 72.4134 285.138 72.9158 285.316 73.3526C285.497 73.7859 285.763 74.1268 286.115 74.3754C286.47 74.6204 286.91 74.7429 287.436 74.7429Z" fill="#43505B"/>
</svg>
