<svg width="308" height="86" viewBox="0 0 308 86" fill="none" xmlns="http://www.w3.org/2000/svg">
<rect width="86" height="86" rx="8" fill="#E9F8FF"/>
<path d="M47.6105 49.9001H36.8105" stroke="#429CE4" stroke-width="2.5" stroke-linecap="round" stroke-linejoin="round"/>
<path d="M43.5206 41.8767H36.8086" stroke="#429CE4" stroke-width="2.5" stroke-linecap="round" stroke-linejoin="round"/>
<path fill-rule="evenodd" clip-rule="evenodd" d="M59.3198 35.5998L47.9798 24.7998C46.5198 24.5998 44.8798 24.4998 43.0798 24.4998C30.4998 24.4998 26.2998 29.1398 26.2998 42.9998C26.2998 56.8798 30.4998 61.4998 43.0798 61.4998C55.6798 61.4998 59.8798 56.8798 59.8798 42.9998C59.8798 40.1598 59.6998 37.6998 59.3198 35.5998Z" stroke="#429CE4" stroke-width="2.5" stroke-linecap="round" stroke-linejoin="round"/>
<path d="M46.8682 24.6658V29.9878C46.8682 33.7038 49.8802 36.7138 53.5962 36.7138H59.4982" stroke="#429CE4" stroke-width="2.5" stroke-linecap="round" stroke-linejoin="round"/>
<path d="M105.303 20H102.49L107.611 5.45455H110.864L115.991 20H113.179L109.294 8.4375H109.18L105.303 20ZM105.395 14.2969H113.065V16.4134H105.395V14.2969ZM126.24 11.9744L123.896 12.2301C123.83 11.9934 123.714 11.7708 123.548 11.5625C123.387 11.3542 123.17 11.1861 122.895 11.0582C122.62 10.9304 122.284 10.8665 121.886 10.8665C121.351 10.8665 120.902 10.9825 120.537 11.2145C120.177 11.4465 120 11.7472 120.004 12.1165C120 12.4337 120.116 12.6918 120.352 12.8906C120.594 13.0895 120.991 13.2528 121.545 13.3807L123.406 13.7784C124.438 14.0009 125.205 14.3537 125.707 14.8366C126.214 15.3196 126.47 15.9517 126.474 16.733C126.47 17.4195 126.268 18.0256 125.871 18.5511C125.478 19.072 124.931 19.4792 124.23 19.7727C123.529 20.0663 122.724 20.2131 121.815 20.2131C120.48 20.2131 119.405 19.9337 118.591 19.375C117.777 18.8116 117.291 18.0279 117.135 17.0241L119.642 16.7827C119.756 17.2751 119.997 17.6468 120.366 17.8977C120.736 18.1487 121.216 18.2741 121.808 18.2741C122.419 18.2741 122.909 18.1487 123.278 17.8977C123.652 17.6468 123.839 17.3366 123.839 16.9673C123.839 16.6548 123.719 16.3968 123.477 16.1932C123.241 15.9896 122.871 15.8333 122.369 15.7244L120.509 15.3338C119.462 15.116 118.688 14.7491 118.186 14.233C117.684 13.7121 117.436 13.054 117.44 12.2585C117.436 11.5862 117.618 11.0038 117.987 10.5114C118.361 10.0142 118.88 9.63068 119.543 9.3608C120.21 9.08617 120.98 8.94886 121.851 8.94886C123.129 8.94886 124.135 9.22112 124.869 9.76562C125.608 10.3101 126.065 11.0464 126.24 11.9744ZM137.217 11.9744L134.873 12.2301C134.807 11.9934 134.691 11.7708 134.525 11.5625C134.364 11.3542 134.146 11.1861 133.871 11.0582C133.597 10.9304 133.261 10.8665 132.863 10.8665C132.328 10.8665 131.878 10.9825 131.513 11.2145C131.154 11.4465 130.976 11.7472 130.981 12.1165C130.976 12.4337 131.092 12.6918 131.329 12.8906C131.57 13.0895 131.968 13.2528 132.522 13.3807L134.383 13.7784C135.415 14.0009 136.182 14.3537 136.684 14.8366C137.191 15.3196 137.446 15.9517 137.451 16.733C137.446 17.4195 137.245 18.0256 136.847 18.5511C136.454 19.072 135.907 19.4792 135.207 19.7727C134.506 20.0663 133.701 20.2131 132.792 20.2131C131.457 20.2131 130.382 19.9337 129.567 19.375C128.753 18.8116 128.268 18.0279 128.112 17.0241L130.619 16.7827C130.732 17.2751 130.974 17.6468 131.343 17.8977C131.712 18.1487 132.193 18.2741 132.785 18.2741C133.396 18.2741 133.886 18.1487 134.255 17.8977C134.629 17.6468 134.816 17.3366 134.816 16.9673C134.816 16.6548 134.695 16.3968 134.454 16.1932C134.217 15.9896 133.848 15.8333 133.346 15.7244L131.485 15.3338C130.439 15.116 129.665 14.7491 129.163 14.233C128.661 13.7121 128.412 13.054 128.417 12.2585C128.412 11.5862 128.594 11.0038 128.964 10.5114C129.338 10.0142 129.856 9.63068 130.519 9.3608C131.187 9.08617 131.956 8.94886 132.827 8.94886C134.106 8.94886 135.112 9.22112 135.846 9.76562C136.585 10.3101 137.041 11.0464 137.217 11.9744ZM139.571 20V9.09091H142.142V20H139.571ZM140.864 7.54261C140.456 7.54261 140.106 7.40767 139.812 7.13778C139.519 6.86316 139.372 6.53409 139.372 6.15057C139.372 5.76231 139.519 5.43324 139.812 5.16335C140.106 4.88873 140.456 4.75142 140.864 4.75142C141.276 4.75142 141.626 4.88873 141.915 5.16335C142.208 5.43324 142.355 5.76231 142.355 6.15057C142.355 6.53409 142.208 6.86316 141.915 7.13778C141.626 7.40767 141.276 7.54261 140.864 7.54261ZM149.53 24.3182C148.607 24.3182 147.814 24.1927 147.151 23.9418C146.488 23.6955 145.955 23.3641 145.553 22.9474C145.15 22.5308 144.871 22.0691 144.715 21.5625L147.03 21.0014C147.134 21.2145 147.286 21.4252 147.485 21.6335C147.684 21.8466 147.951 22.0218 148.287 22.1591C148.628 22.3011 149.057 22.3722 149.573 22.3722C150.302 22.3722 150.906 22.1946 151.384 21.8395C151.862 21.4891 152.101 20.9115 152.101 20.1065V18.0398H151.973C151.841 18.3049 151.647 18.5772 151.391 18.8565C151.14 19.1359 150.806 19.3703 150.39 19.5597C149.978 19.7491 149.459 19.8438 148.834 19.8438C147.996 19.8438 147.236 19.6473 146.554 19.2543C145.877 18.8565 145.337 18.2647 144.935 17.4787C144.537 16.688 144.338 15.6984 144.338 14.5099C144.338 13.312 144.537 12.3011 144.935 11.4773C145.337 10.6487 145.88 10.0213 146.561 9.59517C147.243 9.1643 148.003 8.94886 148.841 8.94886C149.48 8.94886 150.006 9.05777 150.418 9.27557C150.835 9.48864 151.166 9.74669 151.412 10.0497C151.658 10.348 151.846 10.6297 151.973 10.8949H152.115V9.09091H154.651V20.1776C154.651 21.1103 154.428 21.8821 153.983 22.4929C153.538 23.1037 152.93 23.5606 152.158 23.8636C151.386 24.1667 150.51 24.3182 149.53 24.3182ZM149.551 17.8267C150.096 17.8267 150.56 17.6941 150.944 17.429C151.327 17.1638 151.618 16.7827 151.817 16.2855C152.016 15.7884 152.115 15.1918 152.115 14.4957C152.115 13.8092 152.016 13.2079 151.817 12.6918C151.623 12.1757 151.334 11.7756 150.951 11.4915C150.572 11.2027 150.105 11.0582 149.551 11.0582C148.979 11.0582 148.5 11.2074 148.117 11.5057C147.733 11.804 147.444 12.2135 147.25 12.7344C147.056 13.2505 146.959 13.8376 146.959 14.4957C146.959 15.1634 147.056 15.7481 147.25 16.25C147.449 16.7472 147.74 17.1354 148.124 17.4148C148.512 17.6894 148.988 17.8267 149.551 17.8267ZM159.857 13.608V20H157.286V9.09091H159.743V10.9446H159.871C160.122 10.3338 160.522 9.84848 161.071 9.48864C161.625 9.12879 162.31 8.94886 163.124 8.94886C163.877 8.94886 164.533 9.10985 165.091 9.43182C165.655 9.75379 166.09 10.2202 166.398 10.831C166.711 11.4418 166.864 12.1828 166.86 13.054V20H164.289V13.4517C164.289 12.7225 164.099 12.152 163.721 11.7401C163.346 11.3281 162.828 11.1222 162.165 11.1222C161.715 11.1222 161.315 11.2216 160.965 11.4205C160.619 11.6146 160.347 11.8963 160.148 12.2656C159.954 12.6349 159.857 13.0824 159.857 13.608ZM169.473 20V9.09091H171.931V10.9446H172.059C172.286 10.3196 172.662 9.83191 173.188 9.48153C173.713 9.12642 174.341 8.94886 175.07 8.94886C175.809 8.94886 176.431 9.12879 176.938 9.48864C177.449 9.84375 177.809 10.3291 178.017 10.9446H178.131C178.373 10.3385 178.78 9.85559 179.353 9.49574C179.93 9.13116 180.614 8.94886 181.405 8.94886C182.409 8.94886 183.228 9.2661 183.863 9.90057C184.497 10.535 184.814 11.4607 184.814 12.6776V20H182.236V13.0753C182.236 12.3982 182.056 11.9034 181.696 11.5909C181.337 11.2737 180.896 11.1151 180.375 11.1151C179.755 11.1151 179.27 11.3092 178.919 11.6974C178.574 12.081 178.401 12.5805 178.401 13.196V20H175.88V12.9688C175.88 12.4053 175.709 11.9555 175.368 11.6193C175.032 11.2831 174.592 11.1151 174.047 11.1151C173.678 11.1151 173.342 11.2098 173.039 11.3991C172.736 11.5838 172.494 11.8466 172.314 12.1875C172.134 12.5237 172.044 12.9167 172.044 13.3665V20H169.473ZM192.252 20.2131C191.158 20.2131 190.214 19.9858 189.418 19.5312C188.628 19.072 188.019 18.4233 187.593 17.5852C187.167 16.7424 186.954 15.7505 186.954 14.6094C186.954 13.4872 187.167 12.5024 187.593 11.6548C188.024 10.8026 188.625 10.1397 189.397 9.66619C190.169 9.18797 191.076 8.94886 192.117 8.94886C192.79 8.94886 193.424 9.05777 194.021 9.27557C194.622 9.48864 195.152 9.82008 195.612 10.2699C196.076 10.7197 196.44 11.2926 196.705 11.9886C196.97 12.6799 197.103 13.5038 197.103 14.4602V15.2486H188.161V13.5156H194.638C194.634 13.0232 194.527 12.5852 194.319 12.2017C194.111 11.8134 193.819 11.508 193.445 11.2855C193.076 11.063 192.645 10.9517 192.153 10.9517C191.627 10.9517 191.165 11.0795 190.768 11.3352C190.37 11.5862 190.06 11.9176 189.837 12.3295C189.62 12.7367 189.508 13.1842 189.504 13.6719V15.1847C189.504 15.8191 189.62 16.3636 189.852 16.8182C190.084 17.268 190.408 17.6136 190.825 17.8551C191.241 18.0919 191.729 18.2102 192.288 18.2102C192.662 18.2102 193 18.1581 193.303 18.054C193.606 17.9451 193.869 17.7865 194.092 17.5781C194.314 17.3698 194.482 17.1117 194.596 16.804L196.996 17.0739C196.845 17.7083 196.556 18.2623 196.13 18.7358C195.709 19.2045 195.169 19.5691 194.511 19.8295C193.853 20.0852 193.1 20.2131 192.252 20.2131ZM201.849 13.608V20H199.278V9.09091H201.735V10.9446H201.863C202.114 10.3338 202.514 9.84848 203.064 9.48864C203.618 9.12879 204.302 8.94886 205.116 8.94886C205.869 8.94886 206.525 9.10985 207.083 9.43182C207.647 9.75379 208.083 10.2202 208.39 10.831C208.703 11.4418 208.857 12.1828 208.852 13.054V20H206.281V13.4517C206.281 12.7225 206.092 12.152 205.713 11.7401C205.339 11.3281 204.82 11.1222 204.157 11.1222C203.708 11.1222 203.307 11.2216 202.957 11.4205C202.611 11.6146 202.339 11.8963 202.14 12.2656C201.946 12.6349 201.849 13.0824 201.849 13.608ZM216.913 9.09091V11.0795H210.642V9.09091H216.913ZM212.19 6.47727H214.761V16.7188C214.761 17.0644 214.813 17.3295 214.917 17.5142C215.026 17.6941 215.168 17.8172 215.343 17.8835C215.519 17.9498 215.713 17.983 215.926 17.983C216.087 17.983 216.234 17.9711 216.366 17.9474C216.503 17.9238 216.608 17.9025 216.679 17.8835L217.112 19.8935C216.975 19.9408 216.778 19.9929 216.522 20.0497C216.271 20.1065 215.964 20.1397 215.599 20.1491C214.955 20.1681 214.375 20.071 213.859 19.858C213.343 19.6402 212.933 19.304 212.63 18.8494C212.332 18.3949 212.185 17.8267 212.19 17.1449V6.47727ZM227.529 11.9744L225.185 12.2301C225.119 11.9934 225.003 11.7708 224.837 11.5625C224.676 11.3542 224.459 11.1861 224.184 11.0582C223.909 10.9304 223.573 10.8665 223.175 10.8665C222.64 10.8665 222.191 10.9825 221.826 11.2145C221.466 11.4465 221.289 11.7472 221.293 12.1165C221.289 12.4337 221.405 12.6918 221.641 12.8906C221.883 13.0895 222.281 13.2528 222.835 13.3807L224.695 13.7784C225.728 14.0009 226.495 14.3537 226.996 14.8366C227.503 15.3196 227.759 15.9517 227.763 16.733C227.759 17.4195 227.558 18.0256 227.16 18.5511C226.767 19.072 226.22 19.4792 225.519 19.7727C224.818 20.0663 224.013 20.2131 223.104 20.2131C221.769 20.2131 220.694 19.9337 219.88 19.375C219.066 18.8116 218.58 18.0279 218.424 17.0241L220.931 16.7827C221.045 17.2751 221.286 17.6468 221.656 17.8977C222.025 18.1487 222.505 18.2741 223.097 18.2741C223.708 18.2741 224.198 18.1487 224.567 17.8977C224.942 17.6468 225.129 17.3366 225.129 16.9673C225.129 16.6548 225.008 16.3968 224.766 16.1932C224.53 15.9896 224.16 15.8333 223.658 15.7244L221.798 15.3338C220.751 15.116 219.977 14.7491 219.475 14.233C218.973 13.7121 218.725 13.054 218.729 12.2585C218.725 11.5862 218.907 11.0038 219.276 10.5114C219.65 10.0142 220.169 9.63068 220.832 9.3608C221.499 9.08617 222.269 8.94886 223.14 8.94886C224.418 8.94886 225.424 9.22112 226.158 9.76562C226.897 10.3101 227.354 11.0464 227.529 11.9744ZM239.191 20.2131C238.197 20.2131 237.342 20.0331 236.627 19.6733C235.912 19.3134 235.361 18.8281 234.972 18.2173C234.589 17.6018 234.397 16.9081 234.397 16.1364C234.397 15.554 234.515 15.0379 234.752 14.5881C234.994 14.1383 235.325 13.7216 235.746 13.3381C236.173 12.9545 236.665 12.5734 237.224 12.1946L239.802 10.4403C240.181 10.1941 240.467 9.93371 240.661 9.65909C240.86 9.38447 240.96 9.0625 240.96 8.69318C240.96 8.38068 240.827 8.08475 240.562 7.8054C240.301 7.52604 239.942 7.38636 239.482 7.38636C239.174 7.38636 238.902 7.45975 238.665 7.60653C238.433 7.74858 238.251 7.93561 238.119 8.16761C237.991 8.39962 237.927 8.64583 237.927 8.90625C237.927 9.22348 238.014 9.54545 238.19 9.87216C238.37 10.1989 238.602 10.5374 238.886 10.8878C239.174 11.2382 239.482 11.6098 239.809 12.0028L246.634 20H243.85L238.183 13.5085C237.761 13.0161 237.354 12.5308 236.961 12.0526C236.573 11.5743 236.253 11.0772 236.002 10.5611C235.756 10.0402 235.633 9.4768 235.633 8.87074C235.633 8.18419 235.791 7.57102 236.109 7.03125C236.426 6.48674 236.869 6.05824 237.437 5.74574C238.01 5.43324 238.68 5.27699 239.447 5.27699C240.214 5.27699 240.872 5.4285 241.421 5.73153C241.97 6.03456 242.394 6.43703 242.692 6.93892C242.991 7.44081 243.14 7.98769 243.14 8.57955C243.14 9.2661 242.969 9.88163 242.629 10.4261C242.288 10.9659 241.814 11.456 241.208 11.8963L238.268 14.0483C237.785 14.3987 237.439 14.7538 237.231 15.1136C237.022 15.4687 236.918 15.7718 236.918 16.0227C236.918 16.4062 237.015 16.7543 237.21 17.0668C237.404 17.3793 237.676 17.6302 238.026 17.8196C238.381 18.0043 238.796 18.0966 239.269 18.0966C239.79 18.0966 240.304 17.9806 240.81 17.7486C241.317 17.5118 241.779 17.1757 242.195 16.7401C242.612 16.3045 242.943 15.7836 243.19 15.1776C243.436 14.5668 243.559 13.8897 243.559 13.1463H245.768C245.768 14.0649 245.666 14.8651 245.462 15.5469C245.259 16.224 244.996 16.7969 244.674 17.2656C244.352 17.7296 244.011 18.1013 243.651 18.3807C243.538 18.4612 243.429 18.5417 243.325 18.6222C243.22 18.7027 243.112 18.7831 242.998 18.8636C242.487 19.3277 241.888 19.6686 241.201 19.8864C240.519 20.1042 239.849 20.2131 239.191 20.2131ZM103.435 31.4545H106.659L110.977 41.9943H111.148L115.466 31.4545H118.69V46H116.162V36.0071H116.027L112.007 45.9574H110.118L106.098 35.9858H105.963V46H103.435V31.4545ZM126.205 46.2131C125.139 46.2131 124.216 45.9787 123.435 45.5099C122.653 45.0412 122.047 44.3854 121.616 43.5426C121.19 42.6998 120.977 41.715 120.977 40.5881C120.977 39.4612 121.19 38.474 121.616 37.6264C122.047 36.7789 122.653 36.1207 123.435 35.652C124.216 35.1832 125.139 34.9489 126.205 34.9489C127.27 34.9489 128.193 35.1832 128.974 35.652C129.756 36.1207 130.359 36.7789 130.786 37.6264C131.216 38.474 131.432 39.4612 131.432 40.5881C131.432 41.715 131.216 42.6998 130.786 43.5426C130.359 44.3854 129.756 45.0412 128.974 45.5099C128.193 45.9787 127.27 46.2131 126.205 46.2131ZM126.219 44.1534C126.796 44.1534 127.279 43.9948 127.668 43.6776C128.056 43.3556 128.345 42.9247 128.534 42.3849C128.728 41.8452 128.825 41.2438 128.825 40.581C128.825 39.9134 128.728 39.3097 128.534 38.7699C128.345 38.2254 128.056 37.7921 127.668 37.4702C127.279 37.1482 126.796 36.9872 126.219 36.9872C125.627 36.9872 125.134 37.1482 124.741 37.4702C124.353 37.7921 124.062 38.2254 123.868 38.7699C123.679 39.3097 123.584 39.9134 123.584 40.581C123.584 41.2438 123.679 41.8452 123.868 42.3849C124.062 42.9247 124.353 43.3556 124.741 43.6776C125.134 43.9948 125.627 44.1534 126.219 44.1534ZM137.662 46.1918C136.805 46.1918 136.038 45.9716 135.361 45.5312C134.684 45.0909 134.149 44.4517 133.756 43.6136C133.363 42.7756 133.167 41.7576 133.167 40.5597C133.167 39.3475 133.365 38.3248 133.763 37.4915C134.166 36.6534 134.708 36.0213 135.39 35.5952C136.071 35.1643 136.831 34.9489 137.669 34.9489C138.309 34.9489 138.834 35.0578 139.246 35.2756C139.658 35.4886 139.985 35.7467 140.226 36.0497C140.468 36.348 140.655 36.6297 140.787 36.8949H140.894V31.4545H143.472V46H140.944V44.2812H140.787C140.655 44.5464 140.463 44.8281 140.212 45.1264C139.961 45.42 139.63 45.6709 139.218 45.8793C138.806 46.0876 138.287 46.1918 137.662 46.1918ZM138.38 44.0824C138.924 44.0824 139.388 43.9356 139.772 43.642C140.155 43.3437 140.446 42.9295 140.645 42.3991C140.844 41.8688 140.944 41.2509 140.944 40.5455C140.944 39.84 140.844 39.2268 140.645 38.706C140.451 38.1851 140.162 37.7803 139.779 37.4915C139.4 37.2027 138.934 37.0582 138.38 37.0582C137.807 37.0582 137.328 37.2074 136.945 37.5057C136.561 37.804 136.273 38.2159 136.078 38.7415C135.884 39.267 135.787 39.8684 135.787 40.5455C135.787 41.2273 135.884 41.8357 136.078 42.3707C136.277 42.901 136.569 43.3201 136.952 43.6278C137.34 43.9309 137.816 44.0824 138.38 44.0824ZM153.165 41.4119V35.0909H155.736V46H153.243V44.0611H153.129C152.883 44.6719 152.478 45.1714 151.915 45.5597C151.356 45.9479 150.667 46.142 149.848 46.142C149.133 46.142 148.501 45.9834 147.952 45.6662C147.407 45.3442 146.981 44.8778 146.673 44.267C146.366 43.6515 146.212 42.9081 146.212 42.0369V35.0909H148.783V41.6392C148.783 42.3305 148.972 42.8797 149.351 43.2869C149.73 43.6941 150.227 43.8977 150.842 43.8977C151.221 43.8977 151.588 43.8054 151.943 43.6207C152.298 43.4361 152.589 43.1615 152.817 42.7969C153.049 42.4276 153.165 41.9659 153.165 41.4119ZM160.951 31.4545V46H158.38V31.4545H160.951ZM168.424 46.2131C167.33 46.2131 166.386 45.9858 165.59 45.5312C164.799 45.072 164.191 44.4233 163.765 43.5852C163.339 42.7424 163.126 41.7505 163.126 40.6094C163.126 39.4872 163.339 38.5024 163.765 37.6548C164.196 36.8026 164.797 36.1397 165.569 35.6662C166.341 35.188 167.247 34.9489 168.289 34.9489C168.961 34.9489 169.596 35.0578 170.192 35.2756C170.794 35.4886 171.324 35.8201 171.783 36.2699C172.247 36.7197 172.612 37.2926 172.877 37.9886C173.142 38.6799 173.275 39.5038 173.275 40.4602V41.2486H164.333V39.5156H170.81C170.806 39.0232 170.699 38.5852 170.491 38.2017C170.282 37.8134 169.991 37.508 169.617 37.2855C169.248 37.063 168.817 36.9517 168.325 36.9517C167.799 36.9517 167.337 37.0795 166.94 37.3352C166.542 37.5862 166.232 37.9176 166.009 38.3295C165.791 38.7367 165.68 39.1842 165.675 39.6719V41.1847C165.675 41.8191 165.791 42.3636 166.023 42.8182C166.255 43.268 166.58 43.6136 166.996 43.8551C167.413 44.0919 167.901 44.2102 168.46 44.2102C168.834 44.2102 169.172 44.1581 169.475 44.054C169.778 43.9451 170.041 43.7865 170.263 43.5781C170.486 43.3698 170.654 43.1117 170.768 42.804L173.168 43.0739C173.017 43.7083 172.728 44.2623 172.302 44.7358C171.88 45.2045 171.341 45.5691 170.683 45.8295C170.024 46.0852 169.272 46.2131 168.424 46.2131ZM184.072 37.9744L181.728 38.2301C181.662 37.9934 181.546 37.7708 181.38 37.5625C181.219 37.3542 181.002 37.1861 180.727 37.0582C180.452 36.9304 180.116 36.8665 179.718 36.8665C179.183 36.8665 178.734 36.9825 178.369 37.2145C178.009 37.4465 177.832 37.7472 177.836 38.1165C177.832 38.4337 177.948 38.6918 178.184 38.8906C178.426 39.0895 178.824 39.2528 179.377 39.3807L181.238 39.7784C182.27 40.0009 183.038 40.3537 183.539 40.8366C184.046 41.3196 184.302 41.9517 184.306 42.733C184.302 43.4195 184.1 44.0256 183.703 44.5511C183.31 45.072 182.763 45.4792 182.062 45.7727C181.361 46.0663 180.556 46.2131 179.647 46.2131C178.312 46.2131 177.237 45.9337 176.423 45.375C175.609 44.8116 175.123 44.0279 174.967 43.0241L177.474 42.7827C177.588 43.2751 177.829 43.6468 178.199 43.8977C178.568 44.1487 179.048 44.2741 179.64 44.2741C180.251 44.2741 180.741 44.1487 181.11 43.8977C181.484 43.6468 181.672 43.3366 181.672 42.9673C181.672 42.6548 181.551 42.3968 181.309 42.1932C181.073 41.9896 180.703 41.8333 180.201 41.7244L178.341 41.3338C177.294 41.116 176.52 40.7491 176.018 40.233C175.516 39.7121 175.268 39.054 175.272 38.2585C175.268 37.5862 175.45 37.0038 175.819 36.5114C176.193 36.0142 176.712 35.6307 177.375 35.3608C178.042 35.0862 178.812 34.9489 179.683 34.9489C180.961 34.9489 181.967 35.2211 182.701 35.7656C183.44 36.3101 183.897 37.0464 184.072 37.9744ZM196.835 35.0909V37.0795H190.564V35.0909H196.835ZM192.112 32.4773H194.683V42.7188C194.683 43.0644 194.735 43.3295 194.839 43.5142C194.948 43.6941 195.09 43.8172 195.265 43.8835C195.44 43.9498 195.635 43.983 195.848 43.983C196.009 43.983 196.155 43.9711 196.288 43.9474C196.425 43.9238 196.529 43.9025 196.6 43.8835L197.034 45.8935C196.896 45.9408 196.7 45.9929 196.444 46.0497C196.193 46.1065 195.886 46.1397 195.521 46.1491C194.877 46.1681 194.297 46.071 193.781 45.858C193.265 45.6402 192.855 45.304 192.552 44.8494C192.254 44.3949 192.107 43.8267 192.112 43.1449V32.4773ZM203.697 46.2131C202.604 46.2131 201.659 45.9858 200.864 45.5312C200.073 45.072 199.464 44.4233 199.038 43.5852C198.612 42.7424 198.399 41.7505 198.399 40.6094C198.399 39.4872 198.612 38.5024 199.038 37.6548C199.469 36.8026 200.071 36.1397 200.842 35.6662C201.614 35.188 202.521 34.9489 203.562 34.9489C204.235 34.9489 204.869 35.0578 205.466 35.2756C206.067 35.4886 206.598 35.8201 207.057 36.2699C207.521 36.7197 207.885 37.2926 208.151 37.9886C208.416 38.6799 208.548 39.5038 208.548 40.4602V41.2486H199.607V39.5156H206.084C206.079 39.0232 205.973 38.5852 205.764 38.2017C205.556 37.8134 205.265 37.508 204.891 37.2855C204.521 37.063 204.09 36.9517 203.598 36.9517C203.072 36.9517 202.611 37.0795 202.213 37.3352C201.815 37.5862 201.505 37.9176 201.283 38.3295C201.065 38.7367 200.954 39.1842 200.949 39.6719V41.1847C200.949 41.8191 201.065 42.3636 201.297 42.8182C201.529 43.268 201.853 43.6136 202.27 43.8551C202.687 44.0919 203.174 44.2102 203.733 44.2102C204.107 44.2102 204.446 44.1581 204.749 44.054C205.052 43.9451 205.314 43.7865 205.537 43.5781C205.759 43.3698 205.928 43.1117 206.041 42.804L208.442 43.0739C208.29 43.7083 208.001 44.2623 207.575 44.7358C207.154 45.2045 206.614 45.5691 205.956 45.8295C205.298 46.0852 204.545 46.2131 203.697 46.2131ZM219.346 37.9744L217.002 38.2301C216.935 37.9934 216.819 37.7708 216.654 37.5625C216.493 37.3542 216.275 37.1861 216 37.0582C215.726 36.9304 215.39 36.8665 214.992 36.8665C214.457 36.8665 214.007 36.9825 213.642 37.2145C213.283 37.4465 213.105 37.7472 213.11 38.1165C213.105 38.4337 213.221 38.6918 213.458 38.8906C213.699 39.0895 214.097 39.2528 214.651 39.3807L216.512 39.7784C217.544 40.0009 218.311 40.3537 218.813 40.8366C219.319 41.3196 219.575 41.9517 219.58 42.733C219.575 43.4195 219.374 44.0256 218.976 44.5511C218.583 45.072 218.036 45.4792 217.336 45.7727C216.635 46.0663 215.83 46.2131 214.921 46.2131C213.586 46.2131 212.511 45.9337 211.696 45.375C210.882 44.8116 210.397 44.0279 210.24 43.0241L212.748 42.7827C212.861 43.2751 213.103 43.6468 213.472 43.8977C213.841 44.1487 214.322 44.2741 214.914 44.2741C215.525 44.2741 216.015 44.1487 216.384 43.8977C216.758 43.6468 216.945 43.3366 216.945 42.9673C216.945 42.6548 216.824 42.3968 216.583 42.1932C216.346 41.9896 215.977 41.8333 215.475 41.7244L213.614 41.3338C212.568 41.116 211.793 40.7491 211.292 40.233C210.79 39.7121 210.541 39.054 210.546 38.2585C210.541 37.5862 210.723 37.0038 211.093 36.5114C211.467 36.0142 211.985 35.6307 212.648 35.3608C213.316 35.0862 214.085 34.9489 214.956 34.9489C216.235 34.9489 217.241 35.2211 217.975 35.7656C218.713 36.3101 219.17 37.0464 219.346 37.9744ZM227.147 35.0909V37.0795H220.876V35.0909H227.147ZM222.424 32.4773H224.995V42.7188C224.995 43.0644 225.047 43.3295 225.152 43.5142C225.261 43.6941 225.403 43.8172 225.578 43.8835C225.753 43.9498 225.947 43.983 226.16 43.983C226.321 43.983 226.468 43.9711 226.6 43.9474C226.738 43.9238 226.842 43.9025 226.913 43.8835L227.346 45.8935C227.209 45.9408 227.012 45.9929 226.757 46.0497C226.506 46.1065 226.198 46.1397 225.833 46.1491C225.19 46.1681 224.609 46.071 224.093 45.858C223.577 45.6402 223.168 45.304 222.865 44.8494C222.566 44.3949 222.42 43.8267 222.424 43.1449V32.4773ZM237.763 37.9744L235.42 38.2301C235.353 37.9934 235.237 37.7708 235.072 37.5625C234.911 37.3542 234.693 37.1861 234.418 37.0582C234.144 36.9304 233.808 36.8665 233.41 36.8665C232.875 36.8665 232.425 36.9825 232.06 37.2145C231.701 37.4465 231.523 37.7472 231.528 38.1165C231.523 38.4337 231.639 38.6918 231.876 38.8906C232.117 39.0895 232.515 39.2528 233.069 39.3807L234.93 39.7784C235.962 40.0009 236.729 40.3537 237.231 40.8366C237.737 41.3196 237.993 41.9517 237.998 42.733C237.993 43.4195 237.792 44.0256 237.394 44.5511C237.001 45.072 236.454 45.4792 235.754 45.7727C235.053 46.0663 234.248 46.2131 233.339 46.2131C232.004 46.2131 230.929 45.9337 230.114 45.375C229.3 44.8116 228.815 44.0279 228.658 43.0241L231.165 42.7827C231.279 43.2751 231.521 43.6468 231.89 43.8977C232.259 44.1487 232.74 44.2741 233.332 44.2741C233.942 44.2741 234.433 44.1487 234.802 43.8977C235.176 43.6468 235.363 43.3366 235.363 42.9673C235.363 42.6548 235.242 42.3968 235.001 42.1932C234.764 41.9896 234.395 41.8333 233.893 41.7244L232.032 41.3338C230.986 41.116 230.211 40.7491 229.71 40.233C229.208 39.7121 228.959 39.054 228.964 38.2585C228.959 37.5862 229.141 37.0038 229.511 36.5114C229.885 36.0142 230.403 35.6307 231.066 35.3608C231.734 35.0862 232.503 34.9489 233.374 34.9489C234.653 34.9489 235.659 35.2211 236.393 35.7656C237.131 36.3101 237.588 37.0464 237.763 37.9744Z" fill="#0A2134"/>
<path d="M102.724 66.2628V65.0909H110.906V66.2628H107.476V76H106.155V66.2628H102.724ZM115.018 76.1705C114.23 76.1705 113.55 75.9964 112.978 75.6484C112.41 75.2969 111.972 74.8068 111.663 74.1783C111.357 73.5462 111.205 72.8111 111.205 71.973C111.205 71.1349 111.357 70.3963 111.663 69.7571C111.972 69.1143 112.401 68.6136 112.952 68.255C113.506 67.8928 114.152 67.7116 114.891 67.7116C115.317 67.7116 115.738 67.7827 116.153 67.9247C116.569 68.0668 116.947 68.2976 117.288 68.6172C117.629 68.9332 117.9 69.3523 118.103 69.8743C118.305 70.3963 118.406 71.0391 118.406 71.8026V72.3352H112.099V71.2486H117.128C117.128 70.7869 117.036 70.375 116.851 70.0128C116.67 69.6506 116.411 69.3647 116.073 69.1552C115.739 68.9457 115.345 68.8409 114.891 68.8409C114.39 68.8409 113.957 68.9652 113.591 69.2138C113.229 69.4588 112.95 69.7784 112.755 70.1726C112.559 70.5668 112.462 70.9893 112.462 71.4403V72.1648C112.462 72.7827 112.568 73.3065 112.781 73.7362C112.998 74.1623 113.298 74.4872 113.681 74.7109C114.065 74.9311 114.511 75.0412 115.018 75.0412C115.349 75.0412 115.647 74.995 115.913 74.9027C116.183 74.8068 116.416 74.6648 116.611 74.4766C116.806 74.2848 116.957 74.0469 117.064 73.7628L118.278 74.1037C118.151 74.5156 117.936 74.8778 117.634 75.1903C117.332 75.4993 116.959 75.7408 116.515 75.9148C116.071 76.0852 115.572 76.1705 115.018 76.1705ZM126.114 69.6506L124.985 69.9702C124.914 69.782 124.809 69.5991 124.67 69.4215C124.536 69.2404 124.351 69.0913 124.116 68.9741C123.882 68.8569 123.582 68.7983 123.216 68.7983C122.716 68.7983 122.298 68.9137 121.964 69.1445C121.634 69.3718 121.469 69.6612 121.469 70.0128C121.469 70.3253 121.583 70.5721 121.81 70.7532C122.037 70.9343 122.392 71.0852 122.875 71.206L124.09 71.5043C124.821 71.6818 125.366 71.9535 125.725 72.3192C126.084 72.6815 126.263 73.1484 126.263 73.7202C126.263 74.1889 126.128 74.608 125.858 74.9773C125.592 75.3466 125.219 75.6378 124.74 75.8509C124.26 76.0639 123.703 76.1705 123.067 76.1705C122.233 76.1705 121.542 75.9893 120.995 75.6271C120.448 75.2649 120.102 74.7358 119.956 74.0398L121.15 73.7415C121.263 74.1818 121.478 74.5121 121.794 74.7322C122.114 74.9524 122.531 75.0625 123.046 75.0625C123.632 75.0625 124.097 74.9382 124.441 74.6896C124.789 74.4375 124.963 74.1357 124.963 73.7841C124.963 73.5 124.864 73.2621 124.665 73.0703C124.466 72.875 124.161 72.7294 123.749 72.6335L122.385 72.3139C121.636 72.1364 121.086 71.8612 120.734 71.4883C120.386 71.1119 120.212 70.6413 120.212 70.0767C120.212 69.6151 120.342 69.2067 120.601 68.8516C120.864 68.4964 121.221 68.2177 121.672 68.0153C122.126 67.8129 122.641 67.7116 123.216 67.7116C124.026 67.7116 124.662 67.8892 125.123 68.2443C125.588 68.5994 125.919 69.0682 126.114 69.6506ZM131.714 67.8182V68.8835H127.474V67.8182H131.714ZM128.709 65.858H129.967V73.6562C129.967 74.0114 130.018 74.2777 130.121 74.4553C130.228 74.6293 130.362 74.7464 130.526 74.8068C130.693 74.8636 130.869 74.892 131.053 74.892C131.192 74.892 131.305 74.8849 131.394 74.8707C131.483 74.853 131.554 74.8388 131.607 74.8281L131.863 75.9574C131.778 75.9893 131.659 76.0213 131.506 76.0533C131.353 76.0888 131.16 76.1065 130.925 76.1065C130.57 76.1065 130.222 76.0302 129.881 75.8775C129.544 75.7248 129.263 75.4922 129.04 75.1797C128.82 74.8672 128.709 74.473 128.709 73.9972V65.858ZM138.633 79.0682C138.42 79.0682 138.23 79.0504 138.063 79.0149C137.896 78.983 137.781 78.951 137.717 78.919L138.036 77.8111C138.342 77.8892 138.612 77.9176 138.846 77.8963C139.081 77.875 139.288 77.7702 139.469 77.582C139.654 77.3974 139.823 77.0973 139.975 76.6818L140.21 76.0426L137.184 67.8182H138.548L140.806 74.3381H140.892L143.15 67.8182H144.514L141.041 77.1932C140.884 77.6158 140.691 77.9656 140.46 78.2425C140.229 78.5231 139.961 78.7308 139.656 78.8658C139.354 79.0007 139.013 79.0682 138.633 79.0682ZM149.204 76.1705C148.465 76.1705 147.817 75.9947 147.26 75.6431C146.706 75.2915 146.272 74.7997 145.96 74.1676C145.651 73.5355 145.497 72.7969 145.497 71.9517C145.497 71.0994 145.651 70.3555 145.96 69.7198C146.272 69.0842 146.706 68.5906 147.26 68.239C147.817 67.8874 148.465 67.7116 149.204 67.7116C149.943 67.7116 150.589 67.8874 151.143 68.239C151.7 68.5906 152.134 69.0842 152.443 69.7198C152.755 70.3555 152.911 71.0994 152.911 71.9517C152.911 72.7969 152.755 73.5355 152.443 74.1676C152.134 74.7997 151.7 75.2915 151.143 75.6431C150.589 75.9947 149.943 76.1705 149.204 76.1705ZM149.204 75.0412C149.765 75.0412 150.227 74.8974 150.589 74.6097C150.951 74.3221 151.219 73.9439 151.393 73.4751C151.567 73.0064 151.654 72.4986 151.654 71.9517C151.654 71.4048 151.567 70.8952 151.393 70.4229C151.219 69.9506 150.951 69.5689 150.589 69.2777C150.227 68.9865 149.765 68.8409 149.204 68.8409C148.643 68.8409 148.181 68.9865 147.819 69.2777C147.457 69.5689 147.189 69.9506 147.015 70.4229C146.841 70.8952 146.754 71.4048 146.754 71.9517C146.754 72.4986 146.841 73.0064 147.015 73.4751C147.189 73.9439 147.457 74.3221 147.819 74.6097C148.181 74.8974 148.643 75.0412 149.204 75.0412ZM159.987 72.6548V67.8182H161.244V76H159.987V74.6151H159.901C159.71 75.0305 159.411 75.3839 159.006 75.6751C158.602 75.9627 158.09 76.1065 157.472 76.1065C156.961 76.1065 156.506 75.9947 156.109 75.771C155.711 75.5437 155.398 75.2028 155.171 74.7482C154.944 74.2901 154.83 73.7131 154.83 73.017V67.8182H156.087V72.9318C156.087 73.5284 156.254 74.0043 156.588 74.3594C156.925 74.7145 157.355 74.892 157.877 74.892C158.19 74.892 158.507 74.8121 158.831 74.6523C159.157 74.4925 159.431 74.2475 159.651 73.9173C159.875 73.587 159.987 73.1662 159.987 72.6548ZM163.546 76V67.8182H164.761V69.054H164.846C164.995 68.6491 165.265 68.3207 165.655 68.0685C166.046 67.8164 166.486 67.6903 166.976 67.6903C167.069 67.6903 167.184 67.6921 167.323 67.6957C167.461 67.6992 167.566 67.7045 167.637 67.7116V68.9901C167.594 68.9794 167.497 68.9634 167.344 68.9421C167.195 68.9173 167.037 68.9048 166.87 68.9048C166.472 68.9048 166.117 68.9883 165.805 69.1552C165.496 69.3185 165.251 69.5458 165.07 69.837C164.892 70.1246 164.803 70.4531 164.803 70.8224V76H163.546ZM174.518 73.017L174.496 71.4616H174.752L178.332 67.8182H179.887L176.073 71.6747H175.967L174.518 73.017ZM173.346 76V65.0909H174.603V76H173.346ZM178.545 76L175.349 71.9517L176.244 71.0781L180.143 76H178.545ZM182.762 71.0781V76H181.505V67.8182H182.72V69.0966H182.826C183.018 68.6811 183.309 68.3473 183.7 68.0952C184.09 67.8395 184.595 67.7116 185.212 67.7116C185.766 67.7116 186.251 67.8253 186.667 68.0526C187.082 68.2763 187.405 68.6172 187.636 69.0753C187.867 69.5298 187.982 70.1051 187.982 70.8011V76H186.725V70.8864C186.725 70.2436 186.558 69.7429 186.225 69.3842C185.891 69.022 185.433 68.8409 184.85 68.8409C184.449 68.8409 184.09 68.9279 183.774 69.1019C183.462 69.2759 183.215 69.5298 183.034 69.8636C182.853 70.1974 182.762 70.6023 182.762 71.0781ZM193.603 76.1705C192.865 76.1705 192.217 75.9947 191.659 75.6431C191.105 75.2915 190.672 74.7997 190.359 74.1676C190.05 73.5355 189.896 72.7969 189.896 71.9517C189.896 71.0994 190.05 70.3555 190.359 69.7198C190.672 69.0842 191.105 68.5906 191.659 68.239C192.217 67.8874 192.865 67.7116 193.603 67.7116C194.342 67.7116 194.988 67.8874 195.542 68.239C196.1 68.5906 196.533 69.0842 196.842 69.7198C197.154 70.3555 197.311 71.0994 197.311 71.9517C197.311 72.7969 197.154 73.5355 196.842 74.1676C196.533 74.7997 196.1 75.2915 195.542 75.6431C194.988 75.9947 194.342 76.1705 193.603 76.1705ZM193.603 75.0412C194.164 75.0412 194.626 74.8974 194.988 74.6097C195.35 74.3221 195.619 73.9439 195.793 73.4751C195.967 73.0064 196.054 72.4986 196.054 71.9517C196.054 71.4048 195.967 70.8952 195.793 70.4229C195.619 69.9506 195.35 69.5689 194.988 69.2777C194.626 68.9865 194.164 68.8409 193.603 68.8409C193.042 68.8409 192.581 68.9865 192.218 69.2777C191.856 69.5689 191.588 69.9506 191.414 70.4229C191.24 70.8952 191.153 71.4048 191.153 71.9517C191.153 72.4986 191.24 73.0064 191.414 73.4751C191.588 73.9439 191.856 74.3221 192.218 74.6097C192.581 74.8974 193.042 75.0412 193.603 75.0412ZM200.805 76L198.312 67.8182H199.633L201.402 74.0824H201.487L203.234 67.8182H204.576L206.302 74.0611H206.387L208.156 67.8182H209.477L206.984 76H205.748L203.958 69.7145H203.831L202.041 76H200.805ZM212.396 65.0909V76H211.139V65.0909H212.396ZM218.129 76.1705C217.34 76.1705 216.66 75.9964 216.089 75.6484C215.521 75.2969 215.082 74.8068 214.773 74.1783C214.468 73.5462 214.315 72.8111 214.315 71.973C214.315 71.1349 214.468 70.3963 214.773 69.7571C215.082 69.1143 215.512 68.6136 216.062 68.255C216.616 67.8928 217.262 67.7116 218.001 67.7116C218.427 67.7116 218.848 67.7827 219.263 67.9247C219.679 68.0668 220.057 68.2976 220.398 68.6172C220.739 68.9332 221.011 69.3523 221.213 69.8743C221.415 70.3963 221.517 71.0391 221.517 71.8026V72.3352H215.21V71.2486H220.238C220.238 70.7869 220.146 70.375 219.961 70.0128C219.78 69.6506 219.521 69.3647 219.184 69.1552C218.85 68.9457 218.456 68.8409 218.001 68.8409C217.5 68.8409 217.067 68.9652 216.701 69.2138C216.339 69.4588 216.06 69.7784 215.865 70.1726C215.67 70.5668 215.572 70.9893 215.572 71.4403V72.1648C215.572 72.7827 215.679 73.3065 215.892 73.7362C216.108 74.1623 216.408 74.4872 216.792 74.7109C217.175 74.9311 217.621 75.0412 218.129 75.0412C218.459 75.0412 218.757 74.995 219.024 74.9027C219.294 74.8068 219.526 74.6648 219.722 74.4766C219.917 74.2848 220.068 74.0469 220.174 73.7628L221.389 74.1037C221.261 74.5156 221.046 74.8778 220.744 75.1903C220.442 75.4993 220.07 75.7408 219.626 75.9148C219.182 76.0852 218.683 76.1705 218.129 76.1705ZM226.518 76.1705C225.837 76.1705 225.235 75.9982 224.713 75.6538C224.191 75.3058 223.782 74.8157 223.487 74.1836C223.193 73.5479 223.045 72.7969 223.045 71.9304C223.045 71.071 223.193 70.3253 223.487 69.6932C223.782 69.0611 224.192 68.5728 224.718 68.2283C225.244 67.8839 225.851 67.7116 226.54 67.7116C227.072 67.7116 227.493 67.8004 227.802 67.978C228.115 68.152 228.353 68.3509 228.516 68.5746C228.683 68.7947 228.812 68.9759 228.905 69.1179H229.011V65.0909H230.268V76H229.054V74.7429H228.905C228.812 74.892 228.681 75.0803 228.511 75.3075C228.34 75.5312 228.097 75.7319 227.781 75.9094C227.465 76.0835 227.044 76.1705 226.518 76.1705ZM226.689 75.0412C227.193 75.0412 227.619 74.9098 227.967 74.647C228.315 74.3807 228.58 74.0131 228.761 73.5444C228.942 73.0721 229.033 72.527 229.033 71.9091C229.033 71.2983 228.944 70.7638 228.766 70.3058C228.589 69.8441 228.326 69.4854 227.978 69.2298C227.63 68.9705 227.2 68.8409 226.689 68.8409C226.156 68.8409 225.712 68.9776 225.357 69.2511C225.006 69.521 224.741 69.8885 224.563 70.3537C224.389 70.8153 224.302 71.3338 224.302 71.9091C224.302 72.4915 224.391 73.0206 224.569 73.4964C224.75 73.9687 225.016 74.3452 225.368 74.6257C225.723 74.9027 226.163 75.0412 226.689 75.0412ZM236.048 79.2386C235.441 79.2386 234.919 79.1605 234.482 79.0043C234.045 78.8516 233.681 78.6491 233.39 78.397C233.102 78.1484 232.873 77.8821 232.703 77.598L233.704 76.8949C233.818 77.044 233.962 77.2145 234.136 77.4062C234.31 77.6016 234.547 77.7702 234.849 77.9123C235.155 78.0579 235.554 78.1307 236.048 78.1307C236.708 78.1307 237.253 77.9709 237.683 77.6513C238.113 77.3317 238.328 76.831 238.328 76.1491V74.4872H238.221C238.129 74.6364 237.997 74.821 237.827 75.0412C237.66 75.2578 237.419 75.4513 237.103 75.6218C236.79 75.7887 236.367 75.8722 235.835 75.8722C235.174 75.8722 234.581 75.7159 234.056 75.4034C233.534 75.0909 233.12 74.6364 232.815 74.0398C232.513 73.4432 232.362 72.7187 232.362 71.8665C232.362 71.0284 232.509 70.2987 232.804 69.6772C233.099 69.0522 233.509 68.5692 234.034 68.2283C234.56 67.8839 235.167 67.7116 235.856 67.7116C236.389 67.7116 236.811 67.8004 237.124 67.978C237.44 68.152 237.681 68.3509 237.848 68.5746C238.019 68.7947 238.15 68.9759 238.242 69.1179H238.37V67.8182H239.585V76.2344C239.585 76.9375 239.425 77.5092 239.105 77.9496C238.789 78.3935 238.363 78.7184 237.827 78.9244C237.294 79.1339 236.701 79.2386 236.048 79.2386ZM236.005 74.7429C236.509 74.7429 236.936 74.6275 237.284 74.3967C237.632 74.1658 237.896 73.8338 238.077 73.4006C238.258 72.9673 238.349 72.4489 238.349 71.8452C238.349 71.2557 238.26 70.7354 238.083 70.2844C237.905 69.8335 237.642 69.4801 237.294 69.2244C236.946 68.9687 236.517 68.8409 236.005 68.8409C235.473 68.8409 235.029 68.9759 234.674 69.2457C234.322 69.5156 234.057 69.8778 233.88 70.3324C233.706 70.7869 233.619 71.2912 233.619 71.8452C233.619 72.4134 233.708 72.9158 233.885 73.3526C234.066 73.7859 234.333 74.1268 234.684 74.3754C235.039 74.6204 235.48 74.7429 236.005 74.7429ZM245.316 76.1705C244.528 76.1705 243.848 75.9964 243.276 75.6484C242.708 75.2969 242.269 74.8068 241.96 74.1783C241.655 73.5462 241.502 72.8111 241.502 71.973C241.502 71.1349 241.655 70.3963 241.96 69.7571C242.269 69.1143 242.699 68.6136 243.25 68.255C243.804 67.8928 244.45 67.7116 245.188 67.7116C245.615 67.7116 246.035 67.7827 246.451 67.9247C246.866 68.0668 247.245 68.2976 247.585 68.6172C247.926 68.9332 248.198 69.3523 248.4 69.8743C248.603 70.3963 248.704 71.0391 248.704 71.8026V72.3352H242.397V71.2486H247.426C247.426 70.7869 247.333 70.375 247.149 70.0128C246.968 69.6506 246.708 69.3647 246.371 69.1552C246.037 68.9457 245.643 68.8409 245.188 68.8409C244.688 68.8409 244.255 68.9652 243.889 69.2138C243.527 69.4588 243.248 69.7784 243.052 70.1726C242.857 70.5668 242.759 70.9893 242.759 71.4403V72.1648C242.759 72.7827 242.866 73.3065 243.079 73.7362C243.296 74.1623 243.596 74.4872 243.979 74.7109C244.363 74.9311 244.809 75.0412 245.316 75.0412C245.647 75.0412 245.945 74.995 246.211 74.9027C246.481 74.8068 246.714 74.6648 246.909 74.4766C247.104 74.2848 247.255 74.0469 247.362 73.7628L248.576 74.1037C248.448 74.5156 248.234 74.8778 247.932 75.1903C247.63 75.4993 247.257 75.7408 246.813 75.9148C246.369 76.0852 245.87 76.1705 245.316 76.1705Z" fill="#43505B"/>
</svg>
